<?xml version="1.0" encoding="UTF-8"?>
<svg width="512.3" height="512.3" version="1.1" viewBox="0 0 512.3 512.3" xmlns="http://www.w3.org/2000/svg">
	<g transform="translate(.15 .15)" display="none">
		<rect x="-45.438" y="-46.385" width="598.27" height="571.76" fill="#1a1a1a" stroke="#000" stroke-width="3.7795" style="font-variation-settings:'wght' 700"/>
	</g>
	<g transform="translate(.15 .15)">
		<path x="16.043379" y="17.223415" width="480" height="480" d="m119.3 17.223h274.36a102.39 102.39 45 0 1 102.39 102.39v262.93a114.68 114.68 135 0 1-114.68 114.68h-256.02a109.3 109.3 45 0 1-109.3-109.3v-267.45a103.25 103.25 135 0 1 103.25-103.25z" fill="#ad9df3" stroke="#f3f3f2" stroke-width="23.88" style="font-variation-settings:'wght' 700"/>
		<rect x="18.906" y="221.8" width="46.573" height="47.956" fill="#ccc" style="font-variation-settings:'wght' 700"/>
		<rect x="440" y="216" width="46.573" height="47.956" fill="#ccc" style="font-variation-settings:'wght' 700"/>
		<g fill="#c2bdb8" stroke="None">
			<path d="m308 485c8.87 3.7009 19.934 4.2634 28.559 0.77932-5.07-5.72-15.329-9.2593-18.559-16.779-3.37 4.66-4.24 12.99-10 16z"/>
		</g>
		<g fill="None" fill-opacity="0" stroke-width=".3">
			<g stroke="#000" stroke-opacity="0">
				<path d="m0 512h512v-512h-512v512m242-507c16.79 0 34.83-1.29 51 0s38.8-3.17 54 0 41.31-7.63 53 1h1c5.68-0.54 10.23 1.87 15 3 4.31 0.47 6.98 1.8 11 3 2.48 0.74 5.67 0.21 7 3 2.99 0.06 5.4 1.67 8 3 3.13 1.6 6.06 3.1 9 5 1.9 1.23 3.75 2.18 5 4 2.7 0.75 7.85 4.45 9 7 0.19 0.41 0 1 0 1 0.25 0.25 1 0 1 0 3.38 1.65 9.37 7.68 11 11 0.2 0.4 0 1 0 1 0.25 0.25 1 0 1 0 3.73 1.69 6.87 7.52 9 11 2.26 3.69 4.83 6.76 6 11 0.13 0.46-0.13 1.54 0 2 5.1 6.27 8.14 15.16 10 24 0.5 2.36 0.67 4.49 1 7 1.66 5.69 2.74 12.43 3 20 0.73 21.57 0 43.9 0 67 0.34 3.5 0.02 8.69 0 12 0.17 0.79 0.82 1.17 1 2 1.45 6.8-0.41 15.92-1 22 0 14.99-0.37 30.43 1 45 0.53 5.7-0.48 12.08-1 17v5c0.64 6 0.57 13.08 0 19 0 4.3 0.72 7.87 1 12 0.31 4.55 0.24 9.45 0 14-0.12 2.22-0.78 4.03-1 6-0.17 10.91 0.19 25.11 0 36 0.52 6.5 1.12 12.4 0 19-0.49 2.9-2.32 4.87-3 7-1.32 11.86-4.87 24.6-11 34-1.86 3.8-3.71 7.54-6 11-0.74 1.12-0.88 1.91-2 3-2.13 2.67-3.7 4.64-6 7 0.23 0.36 0 1 0 1-4.94 6.46-9.9 11.04-16 16-2.32 2.34-6.7 6.36-10 7-0.48 0.09-1 0-1 0-1.23 3.23-4.11 3.68-7 5-5.6 2.56-10.02 5.8-16 7-3.85 1.51-6.25 3.89-11 4-2.7 0.69-5.88 2.5-9 3-3.28 0.52-6.78 0.74-10 1-3.35 0.65-9.79 3.5-13 1-0.44 0.16-1 0-1 0-14.83 10.97-47.65-3.12-67 1s-48.18-1.66-69 0-42.38 0.45-63.01 0.99c-20.62 0.54-42.98 0.14-62.99-1.99-1.66 0-3.35-0.09-5 0-2.52 0.14-6.24 0.72-9-1-11.87 2.71-28.04-7.89-39-12-1.1-0.41-1.13-0.49-2-1-4.54-2.65-19.46-9.3-19-14-3.02-0.58-5.21-4.1-7-6-3.79-0.79-11.62-10.49-13-14-0.17-0.43 0-1 0-1-4-2.8-4.03-5.14-6-9-3.41-6.68-7.29-12.57-10-20-2.47-6.79-5.06-12.08-5-19-0.5-2.57-2-5.23-2-9-0.23-1.75-2.45-7.8-2-12 0.05-0.49 0-1 0-1 0.44-4.63-1.26-8.41-1-13 0.47-8.34 1-17.29 1-26v-35c0-59.11-5.52-121.18 0-180-0.64-6.57-0.16-13.97 1-21 0.39-2.38 0.72-3.87 1-6 0.41-3.06 1.34-4.83 2-7 1.83-11.53 6.55-23.32 12-33 1.84-3.28 3.61-6.33 6-9 0.5-0.56 0.66-1.38 1-2 1.16-2.11 2.62-3.36 4-5 0.75-0.9 1.1-1.31 2-2 4.07-4.35 8.87-9.57 14-14 2.1-1.88 4.32-4.04 7-5 0.35-0.13 0.81-0.68 1-1 3.29-5.51 13.47-8.78 19-11 5.19-2.09 9.38-4.11 15-5 3.34-1.03 7.25-3.06 11-4 2.79-0.33 5.19-0.61 8-1 2.39-0.33 3.51-1.59 6 0 2.21-2.3 9.74-1 13-1h106c2.82-0.27 6.24-0.27 9 0z"/>
			</g>
			<g>
				<g stroke="#ad9df3">
					<path d="m24 149c3.4-12.07 22.66-21.01 32-26-29.5-24.81 18.58-22.11 35-28-22.8-14.29 17.31-21.29 29-24-11.91-7.38-5-20.19 8-17 3.98-0.57 8.09-0.56 12 0 4.29 0.16 8.02 0.68 12 2-9.15-20.6 24.47-8.5 34-4 1.9-17.11 25.65-5.78 36-3-7.46-20.94 30.06-11.51 34 2 8.6-8.37 40.44-25.25 37-2 9.91-2.78 30.81-11.47 35 2 9.78-1.62 36.9-15.08 34 4 3.18 0.41 5.72-1.69 9-1 3.72-0.6 7.36-0.52 11 0 12.26 0.47 22.08 5.97 10 17 11.21 1.52 49.66 9.11 29 23 15.89 6.72 65.65 3.74 34 28 13.4 4.52 22.37 16.77 33 26 0.01-72.28-36.47-125-114-123s-159.27 1.5-237 0-113 51.7-113 124z"/>
				</g>
				<g stroke="#1b1229">
					<path d="m140 54c-3.96-0.15-8.04-0.15-12 0-13-3.19-19.91 9.62-8 17-11.69 2.71-51.8 9.71-29 24-16.42 5.89-64.5 3.19-35 28-9.34 4.99-28.6 13.93-32 26v6c2.33 5.43 16.61 3.97 21 5-12.06 12.25-3.16 34.05-21 42v2c0 3.94 0.35 8.07 0 12 4.54-3.48 8.99-7.66 14-10 0.08 6.41 2.33 12.32 5 18 0.73-0.05 4.28 2.94 6 2-0.75 46.31 59.92 30.7 77 4 8.97-11.71 10.88-26.92 17-40 3.31-7.07 6.81-13.98 12-20-7.18 4.65-18.16 11.17-27 15 0.47-1.88-1.06-4.93 1-6 1.7-9.77 4.9-17.03 9-26 1.96-4.29 4.17-6.73 8-10 9.35-7.99 18.51-15.98 30-20-3.09-2.19-8.16-0.43-12-1-13.6 2.44-23.16 14.02-31 25-9.03 12.64-11.13 26.15-14 41-0.71 11.9 8.05 7.53 15 4 1.71 46.2-92.11 84.14-75 15-0.12-2.3-2.95-5.28-3-8-1.13 0.57-1.12 2.52-3 2-1.82 4.15-2.36 8.75-4 13-3.64-9.63-5.44-22.7-3-33 0.49-8.96 4.13-17.13 11-23 0.78-0.85 1.35-2.11 2-3 1.74-2.36 3.55-4.51 5-7-2.23-1.2-9.26 1.85-12 2-3.05 0.49-6.09 0.28-9 0-2.52 0-6.3 0.78-8-1 11.09-15.45 29.02-20.86 46-25 0.42-0.57 0.25-2.4 1-3-2.23 0.52-3.73-1.54-6-1-7.21-1.44-15.64-3.13-20-10 21.2-0.96 40.39-9.71 61-13-4.69-5.73-16.82-3.21-22-10 15.8-8.27 34.69-7.76 52-9-8.22-3.98-15.29-9.1-23-14 0.26-1.39 2.05-0.78 3-1 4.23-1.65 8.94-0.49 13 0 9.46 0.19 20.08 4.04 28 9-1.05-3.35-6.15-10.77-7-15-0.2-1.01-1.45-1.76-1-3 15.56 1.93 30.39 7.33 44 15-0.36-1.94 1.86-2.61 1-5-1.09-1.63-2.67-3.67-4-5-2.57-1.26-5.42-4.37-6-7 15.2-0.21 29 6.35 41 15 2.31-0.57 2.04-1.57 2-4-2.31-6.17-6.49-11.6-8-18 1.94-0.62 3.13 1.2 5 1 10.55 2.35 16.65 11.85 22 20 5.46-10.75 15.95-19.24 28-20 0.29 5.22-5.5 8.03-6 13 0.17 1.84-0.91 5.88 2 4 0.09-0.2 1 0 1 0 10.77-6.7 22.75-11.22 36-10-1.09 4.63-6.82 6.87-9 11-0.3 0.5-0.66 1.62-1 2-0.5 0.97-1.21 1.79-1 3 0.94-0.57 1.82-1.15 3-1 13.09-8.1 28.09-11.49 43-14 0.11 2.23-0.79 5.07-3 6-0.5 0.56-0.66 1.38-1 2-0.36 0.65-0.64 1.39-1 2-0.78 1.31-1.3 2.66-2 4 0.87 0.95 2.68 0.54 3 2 11.75-5.48 24.38-10.63 38-7-4.86 7.95-14.86 9.22-21 15 16.39 1.04 33.84 1.1 49 8-2.82 7.07-12.98 5.82-19 9 18.6 7.29 40.1 12.45 60 16-6.27 5.35-14.04 7.86-22 9-1.54 0.48-6.05 1.86-4 4 7.42 1.38 21.67 6.91 27.75 9.25 6.07 2.35 19.07 16.17 16.25 16.75-0.84 2.9-8.79 0.15-10 0-5.35-0.11-9.88-1.13-15-2-0.99 0.12-2.01-0.1-3 0 10.52 10.78 20.7 23.03 19 39 0.87 9.03 1.36 19.32-3 28-1.86-4.87-1.48-11.45-5-16-1.61-1.61-3.69-2.35-6-2v4c1.22 4.44 1.82 9.27 2 14 0.61 4.27 0.6 8.79 0 13-1.74 45.71-82.77-3.58-75-36 29.09 11.28 5.96-44.05-8-55-2.01-2.55-3.5-5.01-6-7-4.07-3.25-12.27-7.15-17-8-3.55-0.64-7.42 0.48-11 0 22.82 11.31 44.27 33.22 46 60-0.01 0.21 1.91 2.09 1 3-8.72-3.68-17.33-12.85-26-14 4.42 5.43 7.57 12.56 10 19 4.2 11.09 8.79 21.9 13 33 11.36 16.91 31.54 31.89 52 33 3.22 0.17 6.79 0.29 10 0 13.69-2.83 19.84-16.49 20-30 8.74 1.03 8.72-10.03 12-15 0.08-2-0.06-4 0-6 5.15 3.69 8.9 9.36 14 13v-17c-5.02-0.58-7.33-6.88-12-8-0.16-11.72-2.28-23.39-9-33 7.63 0.44 14.96-1.58 21-6v-6c-10.63-9.23-19.6-21.48-33-26 31.65-24.26-18.11-21.28-34-28 20.66-13.89-17.79-21.48-29-23 12.08-11.03 2.26-16.53-10-17-3.61-0.14-7.39-0.2-11 0-3.28-0.69-5.82 1.41-9 1 2.9-19.08-24.22-5.62-34-4-4.19-13.47-25.09-4.78-35-2 3.44-23.25-28.4-6.37-37 2-3.94-13.51-41.46-22.94-34-2-10.35-2.78-34.1-14.11-36 3-9.53-4.5-43.15-16.6-34 4-3.98-1.32-7.71-1.84-12-2z"/>
				</g>
				<g stroke="#c3c2c6">
					<path d="m238 63c0.54 1.45 0.81 5.48 1 6 2.8 2.03 4.71 6.68 9 6-1.99-10.35-11.97-17.34-16-27 0.24-1.67 2.85-0.17 3-2-1.87 0.2-3.06-1.62-5-1 1.51 6.4 5.69 11.83 8 18z"/>
				</g>
				<g stroke="#f8f8ee">
					<path d="m239 69c-0.83-0.6-2.11-1.29-3-2-12-8.65-25.8-15.21-41-15 0.58 2.63 3.43 5.74 6 7 0.4 0.2 1 0 1 0 7.51 5.01 14.95 11.11 20 19-5.56-0.5-10.49-4.29-15-7-0.28-0.23-0.75-0.91-1-1-0.65-0.24-1.4-0.69-2-1-13.61-7.67-28.44-13.07-44-15-0.45 1.24 0.8 1.99 1 3 4.08 10.51 23.9 14.46 28 26-7.58-1.61-15.68-5.2-21-11-7.92-4.96-18.54-8.81-28-9-4.02-0.08-9.07-0.77-13 0-0.95 0.22-2.74-0.39-3 1 7.71 4.9 14.78 10.02 23 14-17.31 1.24-36.2 0.73-52 9 5.18 6.79 17.31 4.27 22 10-20.61 3.29-39.8 12.04-61 13 4.36 6.87 12.79 8.56 20 10 8.82-0.15 18.94-3.92 28-5-6.13 5.46-14.93 7.68-23 9-16.98 4.14-34.91 9.55-46 25 18.42-1.58 32.91-15.22 51-18-7.91 10.14-19.83 17.44-29 27-6.87 5.87-10.51 14.04-11 23-0.15 2.8-0.68 7.01 1 9 2.54-6.51 6.16-13 11-18 9.56-13.25 22.14-25.78 36-34-10.33 11.44-16.07 25.72-17 41 4.81-3.36 8.23-8.69 13-12 4.98-5.83 13.6-17.5 20-15 13.43-15.2 33.26-36.05 54-30 3.84 0.57 8.91-1.19 12 1-11.49 4.02-20.65 12.01-30 20-2.92 2.92-5.97 6.81-8 10-4.1 8.97-7.3 16.23-9 26 0.14 0.98-0.12 2.02 0 3 11.58-8.38 22.44-18.82 36-23-3.36 3.68-6.45 7.81-10 11-5.19 6.02-8.69 12.93-12 20 1.77 1.45 4.22 0.57 6 2 11.93-15.38 27.18-29.61 47-31 4.71-0.41 9.6-0.04 14 1 23.5 5.55 29.19 45.05 64 29-0.13-2.96 3.57-4.1 6-4 3.22-8.1 6.45-17.73 15-22 5.53-2.95 11.38-4.25 18-4 23.59 0.9 35.85 19.99 53 32 0.11-1-0.47-2.73 1-3-2.43-6.44-5.58-13.57-10-19-3.55-4.37-9.02-8.72-12-13 13.1 5.34 27.34 16.23 37 24-1.73-26.78-23.18-48.69-46-60 3.58 0.48 7.45-0.64 11 0 19.04-3.48 41.42 10.63 50 29-4.94-1.35-8.66-5.8-14-6 3.04 6.55 10.15 11.35 13 18 4.93 6 10.87 11.31 15 18 2.47-1.28 4.33-0.13 7 0-1.18-4.6-4.11-8.61-6-13-1.57-3.13-3.81-7.33-6-10-2.26-2.75-5.76-4.36-4-9 11.28 8.02 17.8 22.04 30 28 1.47-15.78-7.06-29.32-16-41 20.46 11.61 36.18 35.38 49 51 1.7-15.97-8.48-28.22-19-39 0.99-0.1 2.01 0.12 3 0-9.45-1.6-18.92-9.99-26-18 16.76 4.73 33.35 12.71 49 20 0.5 0 1.52 0.1 2 0 2.82-0.58-10.18-14.4-16.25-16.75-6.08-2.34-20.33-7.87-27.75-9.25-6.94-1.29-16.64-3.36-20-10 7.54 3.19 16.34 4.3 24 6 7.96-1.14 15.73-3.65 22-9-19.9-3.55-41.4-8.71-60-16 6.02-3.18 16.18-1.93 19-9-15.16-6.9-32.61-6.96-49-8 6.14-5.78 16.14-7.05 21-15-13.62-3.63-26.25 1.52-38 7-0.78 0.36-2.43 0.62-3 1-0.27 0.18-0.85 0.73-1 1-1.56 2.75-3.51 2.63-6 4-4.93 2.72-10.42 5.67-16 7 7.89-8.95 18.84-14.06 27-23 2.21-0.93 3.11-3.77 3-6-14.91 2.51-29.91 5.9-43 14-1.47 0.91-3.55 2.09-5 3-3.55 2.22-7.19 6.07-12 6 3.23-5.23 9.57-13.71 16-13 2.18-4.13 7.91-6.37 9-11-13.25-1.22-25.23 3.3-36 10-1.65 3.95-7.11 5.78-10 8-1.83 1.41-3 4.47-6 4 1.51-5.13 5.68-9.71 10-13 0.68-0.9 1.26-1.29 2-2 0.25-0.24 0.91-0.75 1-1 0.5-4.97 6.29-7.78 6-13-12.05 0.76-22.54 9.25-28 20-5.35-8.15-11.45-17.65-22-20-0.15 1.83-2.76 0.33-3 2 4.03 9.66 14.01 16.65 16 27-4.29 0.68-6.2-3.97-9-6m-53 38c-24.17 1.7-47.46 12.64-69 23 13.98-23.2 44.22-31.03 69-23m209 23c-21.98-9.54-44.06-22.76-70-22 24.37-10.52 56.92-2.74 70 22z"/>
				</g>
				<g stroke="#5c568a">
					<path d="m128 54c3.96-0.15 8.04-0.15 12 0-3.91-0.56-8.02-0.57-12 0z"/>
				</g>
				<g stroke="#615b8c">
					<path d="m371 54c3.61-0.2 7.39-0.14 11 0-3.64-0.52-7.28-0.6-11 0z"/>
				</g>
				<g stroke="#b5b2b6">
					<path d="m168 72c5.32 5.8 13.42 9.39 21 11-4.1-11.54-23.92-15.49-28-26 0.85 4.23 5.95 11.65 7 15z"/>
				</g>
				<g stroke="#857f8c">
					<path d="m205 64c1.81 2.72 2.22 2.8 1 6 0.25 0.09 0.72 0.77 1 1 6.76-0.66-3.71-10.16-5-12 0 0-0.6 0.2-1 0 1.33 1.33 2.91 3.37 4 5z"/>
				</g>
				<g stroke="#bdbabc">
					<path d="m207 71c4.51 2.71 9.44 6.5 15 7-5.05-7.89-12.49-13.99-20-19 1.29 1.84 11.76 11.34 5 12z"/>
				</g>
				<g stroke="#4c4150">
					<path d="m278 60c-1.2 1.82-1.06 3.85-1 6 1.77 0.21 3.37-1.54 4-3-2.91 1.88-1.83-2.16-2-4-0.09 0.25-0.75 0.76-1 1z"/>
				</g>
				<g stroke="#9c9392">
					<path d="m276 62c-2.68 3.51-2.35 5.47-4 9 2.89-2.22 8.35-4.05 10-8 0 0-0.91-0.2-1 0-0.63 1.46-2.23 3.21-4 3-0.06-2.15-0.2-4.18 1-6-0.74 0.71-1.32 1.1-2 2z"/>
				</g>
				<g stroke="#cdc9c1">
					<path d="m339 76c3.17-5.34 5.2-8.85 10-14 0.34-0.62 0.5-1.44 1-2-8.16 8.94-19.11 14.05-27 23 5.58-1.33 11.07-4.28 16-7z"/>
				</g>
				<g stroke="#9e96a1">
					<path d="m127 63c3.93-0.77 8.98-0.08 13 0-4.06-0.49-8.77-1.65-13 0z"/>
				</g>
				<g stroke="#c9c5be">
					<path d="m272 71c1.65-3.53 1.32-5.49 4-9-4.32 3.29-8.49 7.87-10 13 3 0.47 4.17-2.59 6-4z"/>
				</g>
				<g stroke="#a59fa1">
					<path d="m339 76c2.49-1.37 4.44-1.25 6-4-4.54 2.27-0.05-4.84 1-6 0.56-0.63 1.53-1.45 2-2 0.36-0.61 0.64-1.35 1-2-4.8 5.15-6.83 8.66-10 14z"/>
				</g>
				<g stroke="#6f6b85">
					<path d="m236 67c0.89 0.71 2.17 1.4 3 2-0.19-0.52-0.46-4.55-1-6 0.04 2.43 0.31 3.43-2 4z"/>
				</g>
				<g stroke="#c8c2bd">
					<path d="m305 71c1.12-1.48 1.62-3.46 3-5 0.34-0.38 0.7-1.5 1-2-6.43-0.71-12.77 7.77-16 13 4.81 0.07 8.45-3.78 12-6z"/>
				</g>
				<g stroke="#61596d">
					<path d="m204 69c0.6 0.31 1.35 0.76 2 1 1.22-3.2 0.81-3.28-1-6 0.86 2.39-1.36 3.06-1 5z"/>
				</g>
				<g stroke="#41374b">
					<path d="m346 66c-1.3 2.38-0.61 3.04 0 5 0.57-0.38 2.22-0.64 3-1-0.32-1.46-2.13-1.05-3-2 0.7-1.34 1.22-2.69 2-4-0.47 0.55-1.44 1.37-2 2z"/>
				</g>
				<g stroke="#847982">
					<path d="m305 71c1.45-0.91 3.53-2.09 5-3-1.18-0.15-2.06 0.43-3 1-0.21-1.21 0.5-2.03 1-3-1.38 1.54-1.88 3.52-3 5z"/>
				</g>
				<g stroke="#78707b">
					<path d="m345 72c0.15-0.27 0.73-0.82 1-1-0.61-1.96-1.3-2.62 0-5-1.05 1.16-5.54 8.27-1 6z"/>
				</g>
				<g stroke="#d4d2c8">
					<path d="m186 107c-24.78-8.03-55.02-0.2-69 23 21.54-10.36 44.83-21.3 69-23z"/>
				</g>
				<g stroke="#d2d0c8">
					<path d="m395 130c-13.08-24.74-45.63-32.52-70-22 25.94-0.76 48.02 12.46 70 22z"/>
				</g>
				<g stroke="#cac5be">
					<path d="m430 124c-2.05-2.14 2.46-3.52 4-4-7.66-1.7-16.46-2.81-24-6 3.36 6.64 13.06 8.71 20 10z"/>
				</g>
				<g stroke="#c9c5c1">
					<path d="m76 120c2.27-0.54 3.77 1.52 6 1-0.75 0.6-0.58 2.43-1 3 8.07-1.32 16.87-3.54 23-9-9.06 1.08-19.18 4.85-28 5z"/>
				</g>
				<g stroke="#beb8b7">
					<path d="m90 167c-5.18 6.06-17.18 19.69-21 10-1.93 1.26-3.91 3-5 5-2.78-3.09-4.37-7.09-6-10-4.84 5-8.46 11.49-11 18-1.68-1.99-1.15-6.2-1-9-2.44 10.3-0.64 23.37 3 33 1.64-4.25 2.18-8.85 4-13 0.61-1.39 1.39-2.62 2-4 2.32-5.29 4.84-11.8 11-14-1.2 3.95-1.64 8.75-4 12-1.14 3.92-1.89 8.02-3 12-17.11 69.14 76.71 31.2 75-15-6.95 3.53-15.71 7.9-15-4-0.5 2.6-1.8 6.03 0 9-3.78-3.61-7.8-5.5-11-9-4.78 8.18-12.38 14.52-19 21 6.07-2.56 9.54-9.53 15-13 3.9 12.68-23.92 32.13-23 14 1.39-0.54 3.25 2.3 4 0-5.91-0.93 7.75-30.83 10-35 8.6-15.94 13.69-20.1 29-29 3.13-1.82 6.18-3.45 10-4 1.51 2.11-2.95 3.91-1 5 7.84-10.98 17.4-22.56 31-25-20.74-6.05-40.57 14.8-54 30-6.4-2.5-15.02 9.17-20 15z"/>
				</g>
				<g stroke="#beb7b8">
					<path d="m347 122c4.73 0.85 12.93 4.75 17 8-0.22-0.08 13.81 7.34 6 7 13.96 10.95 37.09 66.28 8 55-7.77 32.42 73.26 81.71 75 36 0.16-4.29 0.16-8.71 0-13-0.18-4.73-0.78-9.56-2-14-0.32-1.17-1.39-4.71-2-6-0.24-0.51-1.81-1.54-2-2-0.49 7.42-7.44 6.17-12 4-1.49-3.92-5.32-10.71-3-19-10.43-2.16-18.89-24.14-26-20 2.19 2.67 4.43 6.87 6 10 3.1 4.96 21.44 38.01 11 41 3.54 0.61 3.05-2.11 3-6 9.57 27.12-26.35 5.49-20-10-5.5-7.39-10.31-15.15-15-23 2.78-0.83 3.6-4.27 5-7-2.85-6.65-9.96-11.45-13-18 5.34 0.2 9.06 4.65 14 6-8.58-18.37-30.96-32.48-50-29z"/>
				</g>
				<g stroke="#968c96">
					<path d="m364 130c2.5 1.99 3.99 4.45 6 7 7.81 0.34-6.22-7.08-6-7z"/>
				</g>
				<g stroke="#d5d3cb">
					<path d="m449 148c5.12 0.87 9.65 1.89 15 2 2.66 0.05 5.34 0 8 0-15.65-7.29-32.24-15.27-49-20 7.08 8.01 16.55 16.4 26 18z"/>
				</g>
				<g stroke="#d6d2ca">
					<path d="m35 149c1.7 1.78 5.48 1 8 1 2.98 0 6.02 0.16 9 0 2.74-0.15 9.77-3.2 12-2 2.91 1.56-3.97 5.88-5 7-0.65 0.89-1.22 2.15-2 3 9.17-9.56 21.09-16.86 29-27-18.09 2.78-32.58 16.42-51 18z"/>
				</g>
				<g stroke="#c9c6c0">
					<path d="m406 158c7.11-4.14 15.57 17.84 26 20-2.32 8.29 1.51 15.08 3 19 4.56 2.17 11.51 3.42 12-4-1.65-3.93-1.39-8.95-3-13 4.24 2.92 7.2 7.5 9 12 1.16 2.37 2.68 4.6 4 7 3.52 4.55 3.14 11.13 5 16 4.36-8.68 3.87-18.97 3-28-12.82-15.62-28.54-39.39-49-51 8.94 11.68 17.47 25.22 16 41-12.2-5.96-18.72-19.98-30-28-1.76 4.64 1.74 6.25 4 9z"/>
				</g>
				<g stroke="#cdcec8">
					<path d="m58 172c1.63 2.91 3.22 6.91 6 10 1.09-2 3.07-3.74 5-5 3.82 9.69 15.82-3.94 21-10-4.77 3.31-8.19 8.64-13 12 0.93-15.28 6.67-29.56 17-41-13.86 8.22-26.44 20.75-36 34z"/>
				</g>
				<g stroke="#d5d3c9">
					<path d="m124 146c1.32-0.39 2.58-0.82 4-1-14.96 10.37-18.82 31.7-34 39-0.23-3.17 0.05-6.12 1-9-2.25 4.17-15.91 34.07-10 35 1.24-0.31 2.81-0.5 4-1 6.62-6.48 14.22-12.82 19-21 3.2 3.5 7.22 5.39 11 9-1.8-2.97-0.5-6.4 0-9 2.87-14.85 4.97-28.36 14-41-1.95-1.09 2.51-2.89 1-5-3.82 0.55-6.87 2.18-10 4z"/>
				</g>
				<g stroke="#2c353a">
					<path d="m138 153c2.03-3.19 5.08-7.08 8-10-3.83 3.27-6.04 5.71-8 10z"/>
				</g>
				<g stroke="#f9f9e9">
					<path d="m124 146c-15.31 8.9-20.4 13.06-29 29-0.95 2.88-1.23 5.83-1 9 15.18-7.3 19.04-28.63 34-39-1.42 0.18-2.68 0.61-4 1z"/>
				</g>
				<g stroke="#676188">
					<path d="m59 155c1.03-1.12 7.91-5.44 5-7-1.45 2.49-3.26 4.64-5 7z"/>
				</g>
				<g stroke="#7c737b">
					<path d="m52 150c-2.98 0.16-6.02 0-9 0 2.91 0.28 5.95 0.49 9 0z"/>
				</g>
				<g stroke="#535054">
					<path d="m474 150c-0.48 0.1-1.5 0-2 0-2.66 0-5.34 0.05-8 0 1.21 0.15 9.16 2.9 10 0z"/>
				</g>
				<g stroke="#a491eb">
					<path d="m488 201v-47c-6.04 4.42-13.37 6.44-21 6 6.72 9.61 8.84 21.28 9 33 4.67 1.12 6.98 7.42 12 8z"/>
				</g>
				<g stroke="#a292f2">
					<path d="m24 202c17.84-7.95 8.94-29.75 21-42-4.39-1.03-18.67 0.43-21-5v47z"/>
				</g>
				<g stroke="#bdb7bb">
					<path d="m357 171c8.67 1.15 17.28 10.32 26 14 0.91-0.91-1.01-2.79-1-3-9.66-7.77-23.9-18.66-37-24 2.98 4.28 8.45 8.63 12 13z"/>
				</g>
				<g stroke="#bebbbd">
					<path d="m129 179c-2.06 1.07-0.53 4.12-1 6 8.84-3.83 19.82-10.35 27-15 3.55-3.19 6.64-7.32 10-11-13.56 4.18-24.42 14.62-36 23-0.12-0.98 0.14-2.02 0-3z"/>
				</g>
				<g stroke="#dddcd3">
					<path d="m143 190c-6.12 13.08-8.03 28.29-17 40-3.13 11.54-6.55 14.3-15 25 10.93-11.82 38.83-36.04 56-28-1.27-2.1-1.97-4.73-3-7-2.13-4.7-1.88-8.09-1-13 2.09-30.67 46.96-40.95 59-11 1.93 2.96 2.81 4.14 3 9 0.57 14.88-3.88 28.91-18 35-5.94 7.72-10.61 21.99-20 29-1.59-1.84-5.4-2.56-7-6-2.69 3.3-7.36 0.25-8-3-12.25 6.2-20.91 20.61-35 23-0.33-10.85 6.92-20.58 15-27-7.56 1.1-13.85 6.82-22 6-1.45-5.64 6.48-7.16 7-12-5.62 1.67-9.6 7.56-14 11 1.02-0.27 1.75-1.4 3-1-1.76 5.02-6.33 9.28-10 13-6.31 8.07-8.97 17.86-10 28 6.96-2.75 11.98-9.44 18-14-4.9 10.68-9.46 21.84-10 34 9-3.05 14.98-10.79 22-17-2.78 12.36-3.2 27.51 4 38 0.03-7.45 11.09-14.69 15-20 2.77 5.13 11.41 6.52 14 12 1.6-0.53 0.72-2.75 1-4-0.35-3.87 0.44-7.87 1-11 0.08-3.34 1.21-5.89 2-9 0.43-1.68 0.54-3.3 1-5 0.83-3.07 2.11-5.94 3-9 2.78-9.56 23.39-38.33 16-21 14.67-24.96 35.38-57.68 68.67-52.67s48.02 34.75 61.33 61.67c-0.7-1.95-1.52-3.94-2-6 2.51 0.34 2.5-3.64 5-4 4.02 6.24 6.66 13.06 9 20 0.76 2.28 1.34 4.66 2 7 0.38 1.34 0.63 2.62 1 4 1.71 6.45 3.27 13.03 3 20 0.38-0.85 5.01-2.42 4-5 3.89-0.19 10.28-4.34 12 1 5.9 5.3 10.95 12.84 14 20 2.14-0.59 2.46-3.04 4-4 4.06-9.62 1.29-21.88 1-32 6.66 3.67 12.1 11.71 19 16 5.43-11.35-5.99-24.93-9-35 7.28 1.79 10.69 11.67 18 13 1.34-14.66-9.23-25.59-16-37h3c-5.51-4.8-9.65-12.18-17-14 16.88 15.1-2.75 15.78-14 7 17.05 10.86 15.15 34.63-0.25 20.25s-23.31-21.5-39.75-14.25c-4.1-5.96-11.02-10.61-12-18 1.28-0.28 3.5 0.76 4-1-24.44-2.51-34.05-37.6-16.23-55.23s50.79-6.28 52.23 20.23c0.52 3.2 0.66 5.82 0 9-0.59 2.85-0.74 6.37-2 9 1.13 2.96 19.45 5.36 24 7-0.66-0.54-1.62-1.1-2-2 5 0.3 9.55-1.18 14-3 0.55-1.82-1.75-2.47-2-4-4.21-11.1-8.8-21.91-13-33-1.47 0.27-0.89 2-1 3-17.15-12.01-29.41-31.1-53-32 4.98 3.28-18.59 19.83-23 10 1.11-2.41 3.96-3.62 5-6-8.55 4.27-11.78 13.9-15 22-2.43-0.1-6.13 1.04-6 4-34.81 16.05-40.5-23.45-64-29 4.11 1.4 8.34 5.22 11 9-7.4 2.82-27.21 0.26-25-10-19.82 1.39-35.07 15.62-47 31-1.78-1.43-4.23-0.55-6-2z"/>
				</g>
				<g stroke="#b1abae">
					<path d="m210 162c-4.4-1.04-9.29-1.41-14-1-2.21 10.26 17.6 12.82 25 10-2.66-3.78-6.89-7.6-11-9z"/>
				</g>
				<g stroke="#b4aeb5">
					<path d="m295 165c-1.04 2.38-3.89 3.59-5 6 4.41 9.83 27.98-6.72 23-10-6.62-0.25-12.47 1.05-18 4z"/>
				</g>
				<g stroke="#dcdbd1">
					<path d="m406 193c3.21 4.31 11.61 15.08 17 16 10.44-2.99-7.9-36.04-11-41 1.89 4.39 4.82 8.4 6 13-2.67-0.13-4.53-1.28-7 0-4.13-6.69-10.07-12-15-18-1.4 2.73-2.22 6.17-5 7 4.69 7.85 9.5 15.61 15 23z"/>
				</g>
				<g stroke="#100b21">
					<path d="m163 207c-0.3 4.39-0.21 8.95 1 13 1.03 2.27 1.73 4.9 3 7 7.92 13.07 25.4 19.3 40 13 14.12-6.09 18.57-20.12 18-35-0.37-2.28-2-6.52-3-9-12.04-29.95-56.91-19.67-59 11m38-18c10.89 3.77 4.73 22.98-7.07 18.07-11.8-4.9-5.67-22.49 7.07-18.07m-26 21c7.98 20.21 32.87 25.17 41 1 5.52 26.47-40.86 31.51-44 5-0.67-2.72-2.01-6.29 0-9v-1c0.17-1.84 1.09-4.29 3-5v9z"/>
				</g>
				<g stroke="#0f0a21">
					<path d="m312 242c13.12 1.35 28.14-4.75 34-17 1.26-2.63 1.41-6.15 2-9 0.26-2.89 0.16-6.1 0-9-1.44-26.51-34.41-37.86-52.23-20.23s-8.21 52.72 16.23 55.23m7-53c11.21 3.4 2.23 23.89-8.67 17.67s-3.57-21.39 8.67-17.67m-11 43c-8.31-3.46-15.34-11.77-12-21 1.82 6.63 6.7 12.9 13 16 14.43 5.39 28.89-8.29 29-22 9.05 16.56-14.14 35.9-30 27z"/>
				</g>
				<g stroke="#8b818f">
					<path d="m447 193c0.19 0.46 1.76 1.49 2 2-0.06-2.12-0.23-4.23 1-6 1.26 0.56 1.25 2.85 3 3-1.8-4.5-4.76-9.08-9-12 1.61 4.05 1.35 9.07 3 13z"/>
				</g>
				<g stroke="#898292">
					<path d="m55 197c1.81-2.36 5.72-5.73 7-2 2.36-3.25 2.8-8.05 4-12-6.16 2.2-8.68 8.71-11 14z"/>
				</g>
				<g stroke="#f1f2f3">
					<path d="m201 189c-12.74-4.42-18.87 13.17-7.07 18.07 11.8 4.91 17.96-14.3 7.07-18.07z"/>
				</g>
				<g stroke="#f4f6f7">
					<path d="m319 189c-12.24-3.72-19.57 11.45-8.67 17.67s19.88-14.27 8.67-17.67z"/>
				</g>
				<g stroke="#665675">
					<path d="m449 195c0.61 1.29 1.68 4.83 2 6v-4c2.31-0.35 4.39 0.39 6 2-1.32-2.4-2.84-4.63-4-7-1.75-0.15-1.74-2.44-3-3-1.23 1.77-1.06 3.88-1 6z"/>
				</g>
				<g stroke="#4a3e5a">
					<path d="m55 197c-0.61 1.38-1.39 2.61-2 4 1.88 0.52 1.87-1.43 3-2 0.05 2.72 2.88 5.7 3 8 1.11-3.98 1.86-8.08 3-12-1.28-3.73-5.19-0.36-7 2z"/>
				</g>
				<g stroke="#a49ba6">
					<path d="m423 209c-5.39-0.92-13.79-11.69-17-16-6.35 15.49 29.57 37.12 20 10 0.05 3.89 0.54 6.61-3 6z"/>
				</g>
				<g stroke="#a49aaa">
					<path d="m89 209c-1.19 0.5-2.76 0.69-4 1-0.75 2.3-2.61-0.54-4 0-0.92 18.13 26.9-1.32 23-14-5.46 3.47-8.93 10.44-15 13z"/>
				</g>
				<g stroke="#c1bdc8">
					<path d="m225 205c-0.19-4.86-1.07-6.04-3-9 1 2.48 2.63 6.72 3 9z"/>
				</g>
				<g stroke="#574c69">
					<path d="m172 206c2 0.14 2.4 2.49 3 4v-9c-1.91 0.71-2.83 3.16-3 5z"/>
				</g>
				<g stroke="#928d9b">
					<path d="m23 216c0 0.04 1 0 1 0 0.35-3.93 0-8.06 0-12-1.34 3.16-1.37 8.08-1 12z"/>
				</g>
				<g stroke="#8a8ba9">
					<path d="m309 227c-1.31 1.7-2.54 3-1 5 15.86 8.9 39.05-10.44 30-27-0.11 13.71-14.57 27.39-29 22z"/>
				</g>
				<g stroke="#d2cec7">
					<path d="m474 211c-0.12 2.93-2.04 10.64-1 13 2.51-0.18 12.63 5.85 14 8 0.01-3.69 1-9.49 1-14-5.1-3.64-8.85-9.31-14-13-0.06 2 0.08 4 0 6z"/>
				</g>
				<g stroke="#c8c5be">
					<path d="m24 216s-1 0.04-1 0c0.57 6.11 0.58 11.87 0 18 0-0.04 1 0 1 0 5.4-5.63 10.8-4.91 17-8 0.19-1.03 1.85-1.5 2-2-2.67-5.68-4.92-11.59-5-18-5.01 2.34-9.46 6.52-14 10z"/>
				</g>
				<g stroke="#8b8aa9">
					<path d="m172 207c0 2.92-0.36 6.1 0 9 3.14 26.51 49.52 21.47 44-5-8.13 24.17-33.02 19.21-41-1-0.6-1.51-1-3.86-3-4v1z"/>
				</g>
				<g stroke="#c6c3ca">
					<path d="m164 220c-1.21-4.05-1.3-8.61-1-13-0.88 4.91-1.13 8.3 1 13z"/>
				</g>
				<g stroke="#514b65">
					<path d="m172 216c-0.36-2.9 0-6.08 0-9-2.01 2.71-0.67 6.28 0 9z"/>
				</g>
				<g stroke="#787480">
					<path d="m348 216c0.66-3.18 0.52-5.8 0-9 0.16 2.9 0.26 6.11 0 9z"/>
				</g>
				<g stroke="#737193">
					<path d="m308 232c-1.54-2-0.31-3.3 1-5-6.3-3.1-11.18-9.37-13-16-3.34 9.23 3.69 17.54 12 21z"/>
				</g>
				<g stroke="#a99fa6">
					<path d="m442 256c-3.51 0.73-6.59 0.55-10 0-20.46-1.11-40.64-16.09-52-33 0.25 1.53 2.55 2.18 2 4-4.45 1.82-9 3.3-14 3 0.38 0.9 1.34 1.46 2 2 18.72 6.74 36.65 24.36 41 44-6.76-4.6-12.99-9.83-20-14h-3c6.77 11.41 17.34 22.34 16 37-7.31-1.33-10.72-11.21-18-13 3.01 10.07 14.43 23.65 9 35-1.57 3.29-5.44 5.22-9 4v4c-1.46 3.39 31.82 3.85 20-15 8.96-2.74 3.44-17.21 5-25 8.88-2.48 0.72-14.62 1-21 14.89 8.59 40 9.03 47-7-7.2-11.28 13.8 0.66 20 1 2.44 0.13 7.55-1.08 9 1 1.41 2.01-1.06 6.74 0 9-1.99-0.28-3.78-1.48-6-1 0.74 2.2-2.89 4.54-3 6 9.58 20.5 5.99 41.14-21 29 2.84 5.2 3.98 10.98 4 17 0.32 2.23 1.17 5.09 1 8 2.57-5.46 23.27 10.75 25 15 0.34-28-0.87-56.39 1-84-8.9-3.01-18.59-3.44-27-8 5.9-7.71 8-17.1 7-27 2.89 2.52 6.25 5.25 9 8-2.88-3.37-7.53-6.58-8-11h3c-1.04-2.36 0.88-10.07 1-13-3.28 4.97-3.26 16.03-12 15-0.16 13.51-6.31 27.17-20 30z"/>
				</g>
				<g stroke="#746979">
					<path d="m453 228c0.6-4.21 0.61-8.73 0-13 0.16 4.29 0.16 8.71 0 13z"/>
				</g>
				<g stroke="#fbfcf5">
					<path d="m193 275c-14.57 34.16-9.05 82.97 41 71-8.15-5.07-15.42-11.92-17-22-11.38-30.82 8.94-53.17 43-51s43.27 24.99 33 55c-2.75 8.05-7.28 13.24-14 18 25.89 10.06 55.36-14.35 50-42 0-0.91 0.19-2.11 0-3-1.12-5.28-4.07-11.63-6-17-13.31-26.92-28.04-56.66-61.33-61.67s-54 27.71-68.67 52.67z"/>
				</g>
				<g stroke="#a79fa7">
					<path d="m41 226c-0.09 0.48 0.15 1.55 0 2 1.35-0.78 2.72-1.3 4 0-3.48 9.41 0.73 18.78 4 27-6.58 2.73-13.81 5.83-20 8 5.38-1.41 11.55-3.11 17-4 1.89-4.53 10.67-6.89 8-1-0.19 0.41-0.16 1.55 0 2 7.76 22.28 30.59 12.87 47 7-8.39 20.98 0.3 42.63 7 62-0.04-3.45 3.82-4.66 5-8 5.02-0.8 14.49 1.85 9 8 0.43-0.17 1.51-0.08 2 0 7.42 1.18 0.79 33.1 16 29 1.63-4.71 4.08-12.3 0-16-7.2-10.49-6.78-25.64-4-38-7.02 6.21-13 13.95-22 17 0.54-12.16 5.1-23.32 10-34-6.02 4.56-11.04 11.25-18 14 1.03-10.14 3.69-19.93 10-28 0.7-1.39 2.29-2.24 2-4-3.79-2.19-7.28 0.51-11 2-1.62 1.08-3.51 1.73-5 3 0.93-7.07 5.14-13.21 9-19 8.45-10.7 11.87-13.46 15-25-17.08 26.7-77.75 42.31-77-4-1.72 0.94-5.27-2.05-6-2-0.15 0.5-1.81 0.97-2 2z"/>
				</g>
				<g stroke="#2b1f3a">
					<path d="m478 235c2.77 3.64 6.36 7.13 10 10 1.09-4.27-1.01-9.14-1-13-1.37-2.15-11.49-8.18-14-8h-3c0.47 4.42 5.12 7.63 8 11z"/>
				</g>
				<g stroke="#fbfcf5">
					<path d="m312 242c-0.5 1.76-2.72 0.72-4 1 0.98 7.39 7.9 12.04 12 18 16.44-7.25 24.35-0.13 39.75 14.25s17.3-9.39 0.25-20.25c11.25 8.78 30.88 8.1 14-7 7.35 1.82 11.49 9.2 17 14 7.01 4.17 13.24 9.4 20 14-4.35-19.64-22.28-37.26-41-44-4.55-1.64-22.87-4.04-24-7-5.86 12.25-20.88 18.35-34 17z"/>
				</g>
				<g stroke="#231c30">
					<path d="m24 234c0.22 2.47-1.19 7.89 0 10 0.88 0.88 15.93-12.9 17-16 0.15-0.45-0.09-1.52 0-2-6.2 3.09-11.6 2.37-17 8z"/>
				</g>
				<g stroke="#fbfbf3">
					<path d="m111 255c-3.86 5.79-8.07 11.93-9 19 1.49-1.27 3.38-1.92 5-3 5.08-3.38 10.99-6.28 16-10 4.4-3.44 8.38-9.33 14-11-0.52 4.84-8.45 6.36-7 12 8.15 0.82 14.44-4.9 22-6-8.08 6.42-15.33 16.15-15 27 14.09-2.39 22.75-16.8 35-23 0.64 3.25 5.31 6.3 8 3 1.6 3.44 5.41 4.16 7 6 9.39-7.01 14.06-21.28 20-29-14.6 6.3-32.08 0.07-40-13-17.17-8.04-45.07 16.18-56 28z"/>
				</g>
				<g stroke="#8a8491">
					<path d="m24 244c-1.19-2.11 0.22-7.53 0-10 0 0-1-0.04-1 0-0.25 2.66-0.8 8.2 1 10z"/>
				</g>
				<g stroke="#837884">
					<path d="m46 259c0.49-0.08 1 0 1 0 1.72-2.47 6.46-6.74 7-1 2.67-5.89-6.11-3.53-8 1z"/>
				</g>
				<g stroke="#231832">
					<path d="m459 261c7.81 12.23 18.34 23.87 17 40-2.49 0.29-4.39-1.64-7-1-9.66-1.9-24.22-14.66-32-15 2.19-0.41 15.86 32.84 16 40 0.41 3.42 0.76 6.55 0 10 0 0.68 0.29 2.4 0 3-1.23 2.53-22.01-8.28-25-10-2.53-1.46-4.76-3.6-7-5-1.7-0.65-3.07-2.05-5-2 12.82 16.43 22.31 37.13 17 59-2.37-0.03-3.72-2.5-6-3-7.14-4.42-17.05-8.05-23-14-2.23-0.73-3.29-1.91-4 1 10.31 16.48 11.34 42.12 1 59-1.04 1.7-3.09 2.85-3 5-12.04-1.69-24.13-7.12-32-17-1.08-1.04-3.07-1.92-4-3 0.38 2.83-1.82 4.19-2 6 0.57 3.01 1 5.7 1 9 0.32 3.28 0.54 6.7 0 10-0.43 7.99-3.71 15.35-8 22-10.03 15.54-28.28-10.21-35-19-0.77-0.78-2.09-1.47-3-2-0.11 1 0.47 2.73-1 3-0.14 1.69-0.72 2.87-1 4-1.32 19.43-20.16 36.16-37 43 4.09 2.24 10.16 0.4 15 1 12.65-6.77 23.27-20.12 28-33 21.66 34.58 55.78 7.26 51-26 11.26 6.75 30.68 20.37 38 2 2.28-3.68 4.88-8.17 6-12 1.35-4.64 2.61-10.12 3-15 0.55-6.97 0.68-14.79-2-21 8.09 1.75 13.87 10.7 23 10 5.41-4.31 5-13.31 5-20 0-3.66 0.14-7.35 0-11-0.23-6.06-1.79-11.48-4-17 6.56 1.59 11.85 7.22 19 7 3.84-1.46 3.88-10.83 4-14 0.15-3.96 0.15-8.04 0-12-0.02-6.02-1.16-11.8-4-17 26.99 12.14 30.58-8.5 21-29-1.09-2.32-2.66-4.43-3-7 1.99 0.28 3.78 1.48 6 1s4.01 0.72 6 1c-1.06-2.26 1.41-6.99 0-9-3.07 0.8-6.68-0.62-9-1-6.2-0.34-27.2-12.28-20-1z"/>
				</g>
				<g stroke="#55485b">
					<path d="m47 259c1.8-1.14 3.79-2.16 6-2 0.41 1.56-0.46 2.69-1 4 0.21-0.19 1.96-0.9 2-1-0.16-0.45-0.19-1.59 0-2-0.54-5.74-5.28-1.47-7 1z"/>
				</g>
				<g stroke="#5b4d5f">
					<path d="m442 256c-3.21 0.29-6.78 0.17-10 0 3.41 0.55 6.49 0.73 10 0z"/>
				</g>
				<g stroke="#251b35">
					<path d="m47 259s-0.51-0.08-1 0c-5.45 0.89-11.62 2.59-17 4-1.21 0.32-3.15 1.78-5 1v7c3.34 2.47 8.42 0.13 12-1-13.85 19.29-11.48 52.82 19 35-3.81 9.07-6.71 18.62-6 29 0.28 5.07 2.24 9.11 3 14 5.46 6.65 15.36-4.73 21-5-1.74 6.86-4.65 13.48-4 21 0 8.81 1.34 16.66 2 25 6.47 6.79 19.34-6.22 25-8 0.48 3.87-1.71 7.05-1 11-0.13 3.32 0 6.68 0 10 0 1.62-0.2 3.39 0 5 0.38 3.15 1.86 8 3 11 1.66 4.4 6.48 16.4 11 19 10.67 4.21 23.85-7.87 33-12-5.15 32.92 28.84 59.8 51 27 4.52 13.11 14.67 24.88 26 33h1 16c-15.99-3.96-36.68-27.54-37-44-0.2-0.8-0.89-1.69-1-3-0.36-1.5-1.77-3.85-1-6-2.22 0.49-1.74 3.57-4 4-0.64 1.33-1.24 1.89-2 3-7.94 11.58-22.35 30.2-33 13-7.76-12.53-6.73-23.8-7-38-0.03-1.54-1.94-7.36-2-5-8.2 11.72-22.37 16.23-35 20-0.3-1.25-1.83-1.71-2-3-0.75-0.92-1.41-2.02-2-3-2.1-3.5-2.77-7.26-4-11-5.26-15.98-2.73-33.36 5-48-0.16 0.1-4.42 1.09-6 2-1.31 0.75-2.75 1.19-4 2-6.3 4.08-13.01 8.64-20 12-1.13 0.54-1.8 1.65-3 2-3.57-19.16 0.27-39.38 13-54 0.54-0.09-1.27-1.45-3-1-1.62 1.34-4.13 2.04-6 3-3.7 1.89-23.27 11.72-24 8-0.09-0.48 0-1.5 0-2-1.56-3.68-0.63-7.47 0-11 0.97-14.26 8.28-26.21 17-37-2.51 1.37-5.4 2.5-8 4-7.66 4.41-16.36 6.68-25 8-2.58 0.39-5.14 1.6-8 1 2.24-14.69 7.85-28.71 18-40 0.54-1.31 1.41-2.44 1-4-2.21-0.16-4.2 0.86-6 2z"/>
				</g>
				<g stroke="#eeeddf">
					<path d="m52 261c-10.15 11.29-15.76 25.31-18 40 2.86 0.6 5.42-0.61 8-1 5.6-2.25 34.23-12.18 35-14-0.46 1.09-1.04 1.47-2 2-8.72 10.79-16.03 22.74-17 37-0.25 3.63 0 7.36 0 11 0 0.5-0.09 1.52 0 2 0.8 1.04 24.63-11.53 28-13 1.54-0.67 3.36-1.34 5-2 1.61-0.64 3.5-0.9 5-2-0.28 2.93-3.69 4.77-5 7-12.73 14.62-16.57 34.84-13 54 1.2-0.35 1.87-1.46 3-2 7.88-5.56 11.01-9.94 20-12 1.25-0.81 2.69-1.25 4-2 3.47-2.97 5.27-9.01 11-9-1.79 2.29-2.97 5.14-5 7-7.73 14.64-10.26 32.02-5 48 1.54 3.18 3.08 8.6 4 11 0.59 0.98 1.25 2.08 2 3 7.88 5.33 41.99-22.63 42-23-0.13 3.87-2.37 7.7-3 11 0.27 14.2-0.76 25.47 7 38 10.16 12.49 26.29-7.11 33-17 2.18-3.21 3.36-9.22 8-10v12c3.45 19.24 26.83 42.45 45 48 9.21-0.18 19.87 1 30 1 2.05-0.91 1.68-3.31 0-4 22.22-11.93 39.23-34.45 40-59 7.54 13.03 23.34 37.16 39 32 4.29-6.65 7.57-14.01 8-22 0.18-3.31 0-6.68 0-10 0-3.3-0.43-5.99-1-9-0.59-3.14-0.83-7.02-2-10-0.22-0.55-0.74-1.14-1-2 0.42 1.42 35.87 30.61 44 21 10.34-16.88 9.31-42.52-1-59-1.3-2.08-4.22-3.93-4-7 2.4-0.05 4.04 1.97 6 3 9.83 4.65 17.2 9.5 25 17 2.28 0.5 3.63 2.97 6 3 5.31-21.87-4.18-42.57-17-59 1.93-0.05 3.3 1.35 5 2 1.96 0.76 4.1 1.2 6 2 8.82 3.72 17.73 8.29 26 13 0.29-0.6 0-2.32 0-3 0-3.33 0.07-6.67 0-10-0.14-7.16-13.81-40.41-16-40 7.23-1.36 26.08 12.76 32 15 2.61-0.64 4.51 1.29 7 1 1.34-16.13-9.19-27.77-17-40-7 16.03-32.11 15.59-47 7-0.28 6.38 7.88 18.52-1 21-1.56 7.79 3.96 22.26-5 25 11.82 18.85-21.46 18.39-20 15-0.08 1.32 0.13 2.68 0 4-0.88 8.71-5.71 16.68-8 25-1.43 5.19-2.74 10.49-6 15-5.66-4.65-10.96-10.1-15-16 0.63 9.68 2.39 22.76-2 33-8.55-4.51-10.91-16.17-17-23-5.64 30.89-27.92 42.12-47.25 66.75-19.32 24.64-50.81 25.42-70.45 0.95-19.63-24.48-41.05-37.12-46.3-67.7-4.89 7.79-11.31 15.03-17 22-4.44-9.99-3.08-21.57-1-32-20.85 30.79-28.48-8.96-32-28-0.49-0.08-1.57-0.17-2 0-6.27 2.46-10.53 6.65-14 0-6.7-19.37-15.39-41.02-7-62-16.41 5.87-39.24 15.28-47-7-0.04 0.1-1.79 0.81-2 1z"/>
				</g>
				<g stroke="#beb5af">
					<path d="m123 261c-5.01 3.72-10.92 6.62-16 10 3.72-1.49 7.21-4.19 11-2 0.29 1.76-1.3 2.61-2 4 3.67-3.72 8.24-7.98 10-13-1.25-0.4-1.98 0.73-3 1z"/>
				</g>
				<g stroke="#676279">
					<path d="m488 263c-1.45-2.08-6.56-0.87-9-1 2.32 0.38 5.93 1.8 9 1z"/>
				</g>
				<g stroke="#70697e">
					<path d="m23 271c0.1 0.2 1 0 1 0v-7c1.85 0.78 3.79-0.68 5-1-4.92 1.73-7.32 0.78-6 8z"/>
				</g>
				<g stroke="#b7b5c2">
					<path d="m177 296c0.67 2.01 3.36 1.91 5 3-0.56 2.52 1.19 6.3-1 8-0.47 2.6-1.66 5.88-2 8-0.41 2.51 0 5.45 0 8 0 19.52 16.2 52.04 41 46s38.23-19.53 61.03-3.02c22.79 16.5 49.31-14.14 50.97-32.98 0.67-7.6 0.69-16.79-1-24-0.26-1.12-1.82-3.93-2-5 5.36 27.65-24.11 52.06-50 42 6.72-4.76 11.25-9.95 14-18-19.53 24.98-59.89 23.13-76-4 1.58 10.08 8.85 16.93 17 22-50.05 11.97-55.57-36.84-41-71 7.39-17.33-13.22 11.44-16 21z"/>
				</g>
				<g stroke="#a1979f">
					<path d="m24 271s-0.9 0.2-1 0c1.79 24.14 1 49.42 1 74 2.67-7.24 18.63-12.64 24-16 0.39 1.57-0.94 4.22 1 5-0.71-10.38 2.19-19.93 6-29-30.48 17.82-32.85-15.71-19-35-3.58 1.13-8.66 3.47-12 1z"/>
				</g>
				<g stroke="#8f8192">
					<path d="m479 277c0.11-1.46 3.74-3.8 3-6-2.22 0.48-4.01-0.72-6-1 0.34 2.57 1.91 4.68 3 7z"/>
				</g>
				<g stroke="#0f091e">
					<path d="m217 324c16.11 27.13 56.47 28.98 76 4 10.27-30.01 1.06-52.83-33-55s-54.38 20.18-43 51m62-37c0.64 0.37 1.4 0.63 2 1 5.67 3.45 8.46 9.05 10 15 5.57 21.47-35.16 50.21-35 18-2.2 4.58-2.13 9.81-2 15-16.3 0.53-34.87-13.39-33-31 0.67-6.04 2.99-11.28 8-15 2.02-1.5 3.91-1.95 6-3 12.81-6.41 30.94-7.55 44 0z"/>
				</g>
				<g stroke="#aaa5b3">
					<path d="m323 284c1.93 5.37 4.88 11.72 6 17 0-3.65 2.36-6.12 6-7-2.34-6.94-4.98-13.76-9-20-2.5 0.36-2.49 4.34-5 4 0.48 2.06 1.3 4.05 2 6z"/>
				</g>
				<g stroke="#a5a5ae">
					<path d="m235 287c-1.44 2.16-1.39 7.34 1 9 0.41-0.2 1.5-0.03 2 0 11.16 0.78 22.74-0.77 34 0 5.87 0.4 14.45-3.17 7-9-13.06-7.55-31.19-6.41-44 0z"/>
				</g>
				<g stroke="#b5b2c0">
					<path d="m42 300c8.64-1.32 17.34-3.59 25-8 2.63-1.92 7.85-4.02 10-6-0.77 1.82-29.4 11.75-35 14z"/>
				</g>
				<g stroke="#aba4ae">
					<path d="m469 300c-5.92-2.24-24.77-16.36-32-15 7.78 0.34 22.34 13.1 32 15z"/>
				</g>
				<g stroke="#726d85">
					<path d="m67 292c2.6-1.5 5.49-2.63 8-4 0.96-0.53 1.54-0.91 2-2-2.15 1.98-7.37 4.08-10 6z"/>
				</g>
				<g stroke="#877b83">
					<path d="m229 290c-2.72 4.75 3.35 7.75 7 6-2.39-1.66-2.44-6.84-1-9-2.09 1.05-3.98 1.5-6 3z"/>
				</g>
				<g stroke="#807f8a">
					<path d="m272 296c2.91 0.88 6.96 2.67 10 4 3.7-4.15 3-8.26-1-12-0.6-0.37-1.36-0.63-2-1 7.45 5.83-1.13 9.4-7 9z"/>
				</g>
				<g stroke="#5d5969">
					<path d="m282 300c1.5 0.65 7.89 5.18 9 3-1.54-5.95-4.33-11.55-10-15 4 3.74 4.7 7.85 1 12z"/>
				</g>
				<g stroke="#69606a">
					<path d="m221 305c0.82-1.51 15.14-8.36 17-9-0.5-0.03-1.59-0.2-2 0-3.65 1.75-9.72-1.25-7-6-5.01 3.72-7.33 8.96-8 15z"/>
				</g>
				<g stroke="#252136">
					<path d="m238 296c-1.86 0.64-16.18 7.49-17 9-1.87 17.61 16.7 31.53 33 31-0.13-5.19-0.2-10.42 2-15-0.16 32.21 40.57 3.47 35-18-1.11 2.18-7.5-2.35-9-3-3.04-1.33-7.09-3.12-10-4-11.26-0.77-22.84 0.78-34 0m4 8c12.49 2.45 8.32 22.82-5.07 19.07-13.4-3.74-8.96-21.82 5.07-19.07m45 11c-30.86 29.48-21.28-34.77 0 0z"/>
				</g>
				<g stroke="#7c7489">
					<path d="m329 301c0.19 0.89 0 2.09 0 3 0.18 1.07 1.74 3.88 2 5 0.01-1.67-0.01-3.33 0-5 2.64-0.54 3.66-2.41 6-3-0.66-2.34-1.24-4.72-2-7-3.64 0.88-6 3.35-6 7z"/>
				</g>
				<g stroke="#838091">
					<path d="m174 305c2.22-0.22 4.45 3.63 7 2 2.19-1.7 0.44-5.48 1-8-1.64-1.09-4.33-0.99-5-3-0.89 3.06-2.17 5.93-3 9z"/>
				</g>
				<g stroke="#4d4460">
					<path d="m331 309c1.69 7.21 1.67 16.4 1 24 1.58-7.78 5.31-21.3 6-28-0.37-1.38-0.62-2.66-1-4-2.34 0.59-3.36 2.46-6 3-0.01 1.67 0.01 3.33 0 5z"/>
				</g>
				<g stroke="#080319">
					<path d="m242 304c-14.03-2.75-18.47 15.33-5.07 19.07 13.39 3.75 17.56-16.62 5.07-19.07z"/>
				</g>
				<g stroke="#090419">
					<path d="m287 315c-21.28-34.77-30.86 29.48 0 0z"/>
				</g>
				<g stroke="#60586e">
					<path d="m173 310c0.86 1.81 4.6 0.58 6 1v4c0.34-2.12 1.53-5.4 2-8-2.55 1.63-4.78-2.22-7-2-0.46 1.7-0.57 3.32-1 5z"/>
				</g>
				<g stroke="#150c23">
					<path d="m332 333c-1.66 18.84-28.18 49.48-50.97 32.98-22.8-16.51-36.23-3.02-61.03 3.02s-41-26.48-41-46c-0.18-1.09-1.88-3.24-1-5-3.08-1.35-6-1.42-7 2v10c0 9.09 3.87 14.8 6 23 3.44 6.97 10.49 10.94 15 17 8.43 5.66 19.73 7.69 30 8 1.4 4.76 6.18 7.94 9 12 19.82 13.87 40.44 12 57-7 10.12-11.61 32.14-8 43-24 6.76-9.95 9.53-21.79 10-34 0.27-6.97-1.29-13.55-3-20-0.69 6.7-4.42 20.22-6 28m-50 42c-8.14 21.93-40.97 20.87-52 1 17.79-11.63 33.94-12.09 52-1z"/>
				</g>
				<g stroke="#8b8498">
					<path d="m375 337c0.58-0.39 9.91-1.67 11-4 0.13-1.32-0.08-2.68 0-4v-4c3.56 1.22 7.43-0.71 9-4-6.9-4.29-12.34-12.33-19-16 0.29 10.12 3.06 22.38-1 32z"/>
				</g>
				<g stroke="#3e344f">
					<path d="m171 319c-0.01 0.5 0 1 0 1 1-3.42 3.92-3.35 7-2-0.88 1.76 0.82 3.91 1 5 0-2.55-0.41-5.49 0-8v-4c-1.4-0.42-5.14 0.81-6-1-0.79 3.11-1.92 5.66-2 9z"/>
				</g>
				<g stroke="#b3aeb1">
					<path d="m341 325c-0.47 12.21-3.24 24.05-10 34-1.72 13.22-8 20-18 30-43.34 50.71-120 25.71-136-36-2.13-8.2-6-13.91-6-23 0 0.04-1 0-1 0-0.28 1.25 0.6 3.47-1 4-2.59-5.48-11.23-6.87-14-12-3.91 5.31-14.97 12.55-15 20 4.08 3.7 1.63 11.29 0 16-15.21 4.1-8.58-27.82-16-29 3.52 19.04 11.15 58.79 32 28-2.08 10.43-3.44 22.01 1 32 5.69-6.97 12.11-14.21 17-22 5.25 30.58 26.67 43.22 46.3 67.7 19.64 24.47 51.13 23.69 70.45-0.95 19.33-24.63 41.61-35.86 47.25-66.75 6.09 6.83 8.45 18.49 17 23 4.39-10.24 2.63-23.32 2-33 4.04 5.9 9.34 11.35 15 16 3.26-4.51 4.57-9.81 6-15-1.83 1.75-6.74-0.5-9 2-6.68-11.07-23.3-24.15-12-39-1.72-5.34-8.11-1.19-12-1 1.01 2.58-3.62 4.15-4 5z"/>
				</g>
				<g stroke="#7d7887">
					<path d="m170 330s1 0.04 1 0v-10s-0.01-0.5 0-1c-0.56 3.13-1.35 7.13-1 11z"/>
				</g>
				<g stroke="#676171">
					<path d="m91 323c-1.16 0.82-1.95 3.13-3 4 1.73-0.45 3.54 0.91 3 1 1.31-2.23 4.72-4.07 5-7-1.5 1.1-3.39 1.36-5 2z"/>
				</g>
				<g stroke="#8f87a6">
					<path d="m108 329c3.47 6.65 7.73 2.46 14 0 5.49-6.15-3.98-8.8-9-8-1.18 3.34-5.04 4.55-5 8z"/>
				</g>
				<g stroke="#a59ea7">
					<path d="m378 358c2.29-8.32 7.12-16.29 8-25-1.09 2.33-10.42 3.61-11 4-1.54 0.96-1.86 3.41-4 4-3.05-7.16-8.1-14.7-14-20-11.3 14.85 5.32 27.93 12 39 2.26-2.5 7.17-0.25 9-2z"/>
				</g>
				<g stroke="#948f9e">
					<path d="m86 325c-1.85 1.18-2.44 3.73-4 5 1.87-0.96 4.38-1.66 6-3 1.05-0.87 1.84-3.18 3-4-1.64 0.66-3.46 1.33-5 2z"/>
				</g>
				<g stroke="#898191">
					<path d="m428 328c-0.44-0.64-0.27-2.31-1-3-1.9-0.8-4.04-1.24-6-2 2.24 1.4 4.47 3.54 7 5z"/>
				</g>
				<g stroke="#554557">
					<path d="m462 335c0.21-1.02 0.91-2.42 1-4 0.17-2.91-0.68-5.77-1-8 0.15 3.96 0.15 8.04 0 12z"/>
				</g>
				<g stroke="#655b5f">
					<path d="m58 336c0-3.64-0.25-7.37 0-11-0.63 3.53-1.56 7.32 0 11z"/>
				</g>
				<g stroke="#b7b2b7">
					<path d="m58 338c0.73 3.72 20.3-6.11 24-8 1.56-1.27 2.15-3.82 4-5-3.37 1.47-27.2 14.04-28 13z"/>
				</g>
				<g stroke="#aca2a7">
					<path d="m428 328c2.99 1.72 23.77 12.53 25 10-8.27-4.71-17.18-9.28-26-13 0.73 0.69 0.56 2.36 1 3z"/>
				</g>
				<g stroke="#8e8993">
					<path d="m453 335c0.76-3.45 0.41-6.58 0-10 0.07 3.33 0 6.67 0 10z"/>
				</g>
				<g stroke="#bfb7b4">
					<path d="m24 345v31c1.59-0.81 4.17-1.17 6-2 6.91-4.42 23.26-17.88 22-26-0.76-4.89-2.72-8.93-3-14-1.94-0.78-0.61-3.43-1-5-5.37 3.36-21.33 8.76-24 16z"/>
				</g>
				<g stroke="#c0b8b5">
					<path d="m463 331c-0.09 1.58-0.79 2.98-1 4-0.12 3.17-0.16 12.54-4 14 8.28 4.76 15.49 21.97 26 25 1.29 0.23 2.7-0.17 4 0v-28c-1.73-4.25-22.43-20.46-25-15z"/>
				</g>
				<g stroke="#9e919b">
					<path d="m443 359c0-0.02 1 0 1 0 13.39 0.27 19.02 9.02 28 18-2.02-2.55-3.83-4.99-5-8 3.05 0.16 7.11-0.81 9 2 2.24 0.87 5.65 2.59 8 3-10.51-3.03-17.72-20.24-26-25-7.15 0.22-12.44-5.41-19-7 2.21 5.52 3.77 10.94 4 17z"/>
				</g>
				<g stroke="#a3979f">
					<path d="m52 348c1.26 8.12-15.09 21.58-22 26 1.49-0.68 3.71-1.23 5-2 3.17-1.88 5.53-6.31 10-6 0.24 7.12-6.19 11.69-10 17 4.5-4.87 9.65-9.26 13.3-14.7 3.66-5.44 16.83 1.07 20.7-4.3-0.65-7.52 2.26-14.14 4-21-5.64 0.27-15.54 11.65-21 5z"/>
				</g>
				<g stroke="#8d879c">
					<path d="m313 389c7.76-9.08-2.19-6.52-8-3-17.06 10.34-29.35 23.2-51 22s-31.74-13.31-49-24c-5.93-3.67-8.98-8.59-13-14-4.51-6.06-11.56-10.03-15-17 16 61.71 92.66 86.71 136 36z"/>
				</g>
				<g stroke="#635b6c">
					<path d="m105 366c1.58-0.91 5.84-1.9 6-2 2.03-1.86 3.21-4.71 5-7-5.73-0.01-7.53 6.03-11 9z"/>
				</g>
				<g stroke="#584b5e">
					<path d="m400 364c0.71-2.91 1.77-1.73 4-1-0.78-0.78-1.27-2.27-2-3-1.96-1.03-3.6-3.05-6-3-0.22 3.07 2.7 4.92 4 7z"/>
				</g>
				<g stroke="#a39eae">
					<path d="m288 383c-1.97 8.22 17.83 2.88 17 3 5.81-3.52 15.76-6.08 8 3 10-10 16.28-16.78 18-30-10.86 16-32.88 12.39-43 24z"/>
				</g>
				<g stroke="#746879">
					<path d="m443 370c0.3-3.1 1.34-7.19 1-11 0 0-1-0.02-1 0 0.14 3.65 0 7.34 0 11z"/>
				</g>
				<g stroke="#bab2b3">
					<path d="m443 370c0 6.69 0.41 15.69-5 20-2.25 1.8-17.52 16-21 11-0.39 4.88-1.65 10.36-3 15 1.86 12.87 25.04 18.76 31 28 3.86 1.15 3.9-3.54 6-5 5.75-17.25 4.21-36.17-2-53 10.84 8.72 21.69 19.15 34 25 1.75-5.12 3.32-10.11 4-16-4.84-4.88-10.2-11.92-15-18-8.98-8.98-14.61-17.73-28-18 0.34 3.81-0.7 7.9-1 11z"/>
				</g>
				<g stroke="#ada4ac">
					<path d="m404 363c5.95 5.95 15.86 9.58 23 14-7.8-7.5-15.17-12.35-25-17 0.73 0.73 1.22 2.22 2 3z"/>
				</g>
				<g stroke="#bcb4b2">
					<path d="m35 383c-4.05 5.13-5.36 12.38-10 16 0.96 4.27 1.98 9.06 3 13 1.28-9.5 31.73-14.68 36-26-8.59 17.41-9.16 39.3-1 57 3.7 2.96 33.52-19.66 35-25-1.14-3-2.62-7.85-3-11-2.45-1.99-8.45 5.62-9 8-15.51 2.24-16.57-14.58-15-26-0.66-8.34-2-16.19-2-25-3.87 5.37-17.04-1.14-20.7 4.3-3.65 5.44-8.8 9.83-13.3 14.7z"/>
				</g>
				<g stroke="#d53f73">
					<path d="m282 375c-18.06-11.09-34.21-10.63-52 1 11.03 19.87 43.86 20.93 52-1m-9 4c-0.18 10.41-32.06 10.91-32.75 1.75s28.68-8.78 32.75-1.75z"/>
				</g>
				<g stroke="#7f7484">
					<path d="m35 372c0.99-0.11 1.78-1.53 3-1 1.47 8.11-7.37 13.18-14 14 0 1.67-0.03 3.34 0 5 0.06 3.21 0.33 6.01 1 9 4.64-3.62 5.95-10.87 10-16 3.81-5.31 10.24-9.88 10-17-4.47-0.31-6.83 4.12-10 6z"/>
				</g>
				<g stroke="#b6b2be">
					<path d="m81 380c6.99-3.36 13.7-7.92 20-12-8.99 2.06-12.12 6.44-20 12z"/>
				</g>
				<g stroke="#7a6e7a">
					<path d="m472 377c4.8 6.08 10.16 13.12 15 18 0.44-3.82 0.85-7.13 1-11-5.47 4.16-16.38-10.47-12-13-1.89-2.81-5.95-1.84-9-2 1.17 3.01 2.98 5.45 5 8z"/>
				</g>
				<g stroke="#a3a0b7">
					<path d="m205 384c5.39 1.74 15.76 6.72 21 1 1.26 1.93 3 3.91 5 5-2.82-4.06-7.6-7.24-9-12-10.27-0.31-21.57-2.34-30-8 4.02 5.41 7.07 10.33 13 14z"/>
				</g>
				<g stroke="#675c70">
					<path d="m35 372c-1.29 0.77-3.51 1.32-5 2-1.83 0.83-4.41 1.19-6 2v2 7c6.63-0.82 15.47-5.89 14-14-1.22-0.53-2.01 0.89-3 1z"/>
				</g>
				<g stroke="#5c4f66">
					<path d="m488 384c0.13-3.32 0-6.68 0-10-1.3-0.17-2.71 0.23-4 0-2.35-0.41-5.76-2.13-8-3-4.38 2.53 6.53 17.16 12 13z"/>
				</g>
				<g stroke="#fd8fa2">
					<path d="m273 379c-4.07-7.03-33.44-7.41-32.75 1.75s32.57 8.66 32.75-1.75z"/>
				</g>
				<g stroke="#c4c1c7">
					<path d="m24 390c-0.03-1.66 0-3.33 0-5v-7c-1.66 3.9-0.55 8.15 0 12z"/>
				</g>
				<g stroke="#9e919e">
					<path d="m417 401c3.48 5 18.75-9.2 21-11-9.13 0.7-14.91-8.25-23-10 2.68 6.21 2.55 14.03 2 21z"/>
				</g>
				<g stroke="#a99fa5">
					<path d="m71 389c-1.57 11.42-0.51 28.24 15 26 0.55-2.38 6.55-9.99 9-8-0.2-1.61 0-3.38 0-5-0.35-3.28-0.47-6.74 0-10-0.71-3.95 1.48-7.13 1-11-5.66 1.78-18.53 14.79-25 8z"/>
				</g>
				<g stroke="#b7b7c6">
					<path d="m205 384c17.26 10.69 27.35 22.8 49 24s33.94-11.66 51-22c0.83-0.12-18.97 5.22-17-3-16.56 19-37.18 20.87-57 7-2-1.09-3.74-3.07-5-5-5.24 5.72-15.61 0.74-21-1z"/>
				</g>
				<g stroke="#62556c">
					<path d="m28 412c0.55 2.12 1.24 3.95 2 6 5.3 2.62 13.99-7.71 19-8v11c0.29 7.72 2.52 14.61 4 22 2.74 6.66 6.1 10.56 14 10 2.52-1.73 0.18-5.94 0-8-1.57 0.3-3.61-0.25-4-2-8.16-17.7-7.59-39.59 1-57-4.27 11.32-34.72 16.5-36 26z"/>
				</g>
				<g stroke="#584d64">
					<path d="m451 439c-1.4 4.2-2.93 8.38-3 13 4.58 0.45 7.51-4.18 10-7 1.88-6.47 4.53-13.15 5-20 0.34-4.98-0.25-10.02 0-15 5.79 3.08 10.92 8.46 18 8 0.88-2.34 1.22-4.72 2-7-12.31-5.85-23.16-16.28-34-25 6.21 16.83 7.75 35.75 2 53z"/>
				</g>
				<g stroke="#615771">
					<path d="m95 402c0-3.32-0.13-6.68 0-10-0.47 3.26-0.35 6.72 0 10z"/>
				</g>
				<g stroke="#b4aeb6">
					<path d="m357 402c0.46-2.14 8.3 8.02 9 9 7.87 9.88 19.96 15.31 32 17-0.09-2.15 1.96-3.3 3-5-8.13 9.61-43.58-19.58-44-21z"/>
				</g>
				<g stroke="#aca9b2">
					<path d="m112 426c0.17 1.29 1.7 1.75 2 3 12.63-3.77 26.8-8.28 35-20 1.31-1.88 3.65-4.12 5-6-0.01 0.37-34.12 28.33-42 23z"/>
				</g>
				<g stroke="#6b6277">
					<path d="m357 402c0.26 0.86 0.78 1.45 1 2 1.37 0.78 2.34 2.07 4 4 0.93 1.08 2.92 1.96 4 3-0.7-0.98-8.54-11.14-9-9z"/>
				</g>
				<g stroke="#686274">
					<path d="m149 409c0.06-2.36 1.97 3.46 2 5 0.63-3.3 2.87-7.13 3-11-1.35 1.88-3.69 4.12-5 6z"/>
				</g>
				<g stroke="#483c5b">
					<path d="m358 404c1.17 2.98 1.41 6.86 2 10 0.18-1.81 2.38-3.17 2-6-1.66-1.93-2.63-3.22-4-4z"/>
				</g>
				<g stroke="#8e8795">
					<path d="m30 418c1.78 4.82 3.63 9.35 6 14 0.62-4.47 11.34-6.52 13-11v-11c-5.01 0.29-13.7 10.62-19 8z"/>
				</g>
				<g stroke="#918591">
					<path d="m463 425c0.3-0.94 1.75-2.43 1-4 4.3 2.3 7.44 10.23 13 7 1.56-3.33 2.71-6.59 4-10-7.08 0.46-12.21-4.92-18-8-0.25 4.98 0.34 10.02 0 15z"/>
				</g>
				<g stroke="#cdc4cd">
					<path d="m110 423c-0.92-2.4-2.46-7.82-4-11 1.23 3.74 1.9 7.5 4 11z"/>
				</g>
				<g stroke="#847a8b">
					<path d="m408 428c10.27-5.65 31.29 44.58 49 20 0.62-1.12 0.65-1.8 1-3-2.49 2.82-5.42 7.45-10 7 0.07-4.62 1.6-8.8 3-13-2.1 1.46-2.14 6.15-6 5-5.96-9.24-29.14-15.13-31-28-1.12 3.83-3.72 8.32-6 12z"/>
				</g>
				<g stroke="#897e8d">
					<path d="m63 443c0.39 1.75 2.43 2.3 4 2 0.18 2.06 2.52 6.27 0 8 13.64-0.97 30.16-21.19 36-21 1.62 1.73 3.85 3.52 6 5-4.52-2.6-9.34-14.6-11-19-1.48 5.34-31.3 27.96-35 25z"/>
				</g>
				<g stroke="#aea6a7">
					<path d="m36 432c6.13 11.99 15 23.31 26 32-3.36-3.11-5.99-7.63-10-10 3.44-3.01 1.43-7.31 1-11-1.48-7.39-3.71-14.28-4-22-1.66 4.48-12.38 6.53-13 11z"/>
				</g>
				<g stroke="#b4a8aa">
					<path d="m463 425c-0.47 6.85-3.12 13.53-5 20-0.35 1.2-0.38 1.88-1 3-0.88 1.61-2.37 3.22-4 4 2.08 3.25 2.28 6.26-1 9 10.43-8.91 19.3-20.82 25-33-5.56 3.23-8.7-4.7-13-7 0.75 1.57-0.7 3.06-1 4z"/>
				</g>
				<g stroke="#b0adb4">
					<path d="m274 486h17c-0.04 0 0-1 0-1-4.84-0.6-10.91 1.24-15-1 16.84-6.84 35.68-23.57 37-43 0.3-4.36-1-9.75 2-13-0.48 2.83 1.74 4.81 3 7 0.22 0.36 0 1 0 1 6.72 8.79 24.97 34.54 35 19-15.66 5.16-31.46-18.97-39-32-0.77 24.55-17.78 47.07-40 59 1.68 0.69 2.05 3.09 0 4z"/>
				</g>
				<g stroke="#716c7a">
					<path d="m361 433c0.54-3.3 0.32-6.72 0-10 0 3.32 0.18 6.69 0 10z"/>
				</g>
				<g stroke="#9c939d">
					<path d="m109 437c-2.15-1.48-4.38-3.27-6-5-5.84-0.19-22.36 20.03-36 21-7.9 0.56-11.26-3.34-14-10 0.43 3.69 2.44 7.99-1 11 4.01 2.37 6.64 6.89 10 10 6.32 4.54 12.66 9.52 20 12-0.64-1.33 0.67-2.26 1-3-0.79-9.67 8.22-22.27 13-30 1.21-1.96 3.03-3.89 5-5-1.62 28.67 25.39 24.32 41 11-13.88 36.32 38.47 50.95 53 20 2.89 9.53 13 18.82 24 16-11.33-8.12-21.48-19.89-26-33-22.16 32.8-56.15 5.92-51-27-9.15 4.13-22.33 16.21-33 12z"/>
				</g>
				<g stroke="#8f8b96">
					<path d="m191 435c-0.1 0.55 0.45 2.51 0 4 0.76-1.11 1.36-1.67 2-3 1.18-2.46 2.38-4.82 4-7 2.08 2.1 0.5 6.15 1 9 0.11 1.31 0.8 2.2 1 3-0.03-1.33 0-2.67 0-4v-12c-4.64 0.78-5.82 6.79-8 10z"/>
				</g>
				<g stroke="#a096a0">
					<path d="m291 485s-0.04 1 0 1c5.85 0 11.46-0.56 17-1 5.76-3.01 6.63-11.34 10-16 3.23 7.52 11.93 10.28 17 16h1c21.7 0 32.85-4.83 38-21-0.33-4.93-1.22-8.71-1-14 14.06 7.95 28.42 18.33 36 32 1.72-0.41 3.35-0.52 5-1 9.57-7.37-3.22-33.95 0-42 4.54 12.33 15.21 22.22 16 36 7.81-3.45 15.2-8.19 22-14 3.28-2.74 3.08-5.75 1-9 1.63-0.78 3.12-2.39 4-4-17.71 24.58-38.73-25.65-49-20-7.32 18.37-26.74 4.75-38-2 4.78 33.26-29.34 60.58-51 26-4.73 12.88-15.35 26.23-28 33z"/>
				</g>
				<g stroke="#7f768c">
					<path d="m313 441c0.28-1.13 0.86-2.31 1-4 0.16-1.99-0.12-4.01 0-6 1.35 1.04 2.01 3.49 4 4-1.26-2.19-3.48-4.17-3-7-3 3.25-1.7 8.64-2 13z"/>
				</g>
				<g stroke="#6b647e">
					<path d="m193 436c2.26-0.43 1.78-3.51 4-4-0.77 2.15 0.64 4.5 1 6-0.5-2.85 1.08-6.9-1-9-1.62 2.18-2.82 4.54-4 7z"/>
				</g>
				<g stroke="#574c69">
					<path d="m314 437c1.47-0.27 0.89-2 1-3 0.91 0.53 2.23 1.22 3 2 0 0 0.22-0.64 0-1-1.99-0.51-2.65-2.96-4-4-0.12 1.99 0.16 4.01 0 6z"/>
				</g>
				<g stroke="#b4b2b9">
					<path d="m158 452c10.65 17.2 25.06-1.42 33-13 0.45-1.49-0.1-3.45 0-4-6.71 9.89-22.84 29.49-33 17z"/>
				</g>
				<g stroke="#b3aeb4">
					<path d="m199 441c0.32 16.46 21.01 40.04 37 44 2.66 0 5.34 0.05 8 0-18.17-5.55-41.55-28.76-45-48 0 1.33-0.03 2.67 0 4z"/>
				</g>
				<g stroke="#bcb5b3">
					<path d="m96 443c0.89-1.14 2.92-2.11 4-3-4.02 12.71-6.9 27.75-4 41 36.95 9.37 85.61 7.72 124 4h-1c-11 2.82-21.11-6.47-24-16-14.53 30.95-66.88 16.32-53-20-15.61 13.32-42.62 17.67-41-11-1.97 1.11-3.79 3.04-5 5z"/>
				</g>
				<g stroke="#ede9da">
					<path d="m414 481c5.55-1.62 10.95-3.77 16-6-0.79-13.78-11.46-23.67-16-36-3.22 8.05 9.57 34.63 0 42z"/>
				</g>
				<g stroke="#edebdb">
					<path d="m96 443c-4.78 7.73-13.79 20.33-13 30 0.6 7.27 8.38 6.83 13 8-2.9-13.25-0.02-28.29 4-41-1.08 0.89-3.11 1.86-4 3z"/>
				</g>
				<g stroke="#beb7b5">
					<path d="m336 485c8.8 6.51 26.28-2.06 37 0s26.19-0.65 36-3c-7.58-13.67-21.94-24.05-36-32-0.22 5.29 0.67 9.07 1 14-5.15 16.17-16.3 21-38 21z"/>
				</g>
				<g stroke="#c2bdb8">
					<path d="m305.05 488.23c9.2907 1.4037 24.972 0.84148 33.872 0.84148-5.07-5.72-17.697-12.547-20.927-20.067-3.37 4.66-7.1852 16.216-12.945 19.226z"/>
				</g>
			</g>
		</g>
		<g fill-opacity="0" stroke="None">
			<path d="m0 512h512v-512h-512v512m242-507c16.79 0 34.83-1.29 51 0s38.8-3.17 54 0 41.31-7.63 53 1h1c5.68-0.54 10.23 1.87 15 3 4.31 0.47 6.98 1.8 11 3 2.48 0.74 5.67 0.21 7 3 2.99 0.06 5.4 1.67 8 3 3.13 1.6 6.06 3.1 9 5 1.9 1.23 3.75 2.18 5 4 2.7 0.75 7.85 4.45 9 7 0.19 0.41 0 1 0 1 0.25 0.25 1 0 1 0 3.38 1.65 9.37 7.68 11 11 0.2 0.4 0 1 0 1 0.25 0.25 1 0 1 0 3.73 1.69 6.87 7.52 9 11 2.26 3.69 4.83 6.76 6 11 0.13 0.46-0.13 1.54 0 2 5.1 6.27 8.14 15.16 10 24 0.5 2.36 0.67 4.49 1 7 1.66 5.69 2.74 12.43 3 20 0.73 21.57 0 43.9 0 67 0.34 3.5 0.02 8.69 0 12 0.17 0.79 0.82 1.17 1 2 1.45 6.8-0.41 15.92-1 22 0 14.99-0.37 30.43 1 45 0.53 5.7-0.48 12.08-1 17v5c0.64 6 0.57 13.08 0 19 0 4.3 0.72 7.87 1 12 0.31 4.55 0.24 9.45 0 14-0.12 2.22-0.78 4.03-1 6-0.17 10.91 0.19 25.11 0 36 0.52 6.5 1.12 12.4 0 19-0.49 2.9-2.32 4.87-3 7-1.32 11.86-4.87 24.6-11 34-1.86 3.8-3.71 7.54-6 11-0.74 1.12-0.88 1.91-2 3-2.13 2.67-3.7 4.64-6 7 0.23 0.36 0 1 0 1-4.94 6.46-9.9 11.04-16 16-2.32 2.34-6.7 6.36-10 7-0.48 0.09-1 0-1 0-1.23 3.23-4.11 3.68-7 5-5.6 2.56-10.02 5.8-16 7-3.85 1.51-6.25 3.89-11 4-2.7 0.69-5.88 2.5-9 3-3.28 0.52-6.78 0.74-10 1-3.35 0.65-9.79 3.5-13 1-0.44 0.16-1 0-1 0-14.83 10.97-47.65-3.12-67 1s-48.18-1.66-69 0-42.38 0.45-63.01 0.99c-20.62 0.54-42.98 0.14-62.99-1.99-1.66 0-3.35-0.09-5 0-2.52 0.14-6.24 0.72-9-1-11.87 2.71-28.04-7.89-39-12-1.1-0.41-1.13-0.49-2-1-4.54-2.65-19.46-9.3-19-14-3.02-0.58-5.21-4.1-7-6-3.79-0.79-11.62-10.49-13-14-0.17-0.43 0-1 0-1-4-2.8-4.03-5.14-6-9-3.41-6.68-7.29-12.57-10-20-2.47-6.79-5.06-12.08-5-19-0.5-2.57-2-5.23-2-9-0.23-1.75-2.45-7.8-2-12 0.05-0.49 0-1 0-1 0.44-4.63-1.26-8.41-1-13 0.47-8.34 1-17.29 1-26v-35c0-59.11-5.52-121.18 0-180-0.64-6.57-0.16-13.97 1-21 0.39-2.38 0.72-3.87 1-6 0.41-3.06 1.34-4.83 2-7 1.83-11.53 6.55-23.32 12-33 1.84-3.28 3.61-6.33 6-9 0.5-0.56 0.66-1.38 1-2 1.16-2.11 2.62-3.36 4-5 0.75-0.9 1.1-1.31 2-2 4.07-4.35 8.87-9.57 14-14 2.1-1.88 4.32-4.04 7-5 0.35-0.13 0.81-0.68 1-1 3.29-5.51 13.47-8.78 19-11 5.19-2.09 9.38-4.11 15-5 3.34-1.03 7.25-3.06 11-4 2.79-0.33 5.19-0.61 8-1 2.39-0.33 3.51-1.59 6 0 2.21-2.3 9.74-1 13-1h106c2.82-0.27 6.24-0.27 9 0z"/>
		</g>
		<g stroke="None">
			<g display="none" fill="#ad9df3">
				<path d="m24 149c3.4-12.07 22.66-21.01 32-26-29.5-24.81 18.58-22.11 35-28-22.8-14.29 17.31-21.29 29-24-11.91-7.38-5-20.19 8-17 3.98-0.57 8.09-0.56 12 0 4.29 0.16 8.02 0.68 12 2-9.15-20.6 24.47-8.5 34-4 1.9-17.11 25.65-5.78 36-3-7.46-20.94 30.06-11.51 34 2 8.6-8.37 40.44-25.25 37-2 9.91-2.78 30.81-11.47 35 2 9.78-1.62 36.9-15.08 34 4 3.18 0.41 5.72-1.69 9-1 3.72-0.6 7.36-0.52 11 0 12.26 0.47 22.08 5.97 10 17 11.21 1.52 49.66 9.11 29 23 15.89 6.72 65.65 3.74 34 28 13.4 4.52 27.04 21.148 37.67 30.378 7.8899-71.113-32.676-133.76-118.67-127.38-77.343 5.7362-159.27 1.5-237 0s-113 51.7-113 124z"/>
			</g>
			<g fill="#1b1229">
				<path d="m140 54c-3.96-0.15-8.04-0.15-12 0-13-3.19-19.91 9.62-8 17-11.69 2.71-51.8 9.71-29 24-16.42 5.89-64.5 3.19-35 28-9.34 4.99-28.6 13.93-32 26v6c2.33 5.43 16.61 3.97 21 5-12.06 12.25-3.16 34.05-21 42v2c0 3.94 0.35 8.07 0 12 4.54-3.48 8.99-7.66 14-10 0.08 6.41 2.33 12.32 5 18 0.73-0.05 4.28 2.94 6 2-0.75 46.31 59.92 30.7 77 4 8.97-11.71 10.88-26.92 17-40 3.31-7.07 6.81-13.98 12-20-7.18 4.65-18.16 11.17-27 15 0.47-1.88-1.06-4.93 1-6 1.7-9.77 4.9-17.03 9-26 1.96-4.29 4.17-6.73 8-10 9.35-7.99 18.51-15.98 30-20-3.09-2.19-8.16-0.43-12-1-13.6 2.44-23.16 14.02-31 25-9.03 12.64-11.13 26.15-14 41-0.71 11.9 8.05 7.53 15 4 1.71 46.2-92.11 84.14-75 15-0.12-2.3-2.95-5.28-3-8-1.13 0.57-1.12 2.52-3 2-1.82 4.15-2.36 8.75-4 13-3.64-9.63-5.44-22.7-3-33 0.49-8.96 4.13-17.13 11-23 0.78-0.85 1.35-2.11 2-3 1.74-2.36 3.55-4.51 5-7-2.23-1.2-9.26 1.85-12 2-3.05 0.49-6.09 0.28-9 0-2.52 0-6.3 0.78-8-1 11.09-15.45 29.02-20.86 46-25 0.42-0.57 0.25-2.4 1-3-2.23 0.52-3.73-1.54-6-1-7.21-1.44-15.64-3.13-20-10 21.2-0.96 40.39-9.71 61-13-4.69-5.73-16.82-3.21-22-10 15.8-8.27 34.69-7.76 52-9-8.22-3.98-15.29-9.1-23-14 0.26-1.39 2.05-0.78 3-1 4.23-1.65 8.94-0.49 13 0 9.46 0.19 20.08 4.04 28 9-1.05-3.35-6.15-10.77-7-15-0.2-1.01-1.45-1.76-1-3 15.56 1.93 30.39 7.33 44 15-0.36-1.94 1.86-2.61 1-5-1.09-1.63-2.67-3.67-4-5-2.57-1.26-5.42-4.37-6-7 15.2-0.21 29 6.35 41 15 2.31-0.57 2.04-1.57 2-4-2.31-6.17-6.49-11.6-8-18 1.94-0.62 3.13 1.2 5 1 10.55 2.35 16.65 11.85 22 20 5.46-10.75 15.95-19.24 28-20 0.29 5.22-5.5 8.03-6 13 0.17 1.84-0.91 5.88 2 4 0.09-0.2 1 0 1 0 10.77-6.7 22.75-11.22 36-10-1.09 4.63-6.82 6.87-9 11-0.3 0.5-0.66 1.62-1 2-0.5 0.97-1.21 1.79-1 3 0.94-0.57 1.82-1.15 3-1 13.09-8.1 28.09-11.49 43-14 0.11 2.23-0.79 5.07-3 6-0.5 0.56-0.66 1.38-1 2-0.36 0.65-0.64 1.39-1 2-0.78 1.31-1.3 2.66-2 4 0.87 0.95 2.68 0.54 3 2 11.75-5.48 24.38-10.63 38-7-4.86 7.95-14.86 9.22-21 15 16.39 1.04 33.84 1.1 49 8-2.82 7.07-12.98 5.82-19 9 18.6 7.29 40.1 12.45 60 16-6.27 5.35-14.04 7.86-22 9-1.54 0.48-6.05 1.86-4 4 7.42 1.38 21.67 6.91 27.75 9.25 6.07 2.35 19.07 16.17 16.25 16.75-0.84 2.9-8.79 0.15-10 0-5.35-0.11-9.88-1.13-15-2-0.99 0.12-2.01-0.1-3 0 10.52 10.78 20.7 23.03 19 39 0.87 9.03 1.36 19.32-3 28-1.86-4.87-1.48-11.45-5-16-1.61-1.61-3.69-2.35-6-2v4c1.22 4.44 1.82 9.27 2 14 0.61 4.27 0.6 8.79 0 13-1.74 45.71-82.77-3.58-75-36 29.09 11.28 5.96-44.05-8-55-2.01-2.55-3.5-5.01-6-7-4.07-3.25-12.27-7.15-17-8-3.55-0.64-7.42 0.48-11 0 22.82 11.31 44.27 33.22 46 60-0.01 0.21 1.91 2.09 1 3-8.72-3.68-17.33-12.85-26-14 4.42 5.43 7.57 12.56 10 19 4.2 11.09 8.79 21.9 13 33 11.36 16.91 31.54 31.89 52 33 3.22 0.17 6.79 0.29 10 0 13.69-2.83 19.84-16.49 20-30 8.74 1.03 8.72-10.03 12-15 0.08-2-0.06-4 0-6 5.15 3.69 8.9 9.36 14 13v-17c-5.02-0.58-7.33-6.88-12-8-0.16-11.72-2.28-23.39-9-33 7.63 0.44 14.96-1.58 21-6v-6c-10.63-9.23-19.6-21.48-33-26 31.65-24.26-18.11-21.28-34-28 20.66-13.89-17.79-21.48-29-23 12.08-11.03 2.26-16.53-10-17-3.61-0.14-7.39-0.2-11 0-3.28-0.69-5.82 1.41-9 1 2.9-19.08-24.22-5.62-34-4-4.19-13.47-25.09-4.78-35-2 3.44-23.25-28.4-6.37-37 2-3.94-13.51-41.46-22.94-34-2-10.35-2.78-34.1-14.11-36 3-9.53-4.5-43.15-16.6-34 4-3.98-1.32-7.71-1.84-12-2z"/>
			</g>
			<g fill="#c3c2c6">
				<path d="m238 63c0.54 1.45 0.81 5.48 1 6 2.8 2.03 4.71 6.68 9 6-1.99-10.35-11.97-17.34-16-27 0.24-1.67 2.85-0.17 3-2-1.87 0.2-3.06-1.62-5-1 1.51 6.4 5.69 11.83 8 18z"/>
			</g>
			<g fill="#f8f8ee">
				<path d="m239 69c-0.83-0.6-2.11-1.29-3-2-12-8.65-25.8-15.21-41-15 0.58 2.63 3.43 5.74 6 7 0.4 0.2 1 0 1 0 7.51 5.01 14.95 11.11 20 19-5.56-0.5-10.49-4.29-15-7-0.28-0.23-0.75-0.91-1-1-0.65-0.24-1.4-0.69-2-1-13.61-7.67-28.44-13.07-44-15-0.45 1.24 0.8 1.99 1 3 4.08 10.51 23.9 14.46 28 26-7.58-1.61-15.68-5.2-21-11-7.92-4.96-18.54-8.81-28-9-4.02-0.08-9.07-0.77-13 0-0.95 0.22-2.74-0.39-3 1 7.71 4.9 14.78 10.02 23 14-17.31 1.24-36.2 0.73-52 9 5.18 6.79 17.31 4.27 22 10-20.61 3.29-39.8 12.04-61 13 4.36 6.87 12.79 8.56 20 10 8.82-0.15 18.94-3.92 28-5-6.13 5.46-14.93 7.68-23 9-16.98 4.14-34.91 9.55-46 25 18.42-1.58 32.91-15.22 51-18-7.91 10.14-19.83 17.44-29 27-6.87 5.87-10.51 14.04-11 23-0.15 2.8-0.68 7.01 1 9 2.54-6.51 6.16-13 11-18 9.56-13.25 22.14-25.78 36-34-10.33 11.44-16.07 25.72-17 41 4.81-3.36 8.23-8.69 13-12 4.98-5.83 13.6-17.5 20-15 13.43-15.2 33.26-36.05 54-30 3.84 0.57 8.91-1.19 12 1-11.49 4.02-20.65 12.01-30 20-2.92 2.92-5.97 6.81-8 10-4.1 8.97-7.3 16.23-9 26 0.14 0.98-0.12 2.02 0 3 11.58-8.38 22.44-18.82 36-23-3.36 3.68-6.45 7.81-10 11-5.19 6.02-8.69 12.93-12 20 1.77 1.45 4.22 0.57 6 2 11.93-15.38 27.18-29.61 47-31 4.71-0.41 9.6-0.04 14 1 23.5 5.55 29.19 45.05 64 29-0.13-2.96 3.57-4.1 6-4 3.22-8.1 6.45-17.73 15-22 5.53-2.95 11.38-4.25 18-4 23.59 0.9 35.85 19.99 53 32 0.11-1-0.47-2.73 1-3-2.43-6.44-5.58-13.57-10-19-3.55-4.37-9.02-8.72-12-13 13.1 5.34 27.34 16.23 37 24-1.73-26.78-23.18-48.69-46-60 3.58 0.48 7.45-0.64 11 0 19.04-3.48 41.42 10.63 50 29-4.94-1.35-8.66-5.8-14-6 3.04 6.55 10.15 11.35 13 18 4.93 6 10.87 11.31 15 18 2.47-1.28 4.33-0.13 7 0-1.18-4.6-4.11-8.61-6-13-1.57-3.13-3.81-7.33-6-10-2.26-2.75-5.76-4.36-4-9 11.28 8.02 17.8 22.04 30 28 1.47-15.78-7.06-29.32-16-41 20.46 11.61 36.18 35.38 49 51 1.7-15.97-8.48-28.22-19-39 0.99-0.1 2.01 0.12 3 0-9.45-1.6-18.92-9.99-26-18 16.76 4.73 33.35 12.71 49 20 0.5 0 1.52 0.1 2 0 2.82-0.58-10.18-14.4-16.25-16.75-6.08-2.34-20.33-7.87-27.75-9.25-6.94-1.29-16.64-3.36-20-10 7.54 3.19 16.34 4.3 24 6 7.96-1.14 15.73-3.65 22-9-19.9-3.55-41.4-8.71-60-16 6.02-3.18 16.18-1.93 19-9-15.16-6.9-32.61-6.96-49-8 6.14-5.78 16.14-7.05 21-15-13.62-3.63-26.25 1.52-38 7-0.78 0.36-2.43 0.62-3 1-0.27 0.18-0.85 0.73-1 1-1.56 2.75-3.51 2.63-6 4-4.93 2.72-10.42 5.67-16 7 7.89-8.95 18.84-14.06 27-23 2.21-0.93 3.11-3.77 3-6-14.91 2.51-29.91 5.9-43 14-1.47 0.91-3.55 2.09-5 3-3.55 2.22-7.19 6.07-12 6 3.23-5.23 9.57-13.71 16-13 2.18-4.13 7.91-6.37 9-11-13.25-1.22-25.23 3.3-36 10-1.65 3.95-7.11 5.78-10 8-1.83 1.41-3 4.47-6 4 1.51-5.13 5.68-9.71 10-13 0.68-0.9 1.26-1.29 2-2 0.25-0.24 0.91-0.75 1-1 0.5-4.97 6.29-7.78 6-13-12.05 0.76-22.54 9.25-28 20-5.35-8.15-11.45-17.65-22-20-0.15 1.83-2.76 0.33-3 2 4.03 9.66 14.01 16.65 16 27-4.29 0.68-6.2-3.97-9-6m-53 38c-24.17 1.7-47.46 12.64-69 23 13.98-23.2 44.22-31.03 69-23m209 23c-21.98-9.54-44.06-22.76-70-22 24.37-10.52 56.92-2.74 70 22z"/>
			</g>
			<g fill="#5c568a">
				<path d="m128 54c3.96-0.15 8.04-0.15 12 0-3.91-0.56-8.02-0.57-12 0z"/>
			</g>
			<g fill="#615b8c">
				<path d="m371 54c3.61-0.2 7.39-0.14 11 0-3.64-0.52-7.28-0.6-11 0z"/>
			</g>
			<g fill="#b5b2b6">
				<path d="m168 72c5.32 5.8 13.42 9.39 21 11-4.1-11.54-23.92-15.49-28-26 0.85 4.23 5.95 11.65 7 15z"/>
			</g>
			<g fill="#857f8c">
				<path d="m205 64c1.81 2.72 2.22 2.8 1 6 0.25 0.09 0.72 0.77 1 1 6.76-0.66-3.71-10.16-5-12 0 0-0.6 0.2-1 0 1.33 1.33 2.91 3.37 4 5z"/>
			</g>
			<g fill="#bdbabc">
				<path d="m207 71c4.51 2.71 9.44 6.5 15 7-5.05-7.89-12.49-13.99-20-19 1.29 1.84 11.76 11.34 5 12z"/>
			</g>
			<g fill="#4c4150">
				<path d="m278 60c-1.2 1.82-1.06 3.85-1 6 1.77 0.21 3.37-1.54 4-3-2.91 1.88-1.83-2.16-2-4-0.09 0.25-0.75 0.76-1 1z"/>
			</g>
			<g fill="#9c9392">
				<path d="m276 62c-2.68 3.51-2.35 5.47-4 9 2.89-2.22 8.35-4.05 10-8 0 0-0.91-0.2-1 0-0.63 1.46-2.23 3.21-4 3-0.06-2.15-0.2-4.18 1-6-0.74 0.71-1.32 1.1-2 2z"/>
			</g>
			<g fill="#cdc9c1">
				<path d="m339 76c3.17-5.34 5.2-8.85 10-14 0.34-0.62 0.5-1.44 1-2-8.16 8.94-19.11 14.05-27 23 5.58-1.33 11.07-4.28 16-7z"/>
			</g>
			<g fill="#9e96a1">
				<path d="m127 63c3.93-0.77 8.98-0.08 13 0-4.06-0.49-8.77-1.65-13 0z"/>
			</g>
			<g fill="#c9c5be">
				<path d="m272 71c1.65-3.53 1.32-5.49 4-9-4.32 3.29-8.49 7.87-10 13 3 0.47 4.17-2.59 6-4z"/>
			</g>
			<g fill="#a59fa1">
				<path d="m339 76c2.49-1.37 4.44-1.25 6-4-4.54 2.27-0.05-4.84 1-6 0.56-0.63 1.53-1.45 2-2 0.36-0.61 0.64-1.35 1-2-4.8 5.15-6.83 8.66-10 14z"/>
			</g>
			<g fill="#6f6b85">
				<path d="m236 67c0.89 0.71 2.17 1.4 3 2-0.19-0.52-0.46-4.55-1-6 0.04 2.43 0.31 3.43-2 4z"/>
			</g>
			<g fill="#c8c2bd">
				<path d="m305 71c1.12-1.48 1.62-3.46 3-5 0.34-0.38 0.7-1.5 1-2-6.43-0.71-12.77 7.77-16 13 4.81 0.07 8.45-3.78 12-6z"/>
			</g>
			<g fill="#61596d">
				<path d="m204 69c0.6 0.31 1.35 0.76 2 1 1.22-3.2 0.81-3.28-1-6 0.86 2.39-1.36 3.06-1 5z"/>
			</g>
			<g fill="#41374b">
				<path d="m346 66c-1.3 2.38-0.61 3.04 0 5 0.57-0.38 2.22-0.64 3-1-0.32-1.46-2.13-1.05-3-2 0.7-1.34 1.22-2.69 2-4-0.47 0.55-1.44 1.37-2 2z"/>
			</g>
			<g fill="#847982">
				<path d="m305 71c1.45-0.91 3.53-2.09 5-3-1.18-0.15-2.06 0.43-3 1-0.21-1.21 0.5-2.03 1-3-1.38 1.54-1.88 3.52-3 5z"/>
			</g>
			<g fill="#78707b">
				<path d="m345 72c0.15-0.27 0.73-0.82 1-1-0.61-1.96-1.3-2.62 0-5-1.05 1.16-5.54 8.27-1 6z"/>
			</g>
			<g fill="#d4d2c8">
				<path d="m186 107c-24.78-8.03-55.02-0.2-69 23 21.54-10.36 44.83-21.3 69-23z"/>
			</g>
			<g fill="#d2d0c8">
				<path d="m395 130c-13.08-24.74-45.63-32.52-70-22 25.94-0.76 48.02 12.46 70 22z"/>
			</g>
			<g fill="#cac5be">
				<path d="m430 124c-2.05-2.14 2.46-3.52 4-4-7.66-1.7-16.46-2.81-24-6 3.36 6.64 13.06 8.71 20 10z"/>
			</g>
			<g fill="#c9c5c1">
				<path d="m76 120c2.27-0.54 3.77 1.52 6 1-0.75 0.6-0.58 2.43-1 3 8.07-1.32 16.87-3.54 23-9-9.06 1.08-19.18 4.85-28 5z"/>
			</g>
			<g fill="#beb8b7">
				<path d="m90 167c-5.18 6.06-17.18 19.69-21 10-1.93 1.26-3.91 3-5 5-2.78-3.09-4.37-7.09-6-10-4.84 5-8.46 11.49-11 18-1.68-1.99-1.15-6.2-1-9-2.44 10.3-0.64 23.37 3 33 1.64-4.25 2.18-8.85 4-13 0.61-1.39 1.39-2.62 2-4 2.32-5.29 4.84-11.8 11-14-1.2 3.95-1.64 8.75-4 12-1.14 3.92-1.89 8.02-3 12-17.11 69.14 76.71 31.2 75-15-6.95 3.53-15.71 7.9-15-4-0.5 2.6-1.8 6.03 0 9-3.78-3.61-7.8-5.5-11-9-4.78 8.18-12.38 14.52-19 21 6.07-2.56 9.54-9.53 15-13 3.9 12.68-23.92 32.13-23 14 1.39-0.54 3.25 2.3 4 0-5.91-0.93 7.75-30.83 10-35 8.6-15.94 13.69-20.1 29-29 3.13-1.82 6.18-3.45 10-4 1.51 2.11-2.95 3.91-1 5 7.84-10.98 17.4-22.56 31-25-20.74-6.05-40.57 14.8-54 30-6.4-2.5-15.02 9.17-20 15z"/>
			</g>
			<g fill="#beb7b8">
				<path d="m347 122c4.73 0.85 12.93 4.75 17 8-0.22-0.08 13.81 7.34 6 7 13.96 10.95 37.09 66.28 8 55-7.77 32.42 73.26 81.71 75 36 0.16-4.29 0.16-8.71 0-13-0.18-4.73-0.78-9.56-2-14-0.32-1.17-1.39-4.71-2-6-0.24-0.51-1.81-1.54-2-2-0.49 7.42-7.44 6.17-12 4-1.49-3.92-5.32-10.71-3-19-10.43-2.16-18.89-24.14-26-20 2.19 2.67 4.43 6.87 6 10 3.1 4.96 21.44 38.01 11 41 3.54 0.61 3.05-2.11 3-6 9.57 27.12-26.35 5.49-20-10-5.5-7.39-10.31-15.15-15-23 2.78-0.83 3.6-4.27 5-7-2.85-6.65-9.96-11.45-13-18 5.34 0.2 9.06 4.65 14 6-8.58-18.37-30.96-32.48-50-29z"/>
			</g>
			<g fill="#968c96">
				<path d="m364 130c2.5 1.99 3.99 4.45 6 7 7.81 0.34-6.22-7.08-6-7z"/>
			</g>
			<g fill="#d5d3cb">
				<path d="m449 148c5.12 0.87 9.65 1.89 15 2 2.66 0.05 5.34 0 8 0-15.65-7.29-32.24-15.27-49-20 7.08 8.01 16.55 16.4 26 18z"/>
			</g>
			<g fill="#d6d2ca">
				<path d="m35 149c1.7 1.78 5.48 1 8 1 2.98 0 6.02 0.16 9 0 2.74-0.15 9.77-3.2 12-2 2.91 1.56-3.97 5.88-5 7-0.65 0.89-1.22 2.15-2 3 9.17-9.56 21.09-16.86 29-27-18.09 2.78-32.58 16.42-51 18z"/>
			</g>
			<g fill="#c9c6c0">
				<path d="m406 158c7.11-4.14 15.57 17.84 26 20-2.32 8.29 1.51 15.08 3 19 4.56 2.17 11.51 3.42 12-4-1.65-3.93-1.39-8.95-3-13 4.24 2.92 7.2 7.5 9 12 1.16 2.37 2.68 4.6 4 7 3.52 4.55 3.14 11.13 5 16 4.36-8.68 3.87-18.97 3-28-12.82-15.62-28.54-39.39-49-51 8.94 11.68 17.47 25.22 16 41-12.2-5.96-18.72-19.98-30-28-1.76 4.64 1.74 6.25 4 9z"/>
			</g>
			<g fill="#cdcec8">
				<path d="m58 172c1.63 2.91 3.22 6.91 6 10 1.09-2 3.07-3.74 5-5 3.82 9.69 15.82-3.94 21-10-4.77 3.31-8.19 8.64-13 12 0.93-15.28 6.67-29.56 17-41-13.86 8.22-26.44 20.75-36 34z"/>
			</g>
			<g fill="#d5d3c9">
				<path d="m124 146c1.32-0.39 2.58-0.82 4-1-14.96 10.37-18.82 31.7-34 39-0.23-3.17 0.05-6.12 1-9-2.25 4.17-15.91 34.07-10 35 1.24-0.31 2.81-0.5 4-1 6.62-6.48 14.22-12.82 19-21 3.2 3.5 7.22 5.39 11 9-1.8-2.97-0.5-6.4 0-9 2.87-14.85 4.97-28.36 14-41-1.95-1.09 2.51-2.89 1-5-3.82 0.55-6.87 2.18-10 4z"/>
			</g>
			<g fill="#2c353a">
				<path d="m138 153c2.03-3.19 5.08-7.08 8-10-3.83 3.27-6.04 5.71-8 10z"/>
			</g>
			<g fill="#f9f9e9">
				<path d="m124 146c-15.31 8.9-20.4 13.06-29 29-0.95 2.88-1.23 5.83-1 9 15.18-7.3 19.04-28.63 34-39-1.42 0.18-2.68 0.61-4 1z"/>
			</g>
			<g fill="#676188">
				<path d="m59 155c1.03-1.12 7.91-5.44 5-7-1.45 2.49-3.26 4.64-5 7z"/>
			</g>
			<g fill="#7c737b">
				<path d="m52 150c-2.98 0.16-6.02 0-9 0 2.91 0.28 5.95 0.49 9 0z"/>
			</g>
			<g fill="#535054">
				<path d="m474 150c-0.48 0.1-1.5 0-2 0-2.66 0-5.34 0.05-8 0 1.21 0.15 9.16 2.9 10 0z"/>
			</g>
			<g fill="#a491eb">
				<path d="m488 201v-47c-6.04 4.42-13.37 6.44-21 6 6.72 9.61 8.84 21.28 9 33 4.67 1.12 6.98 7.42 12 8z"/>
			</g>
			<g fill="#a292f2">
				<path d="m24 202c17.84-7.95 8.94-29.75 21-42-4.39-1.03-18.67 0.43-21-5v47z"/>
			</g>
			<g fill="#bdb7bb">
				<path d="m357 171c8.67 1.15 17.28 10.32 26 14 0.91-0.91-1.01-2.79-1-3-9.66-7.77-23.9-18.66-37-24 2.98 4.28 8.45 8.63 12 13z"/>
			</g>
			<g fill="#bebbbd">
				<path d="m129 179c-2.06 1.07-0.53 4.12-1 6 8.84-3.83 19.82-10.35 27-15 3.55-3.19 6.64-7.32 10-11-13.56 4.18-24.42 14.62-36 23-0.12-0.98 0.14-2.02 0-3z"/>
			</g>
			<g fill="#dddcd3">
				<path d="m143 190c-6.12 13.08-8.03 28.29-17 40-3.13 11.54-6.55 14.3-15 25 10.93-11.82 38.83-36.04 56-28-1.27-2.1-1.97-4.73-3-7-2.13-4.7-1.88-8.09-1-13 2.09-30.67 46.96-40.95 59-11 1.93 2.96 2.81 4.14 3 9 0.57 14.88-3.88 28.91-18 35-5.94 7.72-10.61 21.99-20 29-1.59-1.84-5.4-2.56-7-6-2.69 3.3-7.36 0.25-8-3-12.25 6.2-20.91 20.61-35 23-0.33-10.85 6.92-20.58 15-27-7.56 1.1-13.85 6.82-22 6-1.45-5.64 6.48-7.16 7-12-5.62 1.67-9.6 7.56-14 11 1.02-0.27 1.75-1.4 3-1-1.76 5.02-6.33 9.28-10 13-6.31 8.07-8.97 17.86-10 28 6.96-2.75 11.98-9.44 18-14-4.9 10.68-9.46 21.84-10 34 9-3.05 14.98-10.79 22-17-2.78 12.36-3.2 27.51 4 38 0.03-7.45 11.09-14.69 15-20 2.77 5.13 11.41 6.52 14 12 1.6-0.53 0.72-2.75 1-4-0.35-3.87 0.44-7.87 1-11 0.08-3.34 1.21-5.89 2-9 0.43-1.68 0.54-3.3 1-5 0.83-3.07 2.11-5.94 3-9 2.78-9.56 23.39-38.33 16-21 14.67-24.96 35.38-57.68 68.67-52.67s48.02 34.75 61.33 61.67c-0.7-1.95-1.52-3.94-2-6 2.51 0.34 2.5-3.64 5-4 4.02 6.24 6.66 13.06 9 20 0.76 2.28 1.34 4.66 2 7 0.38 1.34 0.63 2.62 1 4 1.71 6.45 3.27 13.03 3 20 0.38-0.85 5.01-2.42 4-5 3.89-0.19 10.28-4.34 12 1 5.9 5.3 10.95 12.84 14 20 2.14-0.59 2.46-3.04 4-4 4.06-9.62 1.29-21.88 1-32 6.66 3.67 12.1 11.71 19 16 5.43-11.35-5.99-24.93-9-35 7.28 1.79 10.69 11.67 18 13 1.34-14.66-9.23-25.59-16-37h3c-5.51-4.8-9.65-12.18-17-14 16.88 15.1-2.75 15.78-14 7 17.05 10.86 15.15 34.63-0.25 20.25s-23.31-21.5-39.75-14.25c-4.1-5.96-11.02-10.61-12-18 1.28-0.28 3.5 0.76 4-1-24.44-2.51-34.05-37.6-16.23-55.23s50.79-6.28 52.23 20.23c0.52 3.2 0.66 5.82 0 9-0.59 2.85-0.74 6.37-2 9 1.13 2.96 19.45 5.36 24 7-0.66-0.54-1.62-1.1-2-2 5 0.3 9.55-1.18 14-3 0.55-1.82-1.75-2.47-2-4-4.21-11.1-8.8-21.91-13-33-1.47 0.27-0.89 2-1 3-17.15-12.01-29.41-31.1-53-32 4.98 3.28-18.59 19.83-23 10 1.11-2.41 3.96-3.62 5-6-8.55 4.27-11.78 13.9-15 22-2.43-0.1-6.13 1.04-6 4-34.81 16.05-40.5-23.45-64-29 4.11 1.4 8.34 5.22 11 9-7.4 2.82-27.21 0.26-25-10-19.82 1.39-35.07 15.62-47 31-1.78-1.43-4.23-0.55-6-2z"/>
			</g>
			<g fill="#b1abae">
				<path d="m210 162c-4.4-1.04-9.29-1.41-14-1-2.21 10.26 17.6 12.82 25 10-2.66-3.78-6.89-7.6-11-9z"/>
			</g>
			<g fill="#b4aeb5">
				<path d="m295 165c-1.04 2.38-3.89 3.59-5 6 4.41 9.83 27.98-6.72 23-10-6.62-0.25-12.47 1.05-18 4z"/>
			</g>
			<g fill="#dcdbd1">
				<path d="m406 193c3.21 4.31 11.61 15.08 17 16 10.44-2.99-7.9-36.04-11-41 1.89 4.39 4.82 8.4 6 13-2.67-0.13-4.53-1.28-7 0-4.13-6.69-10.07-12-15-18-1.4 2.73-2.22 6.17-5 7 4.69 7.85 9.5 15.61 15 23z"/>
			</g>
			<g fill="#100b21">
				<path d="m163 207c-0.3 4.39-0.21 8.95 1 13 1.03 2.27 1.73 4.9 3 7 7.92 13.07 25.4 19.3 40 13 14.12-6.09 18.57-20.12 18-35-0.37-2.28-2-6.52-3-9-12.04-29.95-56.91-19.67-59 11m38-18c10.89 3.77 4.73 22.98-7.07 18.07-11.8-4.9-5.67-22.49 7.07-18.07m-26 21c7.98 20.21 32.87 25.17 41 1 5.52 26.47-40.86 31.51-44 5-0.67-2.72-2.01-6.29 0-9v-1c0.17-1.84 1.09-4.29 3-5v9z"/>
			</g>
			<g fill="#0f0a21">
				<path d="m312 242c13.12 1.35 28.14-4.75 34-17 1.26-2.63 1.41-6.15 2-9 0.26-2.89 0.16-6.1 0-9-1.44-26.51-34.41-37.86-52.23-20.23s-8.21 52.72 16.23 55.23m7-53c11.21 3.4 2.23 23.89-8.67 17.67s-3.57-21.39 8.67-17.67m-11 43c-8.31-3.46-15.34-11.77-12-21 1.82 6.63 6.7 12.9 13 16 14.43 5.39 28.89-8.29 29-22 9.05 16.56-14.14 35.9-30 27z"/>
			</g>
			<g fill="#8b818f">
				<path d="m447 193c0.19 0.46 1.76 1.49 2 2-0.06-2.12-0.23-4.23 1-6 1.26 0.56 1.25 2.85 3 3-1.8-4.5-4.76-9.08-9-12 1.61 4.05 1.35 9.07 3 13z"/>
			</g>
			<g fill="#898292">
				<path d="m55 197c1.81-2.36 5.72-5.73 7-2 2.36-3.25 2.8-8.05 4-12-6.16 2.2-8.68 8.71-11 14z"/>
			</g>
			<g fill="#f1f2f3">
				<path d="m201 189c-12.74-4.42-18.87 13.17-7.07 18.07 11.8 4.91 17.96-14.3 7.07-18.07z"/>
			</g>
			<g fill="#f4f6f7">
				<path d="m319 189c-12.24-3.72-19.57 11.45-8.67 17.67s19.88-14.27 8.67-17.67z"/>
			</g>
			<g fill="#665675">
				<path d="m449 195c0.61 1.29 1.68 4.83 2 6v-4c2.31-0.35 4.39 0.39 6 2-1.32-2.4-2.84-4.63-4-7-1.75-0.15-1.74-2.44-3-3-1.23 1.77-1.06 3.88-1 6z"/>
			</g>
			<g fill="#4a3e5a">
				<path d="m55 197c-0.61 1.38-1.39 2.61-2 4 1.88 0.52 1.87-1.43 3-2 0.05 2.72 2.88 5.7 3 8 1.11-3.98 1.86-8.08 3-12-1.28-3.73-5.19-0.36-7 2z"/>
			</g>
			<g fill="#a49ba6">
				<path d="m423 209c-5.39-0.92-13.79-11.69-17-16-6.35 15.49 29.57 37.12 20 10 0.05 3.89 0.54 6.61-3 6z"/>
			</g>
			<g fill="#a49aaa">
				<path d="m89 209c-1.19 0.5-2.76 0.69-4 1-0.75 2.3-2.61-0.54-4 0-0.92 18.13 26.9-1.32 23-14-5.46 3.47-8.93 10.44-15 13z"/>
			</g>
			<g fill="#c1bdc8">
				<path d="m225 205c-0.19-4.86-1.07-6.04-3-9 1 2.48 2.63 6.72 3 9z"/>
			</g>
			<g fill="#574c69">
				<path d="m172 206c2 0.14 2.4 2.49 3 4v-9c-1.91 0.71-2.83 3.16-3 5z"/>
			</g>
			<g fill="#928d9b">
				<path d="m23 216c0 0.04 1 0 1 0 0.35-3.93 0-8.06 0-12-1.34 3.16-1.37 8.08-1 12z"/>
			</g>
			<g fill="#8a8ba9">
				<path d="m309 227c-1.31 1.7-2.54 3-1 5 15.86 8.9 39.05-10.44 30-27-0.11 13.71-14.57 27.39-29 22z"/>
			</g>
			<g fill="#d2cec7">
				<path d="m474 211c-0.12 2.93-2.04 10.64-1 13 2.51-0.18 12.63 5.85 14 8 0.01-3.69 1-9.49 1-14-5.1-3.64-8.85-9.31-14-13-0.06 2 0.08 4 0 6z"/>
			</g>
			<g fill="#c8c5be">
				<path d="m24 216s-1 0.04-1 0c0.57 6.11 0.58 11.87 0 18 0-0.04 1 0 1 0 5.4-5.63 10.8-4.91 17-8 0.19-1.03 1.85-1.5 2-2-2.67-5.68-4.92-11.59-5-18-5.01 2.34-9.46 6.52-14 10z"/>
			</g>
			<g fill="#8b8aa9">
				<path d="m172 207c0 2.92-0.36 6.1 0 9 3.14 26.51 49.52 21.47 44-5-8.13 24.17-33.02 19.21-41-1-0.6-1.51-1-3.86-3-4v1z"/>
			</g>
			<g fill="#c6c3ca">
				<path d="m164 220c-1.21-4.05-1.3-8.61-1-13-0.88 4.91-1.13 8.3 1 13z"/>
			</g>
			<g fill="#514b65">
				<path d="m172 216c-0.36-2.9 0-6.08 0-9-2.01 2.71-0.67 6.28 0 9z"/>
			</g>
			<g fill="#787480">
				<path d="m348 216c0.66-3.18 0.52-5.8 0-9 0.16 2.9 0.26 6.11 0 9z"/>
			</g>
			<g fill="#737193">
				<path d="m308 232c-1.54-2-0.31-3.3 1-5-6.3-3.1-11.18-9.37-13-16-3.34 9.23 3.69 17.54 12 21z"/>
			</g>
			<g fill="#a99fa6">
				<path d="m442 256c-3.51 0.73-6.59 0.55-10 0-20.46-1.11-40.64-16.09-52-33 0.25 1.53 2.55 2.18 2 4-4.45 1.82-9 3.3-14 3 0.38 0.9 1.34 1.46 2 2 18.72 6.74 36.65 24.36 41 44-6.76-4.6-12.99-9.83-20-14h-3c6.77 11.41 17.34 22.34 16 37-7.31-1.33-10.72-11.21-18-13 3.01 10.07 14.43 23.65 9 35-1.57 3.29-5.44 5.22-9 4v4c-1.46 3.39 31.82 3.85 20-15 8.96-2.74 3.44-17.21 5-25 8.88-2.48 0.72-14.62 1-21 14.89 8.59 40 9.03 47-7-7.2-11.28 13.8 0.66 20 1 2.44 0.13 7.55-1.08 9 1 1.41 2.01-1.06 6.74 0 9-1.99-0.28-3.78-1.48-6-1 0.74 2.2-2.89 4.54-3 6 9.58 20.5 5.99 41.14-21 29 2.84 5.2 3.98 10.98 4 17 0.32 2.23 1.17 5.09 1 8 2.57-5.46 23.27 10.75 25 15 0.34-28-0.87-56.39 1-84-8.9-3.01-18.59-3.44-27-8 5.9-7.71 8-17.1 7-27 2.89 2.52 6.25 5.25 9 8-2.88-3.37-7.53-6.58-8-11h3c-1.04-2.36 0.88-10.07 1-13-3.28 4.97-3.26 16.03-12 15-0.16 13.51-6.31 27.17-20 30z"/>
			</g>
			<g fill="#746979">
				<path d="m453 228c0.6-4.21 0.61-8.73 0-13 0.16 4.29 0.16 8.71 0 13z"/>
			</g>
			<g fill="#fbfcf5">
				<path d="m193 275c-14.57 34.16-9.05 82.97 41 71-8.15-5.07-15.42-11.92-17-22-11.38-30.82 8.94-53.17 43-51s43.27 24.99 33 55c-2.75 8.05-7.28 13.24-14 18 25.89 10.06 55.36-14.35 50-42 0-0.91 0.19-2.11 0-3-1.12-5.28-4.07-11.63-6-17-13.31-26.92-28.04-56.66-61.33-61.67s-54 27.71-68.67 52.67z"/>
			</g>
			<g fill="#a79fa7">
				<path d="m41 226c-0.09 0.48 0.15 1.55 0 2 1.35-0.78 2.72-1.3 4 0-3.48 9.41 0.73 18.78 4 27-6.58 2.73-13.81 5.83-20 8 5.38-1.41 11.55-3.11 17-4 1.89-4.53 10.67-6.89 8-1-0.19 0.41-0.16 1.55 0 2 7.76 22.28 30.59 12.87 47 7-8.39 20.98 0.3 42.63 7 62-0.04-3.45 3.82-4.66 5-8 5.02-0.8 14.49 1.85 9 8 0.43-0.17 1.51-0.08 2 0 7.42 1.18 0.79 33.1 16 29 1.63-4.71 4.08-12.3 0-16-7.2-10.49-6.78-25.64-4-38-7.02 6.21-13 13.95-22 17 0.54-12.16 5.1-23.32 10-34-6.02 4.56-11.04 11.25-18 14 1.03-10.14 3.69-19.93 10-28 0.7-1.39 2.29-2.24 2-4-3.79-2.19-7.28 0.51-11 2-1.62 1.08-3.51 1.73-5 3 0.93-7.07 5.14-13.21 9-19 8.45-10.7 11.87-13.46 15-25-17.08 26.7-77.75 42.31-77-4-1.72 0.94-5.27-2.05-6-2-0.15 0.5-1.81 0.97-2 2z"/>
			</g>
			<g fill="#2b1f3a">
				<path d="m478 235c2.77 3.64 6.36 7.13 10 10 1.09-4.27-1.01-9.14-1-13-1.37-2.15-11.49-8.18-14-8h-3c0.47 4.42 5.12 7.63 8 11z"/>
			</g>
			<g fill="#fbfcf5">
				<path d="m312 242c-0.5 1.76-2.72 0.72-4 1 0.98 7.39 7.9 12.04 12 18 16.44-7.25 24.35-0.13 39.75 14.25s17.3-9.39 0.25-20.25c11.25 8.78 30.88 8.1 14-7 7.35 1.82 11.49 9.2 17 14 7.01 4.17 13.24 9.4 20 14-4.35-19.64-22.28-37.26-41-44-4.55-1.64-22.87-4.04-24-7-5.86 12.25-20.88 18.35-34 17z"/>
			</g>
			<g fill="#231c30">
				<path d="m24 234c0.22 2.47-1.19 7.89 0 10 0.88 0.88 15.93-12.9 17-16 0.15-0.45-0.09-1.52 0-2-6.2 3.09-11.6 2.37-17 8z"/>
			</g>
			<g fill="#fbfbf3">
				<path d="m111 255c-3.86 5.79-8.07 11.93-9 19 1.49-1.27 3.38-1.92 5-3 5.08-3.38 10.99-6.28 16-10 4.4-3.44 8.38-9.33 14-11-0.52 4.84-8.45 6.36-7 12 8.15 0.82 14.44-4.9 22-6-8.08 6.42-15.33 16.15-15 27 14.09-2.39 22.75-16.8 35-23 0.64 3.25 5.31 6.3 8 3 1.6 3.44 5.41 4.16 7 6 9.39-7.01 14.06-21.28 20-29-14.6 6.3-32.08 0.07-40-13-17.17-8.04-45.07 16.18-56 28z"/>
			</g>
			<g fill="#8a8491">
				<path d="m24 244c-1.19-2.11 0.22-7.53 0-10 0 0-1-0.04-1 0-0.25 2.66-0.8 8.2 1 10z"/>
			</g>
			<g fill="#837884">
				<path d="m46 259c0.49-0.08 1 0 1 0 1.72-2.47 6.46-6.74 7-1 2.67-5.89-6.11-3.53-8 1z"/>
			</g>
			<g fill="#231832">
				<path d="m459 261c7.81 12.23 18.34 23.87 17 40-2.49 0.29-4.39-1.64-7-1-9.66-1.9-24.22-14.66-32-15 2.19-0.41 15.86 32.84 16 40 0.41 3.42 0.76 6.55 0 10 0 0.68 0.29 2.4 0 3-1.23 2.53-22.01-8.28-25-10-2.53-1.46-4.76-3.6-7-5-1.7-0.65-3.07-2.05-5-2 12.82 16.43 22.31 37.13 17 59-2.37-0.03-3.72-2.5-6-3-7.14-4.42-17.05-8.05-23-14-2.23-0.73-3.29-1.91-4 1 10.31 16.48 11.34 42.12 1 59-1.04 1.7-3.09 2.85-3 5-12.04-1.69-24.13-7.12-32-17-1.08-1.04-3.07-1.92-4-3 0.38 2.83-1.82 4.19-2 6 0.57 3.01 1 5.7 1 9 0.32 3.28 0.54 6.7 0 10-0.43 7.99-3.71 15.35-8 22-10.03 15.54-28.28-10.21-35-19-0.77-0.78-2.09-1.47-3-2-0.11 1 0.47 2.73-1 3-0.14 1.69-0.72 2.87-1 4-1.32 19.43-20.16 36.16-37 43 4.09 2.24 10.16 0.4 15 1 12.65-6.77 23.27-20.12 28-33 21.66 34.58 55.78 7.26 51-26 11.26 6.75 30.68 20.37 38 2 2.28-3.68 4.88-8.17 6-12 1.35-4.64 2.61-10.12 3-15 0.55-6.97 0.68-14.79-2-21 8.09 1.75 13.87 10.7 23 10 5.41-4.31 5-13.31 5-20 0-3.66 0.14-7.35 0-11-0.23-6.06-1.79-11.48-4-17 6.56 1.59 11.85 7.22 19 7 3.84-1.46 3.88-10.83 4-14 0.15-3.96 0.15-8.04 0-12-0.02-6.02-1.16-11.8-4-17 26.99 12.14 30.58-8.5 21-29-1.09-2.32-2.66-4.43-3-7 1.99 0.28 3.78 1.48 6 1s4.01 0.72 6 1c-1.06-2.26 1.41-6.99 0-9-3.07 0.8-6.68-0.62-9-1-6.2-0.34-27.2-12.28-20-1z"/>
			</g>
			<g fill="#55485b">
				<path d="m47 259c1.8-1.14 3.79-2.16 6-2 0.41 1.56-0.46 2.69-1 4 0.21-0.19 1.96-0.9 2-1-0.16-0.45-0.19-1.59 0-2-0.54-5.74-5.28-1.47-7 1z"/>
			</g>
			<g fill="#5b4d5f">
				<path d="m442 256c-3.21 0.29-6.78 0.17-10 0 3.41 0.55 6.49 0.73 10 0z"/>
			</g>
			<g fill="#251b35">
				<path d="m47 259s-0.51-0.08-1 0c-5.45 0.89-11.62 2.59-17 4-1.21 0.32-3.15 1.78-5 1v7c3.34 2.47 8.42 0.13 12-1-13.85 19.29-11.48 52.82 19 35-3.81 9.07-6.71 18.62-6 29 0.28 5.07 2.24 9.11 3 14 5.46 6.65 15.36-4.73 21-5-1.74 6.86-4.65 13.48-4 21 0 8.81 1.34 16.66 2 25 6.47 6.79 19.34-6.22 25-8 0.48 3.87-1.71 7.05-1 11-0.13 3.32 0 6.68 0 10 0 1.62-0.2 3.39 0 5 0.38 3.15 1.86 8 3 11 1.66 4.4 6.48 16.4 11 19 10.67 4.21 23.85-7.87 33-12-5.15 32.92 28.84 59.8 51 27 4.52 13.11 14.67 24.88 26 33h1 16c-15.99-3.96-36.68-27.54-37-44-0.2-0.8-0.89-1.69-1-3-0.36-1.5-1.77-3.85-1-6-2.22 0.49-1.74 3.57-4 4-0.64 1.33-1.24 1.89-2 3-7.94 11.58-22.35 30.2-33 13-7.76-12.53-6.73-23.8-7-38-0.03-1.54-1.94-7.36-2-5-8.2 11.72-22.37 16.23-35 20-0.3-1.25-1.83-1.71-2-3-0.75-0.92-1.41-2.02-2-3-2.1-3.5-2.77-7.26-4-11-5.26-15.98-2.73-33.36 5-48-0.16 0.1-4.42 1.09-6 2-1.31 0.75-2.75 1.19-4 2-6.3 4.08-13.01 8.64-20 12-1.13 0.54-1.8 1.65-3 2-3.57-19.16 0.27-39.38 13-54 0.54-0.09-1.27-1.45-3-1-1.62 1.34-4.13 2.04-6 3-3.7 1.89-23.27 11.72-24 8-0.09-0.48 0-1.5 0-2-1.56-3.68-0.63-7.47 0-11 0.97-14.26 8.28-26.21 17-37-2.51 1.37-5.4 2.5-8 4-7.66 4.41-16.36 6.68-25 8-2.58 0.39-5.14 1.6-8 1 2.24-14.69 7.85-28.71 18-40 0.54-1.31 1.41-2.44 1-4-2.21-0.16-4.2 0.86-6 2z"/>
			</g>
			<g fill="#eeeddf">
				<path d="m52 261c-10.15 11.29-15.76 25.31-18 40 2.86 0.6 5.42-0.61 8-1 5.6-2.25 34.23-12.18 35-14-0.46 1.09-1.04 1.47-2 2-8.72 10.79-16.03 22.74-17 37-0.25 3.63 0 7.36 0 11 0 0.5-0.09 1.52 0 2 0.8 1.04 24.63-11.53 28-13 1.54-0.67 3.36-1.34 5-2 1.61-0.64 3.5-0.9 5-2-0.28 2.93-3.69 4.77-5 7-12.73 14.62-16.57 34.84-13 54 1.2-0.35 1.87-1.46 3-2 7.88-5.56 11.01-9.94 20-12 1.25-0.81 2.69-1.25 4-2 3.47-2.97 5.27-9.01 11-9-1.79 2.29-2.97 5.14-5 7-7.73 14.64-10.26 32.02-5 48 1.54 3.18 3.08 8.6 4 11 0.59 0.98 1.25 2.08 2 3 7.88 5.33 41.99-22.63 42-23-0.13 3.87-2.37 7.7-3 11 0.27 14.2-0.76 25.47 7 38 10.16 12.49 26.29-7.11 33-17 2.18-3.21 3.36-9.22 8-10v12c3.45 19.24 26.83 42.45 45 48 9.21-0.18 19.87 1 30 1 2.05-0.91 1.68-3.31 0-4 22.22-11.93 39.23-34.45 40-59 7.54 13.03 23.34 37.16 39 32 4.29-6.65 7.57-14.01 8-22 0.18-3.31 0-6.68 0-10 0-3.3-0.43-5.99-1-9-0.59-3.14-0.83-7.02-2-10-0.22-0.55-0.74-1.14-1-2 0.42 1.42 35.87 30.61 44 21 10.34-16.88 9.31-42.52-1-59-1.3-2.08-4.22-3.93-4-7 2.4-0.05 4.04 1.97 6 3 9.83 4.65 17.2 9.5 25 17 2.28 0.5 3.63 2.97 6 3 5.31-21.87-4.18-42.57-17-59 1.93-0.05 3.3 1.35 5 2 1.96 0.76 4.1 1.2 6 2 8.82 3.72 17.73 8.29 26 13 0.29-0.6 0-2.32 0-3 0-3.33 0.07-6.67 0-10-0.14-7.16-13.81-40.41-16-40 7.23-1.36 26.08 12.76 32 15 2.61-0.64 4.51 1.29 7 1 1.34-16.13-9.19-27.77-17-40-7 16.03-32.11 15.59-47 7-0.28 6.38 7.88 18.52-1 21-1.56 7.79 3.96 22.26-5 25 11.82 18.85-21.46 18.39-20 15-0.08 1.32 0.13 2.68 0 4-0.88 8.71-5.71 16.68-8 25-1.43 5.19-2.74 10.49-6 15-5.66-4.65-10.96-10.1-15-16 0.63 9.68 2.39 22.76-2 33-8.55-4.51-10.91-16.17-17-23-5.64 30.89-27.92 42.12-47.25 66.75-19.32 24.64-50.81 25.42-70.45 0.95-19.63-24.48-41.05-37.12-46.3-67.7-4.89 7.79-11.31 15.03-17 22-4.44-9.99-3.08-21.57-1-32-20.85 30.79-28.48-8.96-32-28-0.49-0.08-1.57-0.17-2 0-6.27 2.46-10.53 6.65-14 0-6.7-19.37-15.39-41.02-7-62-16.41 5.87-39.24 15.28-47-7-0.04 0.1-1.79 0.81-2 1z"/>
			</g>
			<g fill="#beb5af">
				<path d="m123 261c-5.01 3.72-10.92 6.62-16 10 3.72-1.49 7.21-4.19 11-2 0.29 1.76-1.3 2.61-2 4 3.67-3.72 8.24-7.98 10-13-1.25-0.4-1.98 0.73-3 1z"/>
			</g>
			<g fill="#676279">
				<path d="m488 263c-1.45-2.08-6.56-0.87-9-1 2.32 0.38 5.93 1.8 9 1z"/>
			</g>
			<g fill="#70697e">
				<path d="m23 271c0.1 0.2 1 0 1 0v-7c1.85 0.78 3.79-0.68 5-1-4.92 1.73-7.32 0.78-6 8z"/>
			</g>
			<g fill="#b7b5c2">
				<path d="m177 296c0.67 2.01 3.36 1.91 5 3-0.56 2.52 1.19 6.3-1 8-0.47 2.6-1.66 5.88-2 8-0.41 2.51 0 5.45 0 8 0 19.52 16.2 52.04 41 46s38.23-19.53 61.03-3.02c22.79 16.5 49.31-14.14 50.97-32.98 0.67-7.6 0.69-16.79-1-24-0.26-1.12-1.82-3.93-2-5 5.36 27.65-24.11 52.06-50 42 6.72-4.76 11.25-9.95 14-18-19.53 24.98-59.89 23.13-76-4 1.58 10.08 8.85 16.93 17 22-50.05 11.97-55.57-36.84-41-71 7.39-17.33-13.22 11.44-16 21z"/>
			</g>
			<g fill="#a1979f">
				<path d="m24 271s-0.9 0.2-1 0c1.79 24.14 1 49.42 1 74 2.67-7.24 18.63-12.64 24-16 0.39 1.57-0.94 4.22 1 5-0.71-10.38 2.19-19.93 6-29-30.48 17.82-32.85-15.71-19-35-3.58 1.13-8.66 3.47-12 1z"/>
			</g>
			<g fill="#8f8192">
				<path d="m479 277c0.11-1.46 3.74-3.8 3-6-2.22 0.48-4.01-0.72-6-1 0.34 2.57 1.91 4.68 3 7z"/>
			</g>
			<g fill="#0f091e">
				<path d="m217 324c16.11 27.13 56.47 28.98 76 4 10.27-30.01 1.06-52.83-33-55s-54.38 20.18-43 51m62-37c0.64 0.37 1.4 0.63 2 1 5.67 3.45 8.46 9.05 10 15 5.57 21.47-35.16 50.21-35 18-2.2 4.58-2.13 9.81-2 15-16.3 0.53-34.87-13.39-33-31 0.67-6.04 2.99-11.28 8-15 2.02-1.5 3.91-1.95 6-3 12.81-6.41 30.94-7.55 44 0z"/>
			</g>
			<g fill="#aaa5b3">
				<path d="m323 284c1.93 5.37 4.88 11.72 6 17 0-3.65 2.36-6.12 6-7-2.34-6.94-4.98-13.76-9-20-2.5 0.36-2.49 4.34-5 4 0.48 2.06 1.3 4.05 2 6z"/>
			</g>
			<g fill="#a5a5ae">
				<path d="m235 287c-1.44 2.16-1.39 7.34 1 9 0.41-0.2 1.5-0.03 2 0 11.16 0.78 22.74-0.77 34 0 5.87 0.4 14.45-3.17 7-9-13.06-7.55-31.19-6.41-44 0z"/>
			</g>
			<g fill="#b5b2c0">
				<path d="m42 300c8.64-1.32 17.34-3.59 25-8 2.63-1.92 7.85-4.02 10-6-0.77 1.82-29.4 11.75-35 14z"/>
			</g>
			<g fill="#aba4ae">
				<path d="m469 300c-5.92-2.24-24.77-16.36-32-15 7.78 0.34 22.34 13.1 32 15z"/>
			</g>
			<g fill="#726d85">
				<path d="m67 292c2.6-1.5 5.49-2.63 8-4 0.96-0.53 1.54-0.91 2-2-2.15 1.98-7.37 4.08-10 6z"/>
			</g>
			<g fill="#877b83">
				<path d="m229 290c-2.72 4.75 3.35 7.75 7 6-2.39-1.66-2.44-6.84-1-9-2.09 1.05-3.98 1.5-6 3z"/>
			</g>
			<g fill="#807f8a">
				<path d="m272 296c2.91 0.88 6.96 2.67 10 4 3.7-4.15 3-8.26-1-12-0.6-0.37-1.36-0.63-2-1 7.45 5.83-1.13 9.4-7 9z"/>
			</g>
			<g fill="#5d5969">
				<path d="m282 300c1.5 0.65 7.89 5.18 9 3-1.54-5.95-4.33-11.55-10-15 4 3.74 4.7 7.85 1 12z"/>
			</g>
			<g fill="#69606a">
				<path d="m221 305c0.82-1.51 15.14-8.36 17-9-0.5-0.03-1.59-0.2-2 0-3.65 1.75-9.72-1.25-7-6-5.01 3.72-7.33 8.96-8 15z"/>
			</g>
			<g fill="#252136">
				<path d="m238 296c-1.86 0.64-16.18 7.49-17 9-1.87 17.61 16.7 31.53 33 31-0.13-5.19-0.2-10.42 2-15-0.16 32.21 40.57 3.47 35-18-1.11 2.18-7.5-2.35-9-3-3.04-1.33-7.09-3.12-10-4-11.26-0.77-22.84 0.78-34 0m4 8c12.49 2.45 8.32 22.82-5.07 19.07-13.4-3.74-8.96-21.82 5.07-19.07m45 11c-30.86 29.48-21.28-34.77 0 0z"/>
			</g>
			<g fill="#7c7489">
				<path d="m329 301c0.19 0.89 0 2.09 0 3 0.18 1.07 1.74 3.88 2 5 0.01-1.67-0.01-3.33 0-5 2.64-0.54 3.66-2.41 6-3-0.66-2.34-1.24-4.72-2-7-3.64 0.88-6 3.35-6 7z"/>
			</g>
			<g fill="#838091">
				<path d="m174 305c2.22-0.22 4.45 3.63 7 2 2.19-1.7 0.44-5.48 1-8-1.64-1.09-4.33-0.99-5-3-0.89 3.06-2.17 5.93-3 9z"/>
			</g>
			<g fill="#4d4460">
				<path d="m331 309c1.69 7.21 1.67 16.4 1 24 1.58-7.78 5.31-21.3 6-28-0.37-1.38-0.62-2.66-1-4-2.34 0.59-3.36 2.46-6 3-0.01 1.67 0.01 3.33 0 5z"/>
			</g>
			<g fill="#080319">
				<path d="m242 304c-14.03-2.75-18.47 15.33-5.07 19.07 13.39 3.75 17.56-16.62 5.07-19.07z"/>
			</g>
			<g fill="#090419">
				<path d="m287 315c-21.28-34.77-30.86 29.48 0 0z"/>
			</g>
			<g fill="#60586e">
				<path d="m173 310c0.86 1.81 4.6 0.58 6 1v4c0.34-2.12 1.53-5.4 2-8-2.55 1.63-4.78-2.22-7-2-0.46 1.7-0.57 3.32-1 5z"/>
			</g>
			<g fill="#150c23">
				<path d="m332 333c-1.66 18.84-28.18 49.48-50.97 32.98-22.8-16.51-36.23-3.02-61.03 3.02s-41-26.48-41-46c-0.18-1.09-1.88-3.24-1-5-3.08-1.35-6-1.42-7 2v10c0 9.09 3.87 14.8 6 23 3.44 6.97 10.49 10.94 15 17 8.43 5.66 19.73 7.69 30 8 1.4 4.76 6.18 7.94 9 12 19.82 13.87 40.44 12 57-7 10.12-11.61 32.14-8 43-24 6.76-9.95 9.53-21.79 10-34 0.27-6.97-1.29-13.55-3-20-0.69 6.7-4.42 20.22-6 28m-50 42c-8.14 21.93-40.97 20.87-52 1 17.79-11.63 33.94-12.09 52-1z"/>
			</g>
			<g fill="#8b8498">
				<path d="m375 337c0.58-0.39 9.91-1.67 11-4 0.13-1.32-0.08-2.68 0-4v-4c3.56 1.22 7.43-0.71 9-4-6.9-4.29-12.34-12.33-19-16 0.29 10.12 3.06 22.38-1 32z"/>
			</g>
			<g fill="#3e344f">
				<path d="m171 319c-0.01 0.5 0 1 0 1 1-3.42 3.92-3.35 7-2-0.88 1.76 0.82 3.91 1 5 0-2.55-0.41-5.49 0-8v-4c-1.4-0.42-5.14 0.81-6-1-0.79 3.11-1.92 5.66-2 9z"/>
			</g>
			<g fill="#b3aeb1">
				<path d="m341 325c-0.47 12.21-3.24 24.05-10 34-1.72 13.22-8 20-18 30-43.34 50.71-120 25.71-136-36-2.13-8.2-6-13.91-6-23 0 0.04-1 0-1 0-0.28 1.25 0.6 3.47-1 4-2.59-5.48-11.23-6.87-14-12-3.91 5.31-14.97 12.55-15 20 4.08 3.7 1.63 11.29 0 16-15.21 4.1-8.58-27.82-16-29 3.52 19.04 11.15 58.79 32 28-2.08 10.43-3.44 22.01 1 32 5.69-6.97 12.11-14.21 17-22 5.25 30.58 26.67 43.22 46.3 67.7 19.64 24.47 51.13 23.69 70.45-0.95 19.33-24.63 41.61-35.86 47.25-66.75 6.09 6.83 8.45 18.49 17 23 4.39-10.24 2.63-23.32 2-33 4.04 5.9 9.34 11.35 15 16 3.26-4.51 4.57-9.81 6-15-1.83 1.75-6.74-0.5-9 2-6.68-11.07-23.3-24.15-12-39-1.72-5.34-8.11-1.19-12-1 1.01 2.58-3.62 4.15-4 5z"/>
			</g>
			<g fill="#7d7887">
				<path d="m170 330s1 0.04 1 0v-10s-0.01-0.5 0-1c-0.56 3.13-1.35 7.13-1 11z"/>
			</g>
			<g fill="#676171">
				<path d="m91 323c-1.16 0.82-1.95 3.13-3 4 1.73-0.45 3.54 0.91 3 1 1.31-2.23 4.72-4.07 5-7-1.5 1.1-3.39 1.36-5 2z"/>
			</g>
			<g fill="#8f87a6">
				<path d="m108 329c3.47 6.65 7.73 2.46 14 0 5.49-6.15-3.98-8.8-9-8-1.18 3.34-5.04 4.55-5 8z"/>
			</g>
			<g fill="#a59ea7">
				<path d="m378 358c2.29-8.32 7.12-16.29 8-25-1.09 2.33-10.42 3.61-11 4-1.54 0.96-1.86 3.41-4 4-3.05-7.16-8.1-14.7-14-20-11.3 14.85 5.32 27.93 12 39 2.26-2.5 7.17-0.25 9-2z"/>
			</g>
			<g fill="#948f9e">
				<path d="m86 325c-1.85 1.18-2.44 3.73-4 5 1.87-0.96 4.38-1.66 6-3 1.05-0.87 1.84-3.18 3-4-1.64 0.66-3.46 1.33-5 2z"/>
			</g>
			<g fill="#898191">
				<path d="m428 328c-0.44-0.64-0.27-2.31-1-3-1.9-0.8-4.04-1.24-6-2 2.24 1.4 4.47 3.54 7 5z"/>
			</g>
			<g fill="#554557">
				<path d="m462 335c0.21-1.02 0.91-2.42 1-4 0.17-2.91-0.68-5.77-1-8 0.15 3.96 0.15 8.04 0 12z"/>
			</g>
			<g fill="#655b5f">
				<path d="m58 336c0-3.64-0.25-7.37 0-11-0.63 3.53-1.56 7.32 0 11z"/>
			</g>
			<g fill="#b7b2b7">
				<path d="m58 338c0.73 3.72 20.3-6.11 24-8 1.56-1.27 2.15-3.82 4-5-3.37 1.47-27.2 14.04-28 13z"/>
			</g>
			<g fill="#aca2a7">
				<path d="m428 328c2.99 1.72 23.77 12.53 25 10-8.27-4.71-17.18-9.28-26-13 0.73 0.69 0.56 2.36 1 3z"/>
			</g>
			<g fill="#8e8993">
				<path d="m453 335c0.76-3.45 0.41-6.58 0-10 0.07 3.33 0 6.67 0 10z"/>
			</g>
			<g fill="#bfb7b4">
				<path d="m24 345v31c1.59-0.81 4.17-1.17 6-2 6.91-4.42 23.26-17.88 22-26-0.76-4.89-2.72-8.93-3-14-1.94-0.78-0.61-3.43-1-5-5.37 3.36-21.33 8.76-24 16z"/>
			</g>
			<g fill="#c0b8b5">
				<path d="m463 331c-0.09 1.58-0.79 2.98-1 4-0.12 3.17-0.16 12.54-4 14 8.28 4.76 15.49 21.97 26 25 1.29 0.23 2.7-0.17 4 0v-28c-1.73-4.25-22.43-20.46-25-15z"/>
			</g>
			<g fill="#9e919b">
				<path d="m443 359c0-0.02 1 0 1 0 13.39 0.27 19.02 9.02 28 18-2.02-2.55-3.83-4.99-5-8 3.05 0.16 7.11-0.81 9 2 2.24 0.87 5.65 2.59 8 3-10.51-3.03-17.72-20.24-26-25-7.15 0.22-12.44-5.41-19-7 2.21 5.52 3.77 10.94 4 17z"/>
			</g>
			<g fill="#a3979f">
				<path d="m52 348c1.26 8.12-15.09 21.58-22 26 1.49-0.68 3.71-1.23 5-2 3.17-1.88 5.53-6.31 10-6 0.24 7.12-6.19 11.69-10 17 4.5-4.87 9.65-9.26 13.3-14.7 3.66-5.44 16.83 1.07 20.7-4.3-0.65-7.52 2.26-14.14 4-21-5.64 0.27-15.54 11.65-21 5z"/>
			</g>
			<g fill="#8d879c">
				<path d="m313 389c7.76-9.08-2.19-6.52-8-3-17.06 10.34-29.35 23.2-51 22s-31.74-13.31-49-24c-5.93-3.67-8.98-8.59-13-14-4.51-6.06-11.56-10.03-15-17 16 61.71 92.66 86.71 136 36z"/>
			</g>
			<g fill="#635b6c">
				<path d="m105 366c1.58-0.91 5.84-1.9 6-2 2.03-1.86 3.21-4.71 5-7-5.73-0.01-7.53 6.03-11 9z"/>
			</g>
			<g fill="#584b5e">
				<path d="m400 364c0.71-2.91 1.77-1.73 4-1-0.78-0.78-1.27-2.27-2-3-1.96-1.03-3.6-3.05-6-3-0.22 3.07 2.7 4.92 4 7z"/>
			</g>
			<g fill="#a39eae">
				<path d="m288 383c-1.97 8.22 17.83 2.88 17 3 5.81-3.52 15.76-6.08 8 3 10-10 16.28-16.78 18-30-10.86 16-32.88 12.39-43 24z"/>
			</g>
			<g fill="#746879">
				<path d="m443 370c0.3-3.1 1.34-7.19 1-11 0 0-1-0.02-1 0 0.14 3.65 0 7.34 0 11z"/>
			</g>
			<g fill="#bab2b3">
				<path d="m443 370c0 6.69 0.41 15.69-5 20-2.25 1.8-17.52 16-21 11-0.39 4.88-1.65 10.36-3 15 1.86 12.87 25.04 18.76 31 28 3.86 1.15 3.9-3.54 6-5 5.75-17.25 4.21-36.17-2-53 10.84 8.72 21.69 19.15 34 25 1.75-5.12 3.32-10.11 4-16-4.84-4.88-10.2-11.92-15-18-8.98-8.98-14.61-17.73-28-18 0.34 3.81-0.7 7.9-1 11z"/>
			</g>
			<g fill="#ada4ac">
				<path d="m404 363c5.95 5.95 15.86 9.58 23 14-7.8-7.5-15.17-12.35-25-17 0.73 0.73 1.22 2.22 2 3z"/>
			</g>
			<g fill="#bcb4b2">
				<path d="m35 383c-4.05 5.13-5.36 12.38-10 16 0.96 4.27 1.98 9.06 3 13 1.28-9.5 31.73-14.68 36-26-8.59 17.41-9.16 39.3-1 57 3.7 2.96 33.52-19.66 35-25-1.14-3-2.62-7.85-3-11-2.45-1.99-8.45 5.62-9 8-15.51 2.24-16.57-14.58-15-26-0.66-8.34-2-16.19-2-25-3.87 5.37-17.04-1.14-20.7 4.3-3.65 5.44-8.8 9.83-13.3 14.7z"/>
			</g>
			<g fill="#d53f73">
				<path d="m282 375c-18.06-11.09-34.21-10.63-52 1 11.03 19.87 43.86 20.93 52-1m-9 4c-0.18 10.41-32.06 10.91-32.75 1.75s28.68-8.78 32.75-1.75z"/>
			</g>
			<g fill="#7f7484">
				<path d="m35 372c0.99-0.11 1.78-1.53 3-1 1.47 8.11-7.37 13.18-14 14 0 1.67-0.03 3.34 0 5 0.06 3.21 0.33 6.01 1 9 4.64-3.62 5.95-10.87 10-16 3.81-5.31 10.24-9.88 10-17-4.47-0.31-6.83 4.12-10 6z"/>
			</g>
			<g fill="#b6b2be">
				<path d="m81 380c6.99-3.36 13.7-7.92 20-12-8.99 2.06-12.12 6.44-20 12z"/>
			</g>
			<g fill="#7a6e7a">
				<path d="m472 377c4.8 6.08 10.16 13.12 15 18 0.44-3.82 0.85-7.13 1-11-5.47 4.16-16.38-10.47-12-13-1.89-2.81-5.95-1.84-9-2 1.17 3.01 2.98 5.45 5 8z"/>
			</g>
			<g fill="#a3a0b7">
				<path d="m205 384c5.39 1.74 15.76 6.72 21 1 1.26 1.93 3 3.91 5 5-2.82-4.06-7.6-7.24-9-12-10.27-0.31-21.57-2.34-30-8 4.02 5.41 7.07 10.33 13 14z"/>
			</g>
			<g fill="#675c70">
				<path d="m35 372c-1.29 0.77-3.51 1.32-5 2-1.83 0.83-4.41 1.19-6 2v2 7c6.63-0.82 15.47-5.89 14-14-1.22-0.53-2.01 0.89-3 1z"/>
			</g>
			<g fill="#5c4f66">
				<path d="m488 384c0.13-3.32 0-6.68 0-10-1.3-0.17-2.71 0.23-4 0-2.35-0.41-5.76-2.13-8-3-4.38 2.53 6.53 17.16 12 13z"/>
			</g>
			<g fill="#fd8fa2">
				<path d="m273 379c-4.07-7.03-33.44-7.41-32.75 1.75s32.57 8.66 32.75-1.75z"/>
			</g>
			<g fill="#c4c1c7">
				<path d="m24 390c-0.03-1.66 0-3.33 0-5v-7c-1.66 3.9-0.55 8.15 0 12z"/>
			</g>
			<g fill="#9e919e">
				<path d="m417 401c3.48 5 18.75-9.2 21-11-9.13 0.7-14.91-8.25-23-10 2.68 6.21 2.55 14.03 2 21z"/>
			</g>
			<g fill="#a99fa5">
				<path d="m71 389c-1.57 11.42-0.51 28.24 15 26 0.55-2.38 6.55-9.99 9-8-0.2-1.61 0-3.38 0-5-0.35-3.28-0.47-6.74 0-10-0.71-3.95 1.48-7.13 1-11-5.66 1.78-18.53 14.79-25 8z"/>
			</g>
			<g fill="#b7b7c6">
				<path d="m205 384c17.26 10.69 27.35 22.8 49 24s33.94-11.66 51-22c0.83-0.12-18.97 5.22-17-3-16.56 19-37.18 20.87-57 7-2-1.09-3.74-3.07-5-5-5.24 5.72-15.61 0.74-21-1z"/>
			</g>
			<g fill="#62556c">
				<path d="m28 412c0.55 2.12 1.24 3.95 2 6 5.3 2.62 13.99-7.71 19-8v11c0.29 7.72 2.52 14.61 4 22 2.74 6.66 6.1 10.56 14 10 2.52-1.73 0.18-5.94 0-8-1.57 0.3-3.61-0.25-4-2-8.16-17.7-7.59-39.59 1-57-4.27 11.32-34.72 16.5-36 26z"/>
			</g>
			<g fill="#584d64">
				<path d="m451 439c-1.4 4.2-2.93 8.38-3 13 4.58 0.45 7.51-4.18 10-7 1.88-6.47 4.53-13.15 5-20 0.34-4.98-0.25-10.02 0-15 5.79 3.08 10.92 8.46 18 8 0.88-2.34 1.22-4.72 2-7-12.31-5.85-23.16-16.28-34-25 6.21 16.83 7.75 35.75 2 53z"/>
			</g>
			<g fill="#615771">
				<path d="m95 402c0-3.32-0.13-6.68 0-10-0.47 3.26-0.35 6.72 0 10z"/>
			</g>
			<g fill="#b4aeb6">
				<path d="m357 402c0.46-2.14 8.3 8.02 9 9 7.87 9.88 19.96 15.31 32 17-0.09-2.15 1.96-3.3 3-5-8.13 9.61-43.58-19.58-44-21z"/>
			</g>
			<g fill="#aca9b2">
				<path d="m112 426c0.17 1.29 1.7 1.75 2 3 12.63-3.77 26.8-8.28 35-20 1.31-1.88 3.65-4.12 5-6-0.01 0.37-34.12 28.33-42 23z"/>
			</g>
			<g fill="#6b6277">
				<path d="m357 402c0.26 0.86 0.78 1.45 1 2 1.37 0.78 2.34 2.07 4 4 0.93 1.08 2.92 1.96 4 3-0.7-0.98-8.54-11.14-9-9z"/>
			</g>
			<g fill="#686274">
				<path d="m149 409c0.06-2.36 1.97 3.46 2 5 0.63-3.3 2.87-7.13 3-11-1.35 1.88-3.69 4.12-5 6z"/>
			</g>
			<g fill="#483c5b">
				<path d="m358 404c1.17 2.98 1.41 6.86 2 10 0.18-1.81 2.38-3.17 2-6-1.66-1.93-2.63-3.22-4-4z"/>
			</g>
			<g fill="#8e8795">
				<path d="m30 418c1.78 4.82 3.63 9.35 6 14 0.62-4.47 11.34-6.52 13-11v-11c-5.01 0.29-13.7 10.62-19 8z"/>
			</g>
			<g fill="#918591">
				<path d="m463 425c0.3-0.94 1.75-2.43 1-4 4.3 2.3 7.44 10.23 13 7 1.56-3.33 2.71-6.59 4-10-7.08 0.46-12.21-4.92-18-8-0.25 4.98 0.34 10.02 0 15z"/>
			</g>
			<g fill="#cdc4cd">
				<path d="m110 423c-0.92-2.4-2.46-7.82-4-11 1.23 3.74 1.9 7.5 4 11z"/>
			</g>
			<g fill="#847a8b">
				<path d="m408 428c10.27-5.65 31.29 44.58 49 20 0.62-1.12 0.65-1.8 1-3-2.49 2.82-5.42 7.45-10 7 0.07-4.62 1.6-8.8 3-13-2.1 1.46-2.14 6.15-6 5-5.96-9.24-29.14-15.13-31-28-1.12 3.83-3.72 8.32-6 12z"/>
			</g>
			<g fill="#897e8d">
				<path d="m63 443c0.39 1.75 2.43 2.3 4 2 0.18 2.06 2.52 6.27 0 8 13.64-0.97 30.16-21.19 36-21 1.62 1.73 3.85 3.52 6 5-4.52-2.6-9.34-14.6-11-19-1.48 5.34-31.3 27.96-35 25z"/>
			</g>
			<g fill="#aea6a7">
				<path d="m36 432c6.13 11.99 15 23.31 26 32-3.36-3.11-5.99-7.63-10-10 3.44-3.01 1.43-7.31 1-11-1.48-7.39-3.71-14.28-4-22-1.66 4.48-12.38 6.53-13 11z"/>
			</g>
			<g fill="#b4a8aa">
				<path d="m463 425c-0.47 6.85-3.12 13.53-5 20-0.35 1.2-0.38 1.88-1 3-0.88 1.61-2.37 3.22-4 4 2.08 3.25 2.28 6.26-1 9 10.43-8.91 19.3-20.82 25-33-5.56 3.23-8.7-4.7-13-7 0.75 1.57-0.7 3.06-1 4z"/>
			</g>
			<g fill="#b0adb4">
				<path d="m274 486h17c-0.04 0 0-1 0-1-4.84-0.6-10.91 1.24-15-1 16.84-6.84 35.68-23.57 37-43 0.3-4.36-1-9.75 2-13-0.48 2.83 1.74 4.81 3 7 0.22 0.36 0 1 0 1 6.72 8.79 24.97 34.54 35 19-15.66 5.16-31.46-18.97-39-32-0.77 24.55-17.78 47.07-40 59 1.68 0.69 2.05 3.09 0 4z"/>
			</g>
			<g fill="#716c7a">
				<path d="m361 433c0.54-3.3 0.32-6.72 0-10 0 3.32 0.18 6.69 0 10z"/>
			</g>
			<g fill="#9c939d">
				<path d="m109 437c-2.15-1.48-4.38-3.27-6-5-5.84-0.19-22.36 20.03-36 21-7.9 0.56-11.26-3.34-14-10 0.43 3.69 2.44 7.99-1 11 4.01 2.37 6.64 6.89 10 10 6.32 4.54 12.66 9.52 20 12-0.64-1.33 0.67-2.26 1-3-0.79-9.67 8.22-22.27 13-30 1.21-1.96 3.03-3.89 5-5-1.62 28.67 25.39 24.32 41 11-13.88 36.32 38.47 50.95 53 20 2.89 9.53 13 18.82 24 16-11.33-8.12-21.48-19.89-26-33-22.16 32.8-56.15 5.92-51-27-9.15 4.13-22.33 16.21-33 12z"/>
			</g>
			<g fill="#8f8b96">
				<path d="m191 435c-0.1 0.55 0.45 2.51 0 4 0.76-1.11 1.36-1.67 2-3 1.18-2.46 2.38-4.82 4-7 2.08 2.1 0.5 6.15 1 9 0.11 1.31 0.8 2.2 1 3-0.03-1.33 0-2.67 0-4v-12c-4.64 0.78-5.82 6.79-8 10z"/>
			</g>
			<g fill="#a096a0">
				<path d="m291 485s-0.04 1 0 1c5.85 0 11.46 3.9279 17 3.4879 5.76-3.01 6.63-15.828 10-20.488 3.23 7.52 11.93 10.28 17 16l0.85975 4.2074c1.9542 9.5634 45.753-8.4764 38.14-25.207-0.33-4.93-1.22-8.71-1-14 14.06 7.95 28.42 18.33 36 32 1.72-0.41 3.35-0.52 5-1 9.57-7.37-3.22-33.95 0-42 4.54 12.33 15.21 22.22 16 36 7.81-3.45 15.2-8.19 22-14 3.28-2.74 3.08-5.75 1-9 1.63-0.78 3.12-2.39 4-4-17.71 24.58-38.73-25.65-49-20-7.32 18.37-26.74 4.75-38-2 4.78 33.26-29.34 60.58-51 26-4.73 12.88-15.35 26.23-28 33z"/>
			</g>
			<g fill="#7f768c">
				<path d="m313 441c0.28-1.13 0.86-2.31 1-4 0.16-1.99-0.12-4.01 0-6 1.35 1.04 2.01 3.49 4 4-1.26-2.19-3.48-4.17-3-7-3 3.25-1.7 8.64-2 13z"/>
			</g>
			<g fill="#6b647e">
				<path d="m193 436c2.26-0.43 1.78-3.51 4-4-0.77 2.15 0.64 4.5 1 6-0.5-2.85 1.08-6.9-1-9-1.62 2.18-2.82 4.54-4 7z"/>
			</g>
			<g fill="#574c69">
				<path d="m314 437c1.47-0.27 0.89-2 1-3 0.91 0.53 2.23 1.22 3 2 0 0 0.22-0.64 0-1-1.99-0.51-2.65-2.96-4-4-0.12 1.99 0.16 4.01 0 6z"/>
			</g>
			<g fill="#b4b2b9">
				<path d="m158 452c10.65 17.2 25.06-1.42 33-13 0.45-1.49-0.1-3.45 0-4-6.71 9.89-22.84 29.49-33 17z"/>
			</g>
			<g fill="#b3aeb4">
				<path d="m199 441c0.32 16.46 21.01 40.04 37 44 2.66 0 5.34 0.05 8 0-18.17-5.55-41.55-28.76-45-48 0 1.33-0.03 2.67 0 4z"/>
			</g>
			<g fill="#bcb5b3">
				<path d="m96 443c0.89-1.14 2.92-2.11 4-3-4.02 12.71-6.9 27.75-4 41 36.95 9.37 85.61 7.72 124 4h-1c-11 2.82-21.11-6.47-24-16-14.53 30.95-66.88 16.32-53-20-15.61 13.32-42.62 17.67-41-11-1.97 1.11-3.79 3.04-5 5z"/>
			</g>
			<g fill="#ede9da">
				<path d="m414 481c5.55-1.62 10.95-3.77 16-6-0.79-13.78-11.46-23.67-16-36-3.22 8.05 9.57 34.63 0 42z"/>
			</g>
			<g fill="#edebdb">
				<path d="m96 443c-4.78 7.73-13.79 20.33-13 30 0.6 7.27 8.38 6.83 13 8-2.9-13.25-0.02-28.29 4-41-1.08 0.89-3.11 1.86-4 3z"/>
			</g>
			<g fill="#beb7b5">
				<path d="m336 485c8.8 6.51 15.733 6.7422 37 6.6525 13.504-0.0569 32.209-5.7186 42.019-8.0686-7.58-13.67-27.959-25.634-42.019-33.584-0.22 5.29 0.67 9.07 1 14-5.15 16.17-16.3 21-38 21z"/>
			</g>
		</g>
		<path x="16.043379" y="17.223415" width="480" height="480" d="m119.3 17.223h274.36a102.39 102.39 45 0 1 102.39 102.39v262.93a114.68 114.68 135 0 1-114.68 114.68h-256.02a109.3 109.3 45 0 1-109.3-109.3v-267.45a103.25 103.25 135 0 1 103.25-103.25z" fill="none" stroke="#f3f3f2" stroke-width="23.88" style="font-variation-settings:'wght' 700"/>
	</g>
</svg>
