<svg aria-roledescription="er" role="graphics-document document" viewBox="0 -61.5 841.7337646484375 980.394287109375" style="max-width: 841.7337646484375px;" xmlns="http://www.w3.org/2000/svg" width="100%" id="export-svg"><style>@import url("https://cdnjs.cloudflare.com/ajax/libs/font-awesome/6.2.0/css/all.min.css"); p {margin: 0;}</style><style>#export-svg{font-family:"trebuchet ms",verdana,arial,sans-serif;font-size:10px;fill:#333;}#export-svg .error-icon{fill:#ffffff;}#export-svg .error-text{fill:#000000;stroke:#000000;}#export-svg .edge-thickness-normal{stroke-width:1px;}#export-svg .edge-thickness-thick{stroke-width:3.5px;}#export-svg .edge-pattern-solid{stroke-dasharray:0;}#export-svg .edge-thickness-invisible{stroke-width:0;fill:none;}#export-svg .edge-pattern-dashed{stroke-dasharray:3;}#export-svg .edge-pattern-dotted{stroke-dasharray:2;}#export-svg .marker{fill:#000000;stroke:#000000;}#export-svg .marker.cross{stroke:#000000;}#export-svg svg{font-family:"trebuchet ms",verdana,arial,sans-serif;font-size:10px;}#export-svg .entityBox{fill:#ffffff;stroke:#000000;}#export-svg .attributeBoxOdd{fill:#ffffff;stroke:#000000;}#export-svg .attributeBoxEven{fill:#f2f2f2;stroke:#000000;}#export-svg .relationshipLabelBox{fill:#ffffff;opacity:0.7;background-color:#ffffff;}#export-svg .relationshipLabelBox rect{opacity:0.5;}#export-svg .relationshipLine{stroke:#000000;}#export-svg .entityTitleText{text-anchor:middle;font-size:18px;fill:#333;}#export-svg #MD_PARENT_START{fill:#f5f5f5!important;stroke:#000000!important;stroke-width:1;}#export-svg #MD_PARENT_END{fill:#f5f5f5!important;stroke:#000000!important;stroke-width:1;}#export-svg .node .neo-node{stroke:#000000;}#export-svg [data-look="neo"].node rect,#export-svg [data-look="neo"].cluster rect,#export-svg [data-look="neo"].node polygon{stroke:url(#export-svg-gradient);filter:drop-shadow( 0px 1px 2px rgba(0, 0, 0, 0.25));}#export-svg [data-look="neo"].node rect,#export-svg [data-look="neo"].node polygon,#export-svg [data-look="neo"].node path{stroke:url(#export-svg-gradient);filter:drop-shadow( 0px 1px 2px rgba(0, 0, 0, 0.25));}#export-svg [data-look="neo"].node .neo-line path{stroke:hsl(0, 0%, 70%);filter:none;}#export-svg [data-look="neo"].node circle{stroke:url(#export-svg-gradient);filter:drop-shadow( 0px 1px 2px rgba(0, 0, 0, 0.25));}#export-svg [data-look="neo"].node circle .state-start{fill:#000000;}#export-svg [data-look="neo"].statediagram-cluster rect{fill:#ffffff;stroke:url(#export-svg-gradient);stroke-width:1px;}#export-svg :root{--mermaid-font-family:"trebuchet ms",verdana,arial,sans-serif;}</style><g></g><defs><marker orient="auto" markerHeight="240" markerWidth="190" refY="7" refX="0" id="MD_PARENT_START"><path d="M 18,7 L9,13 L1,7 L9,1 Z"></path></marker></defs><defs><marker orient="auto" markerHeight="28" markerWidth="20" refY="7" refX="19" id="MD_PARENT_END"><path d="M 18,7 L9,13 L1,7 L9,1 Z"></path></marker></defs><defs><marker orient="auto" markerHeight="18" markerWidth="18" refY="9" refX="0" id="ONLY_ONE_START"><path d="M9,0 L9,18 M15,0 L15,18" fill="none" stroke="gray"></path></marker></defs><defs><marker orient="auto" markerHeight="18" markerWidth="18" refY="9" refX="18" id="ONLY_ONE_END"><path d="M3,0 L3,18 M9,0 L9,18" fill="none" stroke="gray"></path></marker></defs><defs><marker orient="auto" markerHeight="18" markerWidth="30" refY="9" refX="0" id="ZERO_OR_ONE_START"><circle r="6" cy="9" cx="21" fill="white" stroke="gray"></circle><path d="M9,0 L9,18" fill="none" stroke="gray"></path></marker></defs><defs><marker orient="auto" markerHeight="18" markerWidth="30" refY="9" refX="30" id="ZERO_OR_ONE_END"><circle r="6" cy="9" cx="9" fill="white" stroke="gray"></circle><path d="M21,0 L21,18" fill="none" stroke="gray"></path></marker></defs><defs><marker orient="auto" markerHeight="36" markerWidth="45" refY="18" refX="18" id="ONE_OR_MORE_START"><path d="M0,18 Q 18,0 36,18 Q 18,36 0,18 M42,9 L42,27" fill="none" stroke="gray"></path></marker></defs><defs><marker orient="auto" markerHeight="36" markerWidth="45" refY="18" refX="27" id="ONE_OR_MORE_END"><path d="M3,9 L3,27 M9,18 Q27,0 45,18 Q27,36 9,18" fill="none" stroke="gray"></path></marker></defs><defs><marker orient="auto" markerHeight="36" markerWidth="57" refY="18" refX="18" id="ZERO_OR_MORE_START"><circle r="6" cy="18" cx="48" fill="white" stroke="gray"></circle><path d="M0,18 Q18,0 36,18 Q18,36 0,18" fill="none" stroke="gray"></path></marker></defs><defs><marker orient="auto" markerHeight="36" markerWidth="57" refY="18" refX="39" id="ZERO_OR_MORE_END"><circle r="6" cy="18" cx="9" fill="white" stroke="gray"></circle><path d="M21,18 Q39,0 57,18 Q39,36 21,18" fill="none" stroke="gray"></path></marker></defs><path marker-start="url(#ONLY_ONE_START)" marker-end="url(#ZERO_OR_MORE_END)" style="stroke: gray; fill: none;" d="M525.375,106.674L529.839,115.007C534.303,123.34,543.231,140.007,547.695,161.972C552.16,183.938,552.16,211.202,552.16,224.835L552.16,238.467" class="er relationshipLine"></path><path marker-start="url(#ONLY_ONE_START)" marker-end="url(#ZERO_OR_MORE_END)" style="stroke: gray; fill: none;" d="M206.735,106.674L217.378,115.007C228.02,123.34,249.305,140.007,268.69,165.485C288.076,190.962,305.563,225.251,314.306,242.396L323.049,259.54" class="er relationshipLine"></path><path marker-start="url(#ONLY_ONE_START)" marker-end="url(#ZERO_OR_MORE_END)" style="stroke: gray; fill: none;" d="M452.857,106.674L443.377,115.007C433.896,123.34,414.935,140.007,398.355,165.485C381.776,190.962,367.578,225.251,360.479,242.396L353.38,259.54" class="er relationshipLine"></path><path marker-start="url(#ONLY_ONE_START)" marker-end="url(#ZERO_OR_MORE_END)" style="stroke: gray; fill: none;" d="M128.175,106.674L123.711,115.007C119.247,123.34,110.319,140.007,105.854,156.674C101.39,173.34,101.39,190.007,101.39,198.34L101.39,206.674" class="er relationshipLine"></path><path marker-start="url(#ONLY_ONE_START)" marker-end="url(#ZERO_OR_MORE_END)" style="stroke: gray; fill: none;" d="M101.39,378.053L101.39,386.386C101.39,394.72,101.39,411.386,127.175,435.221C152.96,459.056,204.53,490.058,230.314,505.56L256.099,521.061" class="er relationshipLine"></path><path marker-start="url(#ONLY_ONE_START)" marker-end="url(#ZERO_OR_MORE_END)" style="stroke: gray; fill: none;" d="M552.16,346.26L552.16,359.892C552.16,373.524,552.16,400.789,526.375,429.922C500.59,459.056,449.02,490.058,423.236,505.56L397.451,521.061" class="er relationshipLine"></path><path marker-start="url(#ONLY_ONE_START)" marker-end="url(#ZERO_OR_MORE_END)" style="stroke: gray; fill: none;" d="M768.367,96.16L768.367,106.246C768.367,116.331,768.367,136.502,768.367,161.97C768.367,187.438,768.367,218.202,768.367,233.585L768.367,248.967" class="er relationshipLine"></path><path marker-start="url(#ONLY_ONE_START)" marker-end="url(#ZERO_OR_MORE_END)" style="stroke: gray; fill: none;" d="M326.775,649.047L326.775,657.38C326.775,665.714,326.775,682.38,326.775,699.047C326.775,715.714,326.775,732.38,326.775,740.714L326.775,749.047" class="er relationshipLine"></path><g transform="translate(428.47596740722656,20 )" id="entity-HOSTGROUPLINK-58cb7f14-31c7-5462-a7aa-2b7f91bcb732"><rect height="86.67363452911377" width="147.3671875" y="0" x="0" class="er entityBox"></rect><text transform="translate(73.68359375,11.75)" style="dominant-baseline: middle; text-anchor: middle; font-size: 12px;" y="0" x="0" id="text-entity-HOSTGROUPLINK-58cb7f14-31c7-5462-a7aa-2b7f91bcb732" class="er entityLabel">HOST_GROUP_LINK</text><rect height="21" width="63.4765625" y="23.5" x="0" class="er attributeBoxOdd"></rect><text transform="translate(5,34)" style="dominant-baseline: middle; font-size: 10.2px;" y="0" x="0" id="text-entity-HOSTGROUPLINK-58cb7f14-31c7-5462-a7aa-2b7f91bcb732-attr-1-type" class="er entityLabel">uuid</text><rect height="21" width="83.890625" y="23.5" x="63.4765625" class="er attributeBoxOdd"></rect><text transform="translate(68.4765625,34)" style="dominant-baseline: middle; font-size: 10.2px;" y="0" x="0" id="text-entity-HOSTGROUPLINK-58cb7f14-31c7-5462-a7aa-2b7f91bcb732-attr-1-name" class="er entityLabel">id</text><rect height="21.02705192565918" width="63.4765625" y="44.5" x="0" class="er attributeBoxEven"></rect><text transform="translate(5,55.01352596282959)" style="dominant-baseline: middle; font-size: 10.2px;" y="0" x="0" id="text-entity-HOSTGROUPLINK-58cb7f14-31c7-5462-a7aa-2b7f91bcb732-attr-2-type" class="er entityLabel">uuid</text><rect height="21.02705192565918" width="83.890625" y="44.5" x="63.4765625" class="er attributeBoxEven"></rect><text transform="translate(68.4765625,55.01352596282959)" style="dominant-baseline: middle; font-size: 10.2px;" y="0" x="0" id="text-entity-HOSTGROUPLINK-58cb7f14-31c7-5462-a7aa-2b7f91bcb732-attr-2-name" class="er entityLabel">host_id</text><rect height="21.14658260345459" width="63.4765625" y="65.52705192565918" x="0" class="er attributeBoxOdd"></rect><text transform="translate(5,76.10034322738647)" style="dominant-baseline: middle; font-size: 10.2px;" y="0" x="0" id="text-entity-HOSTGROUPLINK-58cb7f14-31c7-5462-a7aa-2b7f91bcb732-attr-3-type" class="er entityLabel">uuid</text><rect height="21.14658260345459" width="83.890625" y="65.52705192565918" x="63.4765625" class="er attributeBoxOdd"></rect><text transform="translate(68.4765625,76.10034322738647)" style="dominant-baseline: middle; font-size: 10.2px;" y="0" x="0" id="text-entity-HOSTGROUPLINK-58cb7f14-31c7-5462-a7aa-2b7f91bcb732-attr-3-name" class="er entityLabel">group_id</text></g><g transform="translate(496.79627990722656,238.46680450439453 )" id="entity-HOST-0cf03867-4a66-580e-bab1-73746b546ab5"><rect height="107.79316520690918" width="110.7265625" y="0" x="0" class="er entityBox"></rect><text transform="translate(55.36328125,11.75)" style="dominant-baseline: middle; text-anchor: middle; font-size: 12px;" y="0" x="0" id="text-entity-HOST-0cf03867-4a66-580e-bab1-73746b546ab5" class="er entityLabel">HOST</text><rect height="21" width="55.9296875" y="23.5" x="0" class="er attributeBoxOdd"></rect><text transform="translate(5,34)" style="dominant-baseline: middle; font-size: 10.2px;" y="0" x="0" id="text-entity-HOST-0cf03867-4a66-580e-bab1-73746b546ab5-attr-1-type" class="er entityLabel">uuid</text><rect height="21" width="54.796875" y="23.5" x="55.9296875" class="er attributeBoxOdd"></rect><text transform="translate(60.9296875,34)" style="dominant-baseline: middle; font-size: 10.2px;" y="0" x="0" id="text-entity-HOST-0cf03867-4a66-580e-bab1-73746b546ab5-attr-1-name" class="er entityLabel">id</text><rect height="21.14658260345459" width="55.9296875" y="44.5" x="0" class="er attributeBoxEven"></rect><text transform="translate(5,55.073291301727295)" style="dominant-baseline: middle; font-size: 10.2px;" y="0" x="0" id="text-entity-HOST-0cf03867-4a66-580e-bab1-73746b546ab5-attr-2-type" class="er entityLabel">string</text><rect height="21.14658260345459" width="54.796875" y="44.5" x="55.9296875" class="er attributeBoxEven"></rect><text transform="translate(60.9296875,55.073291301727295)" style="dominant-baseline: middle; font-size: 10.2px;" y="0" x="0" id="text-entity-HOST-0cf03867-4a66-580e-bab1-73746b546ab5-attr-2-name" class="er entityLabel">name</text><rect height="21.14658260345459" width="55.9296875" y="65.64658260345459" x="0" class="er attributeBoxOdd"></rect><text transform="translate(5,76.21987390518188)" style="dominant-baseline: middle; font-size: 10.2px;" y="0" x="0" id="text-entity-HOST-0cf03867-4a66-580e-bab1-73746b546ab5-attr-3-type" class="er entityLabel">string</text><rect height="21.14658260345459" width="54.796875" y="65.64658260345459" x="55.9296875" class="er attributeBoxOdd"></rect><text transform="translate(60.9296875,76.21987390518188)" style="dominant-baseline: middle; font-size: 10.2px;" y="0" x="0" id="text-entity-HOST-0cf03867-4a66-580e-bab1-73746b546ab5-attr-3-name" class="er entityLabel">hostname</text><rect height="21" width="55.9296875" y="86.79316520690918" x="0" class="er attributeBoxEven"></rect><text transform="translate(5,97.29316520690918)" style="dominant-baseline: middle; font-size: 10.2px;" y="0" x="0" id="text-entity-HOST-0cf03867-4a66-580e-bab1-73746b546ab5-attr-4-type" class="er entityLabel">hostcheck</text><rect height="21" width="54.796875" y="86.79316520690918" x="55.9296875" class="er attributeBoxEven"></rect><text transform="translate(60.9296875,97.29316520690918)" style="dominant-baseline: middle; font-size: 10.2px;" y="0" x="0" id="text-entity-HOST-0cf03867-4a66-580e-bab1-73746b546ab5-attr-4-name" class="er entityLabel">check</text></g><g transform="translate(68.14032745361328,20 )" id="entity-SERVICEGROUPLINK-f954307e-0bf9-5912-bf3c-7b94dfa342e0"><rect height="86.67363452911377" width="166.5" y="0" x="0" class="er entityBox"></rect><text transform="translate(83.25,11.75)" style="dominant-baseline: middle; text-anchor: middle; font-size: 12px;" y="0" x="0" id="text-entity-SERVICEGROUPLINK-f954307e-0bf9-5912-bf3c-7b94dfa342e0" class="er entityLabel">SERVICE_GROUP_LINK</text><rect height="21" width="69.93359375" y="23.5" x="0" class="er attributeBoxOdd"></rect><text transform="translate(5,34)" style="dominant-baseline: middle; font-size: 10.2px;" y="0" x="0" id="text-entity-SERVICEGROUPLINK-f954307e-0bf9-5912-bf3c-7b94dfa342e0-attr-1-type" class="er entityLabel">uuid</text><rect height="21" width="96.56640625" y="23.5" x="69.93359375" class="er attributeBoxOdd"></rect><text transform="translate(74.93359375,34)" style="dominant-baseline: middle; font-size: 10.2px;" y="0" x="0" id="text-entity-SERVICEGROUPLINK-f954307e-0bf9-5912-bf3c-7b94dfa342e0-attr-1-name" class="er entityLabel">id</text><rect height="21.02705192565918" width="69.93359375" y="44.5" x="0" class="er attributeBoxEven"></rect><text transform="translate(5,55.01352596282959)" style="dominant-baseline: middle; font-size: 10.2px;" y="0" x="0" id="text-entity-SERVICEGROUPLINK-f954307e-0bf9-5912-bf3c-7b94dfa342e0-attr-2-type" class="er entityLabel">uuid</text><rect height="21.02705192565918" width="96.56640625" y="44.5" x="69.93359375" class="er attributeBoxEven"></rect><text transform="translate(74.93359375,55.01352596282959)" style="dominant-baseline: middle; font-size: 10.2px;" y="0" x="0" id="text-entity-SERVICEGROUPLINK-f954307e-0bf9-5912-bf3c-7b94dfa342e0-attr-2-name" class="er entityLabel">service_id</text><rect height="21.14658260345459" width="69.93359375" y="65.52705192565918" x="0" class="er attributeBoxOdd"></rect><text transform="translate(5,76.10034322738647)" style="dominant-baseline: middle; font-size: 10.2px;" y="0" x="0" id="text-entity-SERVICEGROUPLINK-f954307e-0bf9-5912-bf3c-7b94dfa342e0-attr-3-type" class="er entityLabel">uuid</text><rect height="21.14658260345459" width="96.56640625" y="65.52705192565918" x="69.93359375" class="er attributeBoxOdd"></rect><text transform="translate(74.93359375,76.10034322738647)" style="dominant-baseline: middle; font-size: 10.2px;" y="0" x="0" id="text-entity-SERVICEGROUPLINK-f954307e-0bf9-5912-bf3c-7b94dfa342e0-attr-3-name" class="er entityLabel">group_id</text></g><g transform="translate(282.78065490722656,259.540096282959 )" id="entity-HOSTGROUP-72fda182-0016-5d57-91eb-ce3daa0e2af3"><rect height="65.64658260345459" width="114.015625" y="0" x="0" class="er entityBox"></rect><text transform="translate(57.0078125,11.75)" style="dominant-baseline: middle; text-anchor: middle; font-size: 12px;" y="0" x="0" id="text-entity-HOSTGROUP-72fda182-0016-5d57-91eb-ce3daa0e2af3" class="er entityLabel">HOST_GROUP</text><rect height="21" width="56.72265625" y="23.5" x="0" class="er attributeBoxOdd"></rect><text transform="translate(5,34)" style="dominant-baseline: middle; font-size: 10.2px;" y="0" x="0" id="text-entity-HOSTGROUP-72fda182-0016-5d57-91eb-ce3daa0e2af3-attr-1-type" class="er entityLabel">uuid</text><rect height="21" width="57.29296875" y="23.5" x="56.72265625" class="er attributeBoxOdd"></rect><text transform="translate(61.72265625,34)" style="dominant-baseline: middle; font-size: 10.2px;" y="0" x="0" id="text-entity-HOSTGROUP-72fda182-0016-5d57-91eb-ce3daa0e2af3-attr-1-name" class="er entityLabel">id</text><rect height="21.14658260345459" width="56.72265625" y="44.5" x="0" class="er attributeBoxEven"></rect><text transform="translate(5,55.073291301727295)" style="dominant-baseline: middle; font-size: 10.2px;" y="0" x="0" id="text-entity-HOSTGROUP-72fda182-0016-5d57-91eb-ce3daa0e2af3-attr-2-type" class="er entityLabel">string</text><rect height="21.14658260345459" width="57.29296875" y="44.5" x="56.72265625" class="er attributeBoxEven"></rect><text transform="translate(61.72265625,55.073291301727295)" style="dominant-baseline: middle; font-size: 10.2px;" y="0" x="0" id="text-entity-HOSTGROUP-72fda182-0016-5d57-91eb-ce3daa0e2af3-attr-2-name" class="er entityLabel">name</text></g><g transform="translate(20,206.67363739013672 )" id="entity-SERVICE-9e7e25d4-6c7d-5936-bea4-5c3379ed66bc"><rect height="171.37949562072754" width="162.7806625366211" y="0" x="0" class="er entityBox"></rect><text transform="translate(81.39033126831055,11.75)" style="dominant-baseline: middle; text-anchor: middle; font-size: 12px;" y="0" x="0" id="text-entity-SERVICE-9e7e25d4-6c7d-5936-bea4-5c3379ed66bc" class="er entityLabel">SERVICE</text><rect height="21" width="86.4291000366211" y="23.5" x="0" class="er attributeBoxOdd"></rect><text transform="translate(5,34)" style="dominant-baseline: middle; font-size: 10.2px;" y="0" x="0" id="text-entity-SERVICE-9e7e25d4-6c7d-5936-bea4-5c3379ed66bc-attr-1-type" class="er entityLabel">uuid</text><rect height="21" width="76.3515625" y="23.5" x="86.4291000366211" class="er attributeBoxOdd"></rect><text transform="translate(91.4291000366211,34)" style="dominant-baseline: middle; font-size: 10.2px;" y="0" x="0" id="text-entity-SERVICE-9e7e25d4-6c7d-5936-bea4-5c3379ed66bc-attr-1-name" class="er entityLabel">id</text><rect height="21.14658260345459" width="86.4291000366211" y="44.5" x="0" class="er attributeBoxEven"></rect><text transform="translate(5,55.073291301727295)" style="dominant-baseline: middle; font-size: 10.2px;" y="0" x="0" id="text-entity-SERVICE-9e7e25d4-6c7d-5936-bea4-5c3379ed66bc-attr-2-type" class="er entityLabel">string</text><rect height="21.14658260345459" width="76.3515625" y="44.5" x="86.4291000366211" class="er attributeBoxEven"></rect><text transform="translate(91.4291000366211,55.073291301727295)" style="dominant-baseline: middle; font-size: 10.2px;" y="0" x="0" id="text-entity-SERVICE-9e7e25d4-6c7d-5936-bea4-5c3379ed66bc-attr-2-name" class="er entityLabel">name</text><rect height="21.14658260345459" width="86.4291000366211" y="65.64658260345459" x="0" class="er attributeBoxOdd"></rect><text transform="translate(5,76.21987390518188)" style="dominant-baseline: middle; font-size: 10.2px;" y="0" x="0" id="text-entity-SERVICE-9e7e25d4-6c7d-5936-bea4-5c3379ed66bc-attr-3-type" class="er entityLabel">string</text><rect height="21.14658260345459" width="76.3515625" y="65.64658260345459" x="86.4291000366211" class="er attributeBoxOdd"></rect><text transform="translate(91.4291000366211,76.21987390518188)" style="dominant-baseline: middle; font-size: 10.2px;" y="0" x="0" id="text-entity-SERVICE-9e7e25d4-6c7d-5936-bea4-5c3379ed66bc-attr-3-name" class="er entityLabel">description</text><rect height="21.14658260345459" width="86.4291000366211" y="86.79316520690918" x="0" class="er attributeBoxEven"></rect><text transform="translate(5,97.36645650863647)" style="dominant-baseline: middle; font-size: 10.2px;" y="0" x="0" id="text-entity-SERVICE-9e7e25d4-6c7d-5936-bea4-5c3379ed66bc-attr-4-type" class="er entityLabel">json(Vec(String))</text><rect height="21.14658260345459" width="76.3515625" y="86.79316520690918" x="86.4291000366211" class="er attributeBoxEven"></rect><text transform="translate(91.4291000366211,97.36645650863647)" style="dominant-baseline: middle; font-size: 10.2px;" y="0" x="0" id="text-entity-SERVICE-9e7e25d4-6c7d-5936-bea4-5c3379ed66bc-attr-4-name" class="er entityLabel">host_groups</text><rect height="21.14658260345459" width="86.4291000366211" y="107.93974781036377" x="0" class="er attributeBoxOdd"></rect><text transform="translate(5,118.51303911209106)" style="dominant-baseline: middle; font-size: 10.2px;" y="0" x="0" id="text-entity-SERVICE-9e7e25d4-6c7d-5936-bea4-5c3379ed66bc-attr-5-type" class="er entityLabel">servicetype</text><rect height="21.14658260345459" width="76.3515625" y="107.93974781036377" x="86.4291000366211" class="er attributeBoxOdd"></rect><text transform="translate(91.4291000366211,118.51303911209106)" style="dominant-baseline: middle; font-size: 10.2px;" y="0" x="0" id="text-entity-SERVICE-9e7e25d4-6c7d-5936-bea4-5c3379ed66bc-attr-5-name" class="er entityLabel">service_type</text><rect height="21.14658260345459" width="86.4291000366211" y="129.08633041381836" x="0" class="er attributeBoxEven"></rect><text transform="translate(5,139.65962171554565)" style="dominant-baseline: middle; font-size: 10.2px;" y="0" x="0" id="text-entity-SERVICE-9e7e25d4-6c7d-5936-bea4-5c3379ed66bc-attr-6-type" class="er entityLabel">string</text><rect height="21.14658260345459" width="76.3515625" y="129.08633041381836" x="86.4291000366211" class="er attributeBoxEven"></rect><text transform="translate(91.4291000366211,139.65962171554565)" style="dominant-baseline: middle; font-size: 10.2px;" y="0" x="0" id="text-entity-SERVICE-9e7e25d4-6c7d-5936-bea4-5c3379ed66bc-attr-6-name" class="er entityLabel">cron_schedule</text><rect height="21.14658260345459" width="86.4291000366211" y="150.23291301727295" x="0" class="er attributeBoxOdd"></rect><text transform="translate(5,160.80620431900024)" style="dominant-baseline: middle; font-size: 10.2px;" y="0" x="0" id="text-entity-SERVICE-9e7e25d4-6c7d-5936-bea4-5c3379ed66bc-attr-7-type" class="er entityLabel">json</text><rect height="21.14658260345459" width="76.3515625" y="150.23291301727295" x="86.4291000366211" class="er attributeBoxOdd"></rect><text transform="translate(91.4291000366211,160.80620431900024)" style="dominant-baseline: middle; font-size: 10.2px;" y="0" x="0" id="text-entity-SERVICE-9e7e25d4-6c7d-5936-bea4-5c3379ed66bc-attr-7-name" class="er entityLabel">extra_config</text></g><g transform="translate(256.0991630554199,478.05313873291016 )" id="entity-SERVICECHECK-eb2f578c-6031-5c61-a064-e68c0ff7619d"><rect height="170.99385166168213" width="141.3515625" y="0" x="0" class="er entityBox"></rect><text transform="translate(70.67578125,11.75)" style="dominant-baseline: middle; text-anchor: middle; font-size: 12px;" y="0" x="0" id="text-entity-SERVICECHECK-eb2f578c-6031-5c61-a064-e68c0ff7619d" class="er entityLabel">SERVICE_CHECK</text><rect height="21" width="72.9296875" y="23.5" x="0" class="er attributeBoxOdd"></rect><text transform="translate(5,34)" style="dominant-baseline: middle; font-size: 10.2px;" y="0" x="0" id="text-entity-SERVICECHECK-eb2f578c-6031-5c61-a064-e68c0ff7619d-attr-1-type" class="er entityLabel">uuid</text><rect height="21" width="68.421875" y="23.5" x="72.9296875" class="er attributeBoxOdd"></rect><text transform="translate(77.9296875,34)" style="dominant-baseline: middle; font-size: 10.2px;" y="0" x="0" id="text-entity-SERVICECHECK-eb2f578c-6031-5c61-a064-e68c0ff7619d-attr-1-name" class="er entityLabel">id</text><rect height="21.02705192565918" width="72.9296875" y="44.5" x="0" class="er attributeBoxEven"></rect><text transform="translate(5,55.01352596282959)" style="dominant-baseline: middle; font-size: 10.2px;" y="0" x="0" id="text-entity-SERVICECHECK-eb2f578c-6031-5c61-a064-e68c0ff7619d-attr-2-type" class="er entityLabel">uuid</text><rect height="21.02705192565918" width="68.421875" y="44.5" x="72.9296875" class="er attributeBoxEven"></rect><text transform="translate(77.9296875,55.01352596282959)" style="dominant-baseline: middle; font-size: 10.2px;" y="0" x="0" id="text-entity-SERVICECHECK-eb2f578c-6031-5c61-a064-e68c0ff7619d-attr-2-name" class="er entityLabel">host_id</text><rect height="21.02705192565918" width="72.9296875" y="65.52705192565918" x="0" class="er attributeBoxOdd"></rect><text transform="translate(5,76.04057788848877)" style="dominant-baseline: middle; font-size: 10.2px;" y="0" x="0" id="text-entity-SERVICECHECK-eb2f578c-6031-5c61-a064-e68c0ff7619d-attr-3-type" class="er entityLabel">uuid</text><rect height="21.02705192565918" width="68.421875" y="65.52705192565918" x="72.9296875" class="er attributeBoxOdd"></rect><text transform="translate(77.9296875,76.04057788848877)" style="dominant-baseline: middle; font-size: 10.2px;" y="0" x="0" id="text-entity-SERVICECHECK-eb2f578c-6031-5c61-a064-e68c0ff7619d-attr-3-name" class="er entityLabel">service_id</text><rect height="21" width="72.9296875" y="86.55410385131836" x="0" class="er attributeBoxEven"></rect><text transform="translate(5,97.05410385131836)" style="dominant-baseline: middle; font-size: 10.2px;" y="0" x="0" id="text-entity-SERVICECHECK-eb2f578c-6031-5c61-a064-e68c0ff7619d-attr-4-type" class="er entityLabel">ServiceStatus</text><rect height="21" width="68.421875" y="86.55410385131836" x="72.9296875" class="er attributeBoxEven"></rect><text transform="translate(77.9296875,97.05410385131836)" style="dominant-baseline: middle; font-size: 10.2px;" y="0" x="0" id="text-entity-SERVICECHECK-eb2f578c-6031-5c61-a064-e68c0ff7619d-attr-4-name" class="er entityLabel">status</text><rect height="21.14658260345459" width="72.9296875" y="107.55410385131836" x="0" class="er attributeBoxOdd"></rect><text transform="translate(5,118.12739515304565)" style="dominant-baseline: middle; font-size: 10.2px;" y="0" x="0" id="text-entity-SERVICECHECK-eb2f578c-6031-5c61-a064-e68c0ff7619d-attr-5-type" class="er entityLabel">datetime(utc)</text><rect height="21.14658260345459" width="68.421875" y="107.55410385131836" x="72.9296875" class="er attributeBoxOdd"></rect><text transform="translate(77.9296875,118.12739515304565)" style="dominant-baseline: middle; font-size: 10.2px;" y="0" x="0" id="text-entity-SERVICECHECK-eb2f578c-6031-5c61-a064-e68c0ff7619d-attr-5-name" class="er entityLabel">last_check</text><rect height="21.14658260345459" width="72.9296875" y="128.70068645477295" x="0" class="er attributeBoxEven"></rect><text transform="translate(5,139.27397775650024)" style="dominant-baseline: middle; font-size: 10.2px;" y="0" x="0" id="text-entity-SERVICECHECK-eb2f578c-6031-5c61-a064-e68c0ff7619d-attr-6-type" class="er entityLabel">datetime(utc)</text><rect height="21.14658260345459" width="68.421875" y="128.70068645477295" x="72.9296875" class="er attributeBoxEven"></rect><text transform="translate(77.9296875,139.27397775650024)" style="dominant-baseline: middle; font-size: 10.2px;" y="0" x="0" id="text-entity-SERVICECHECK-eb2f578c-6031-5c61-a064-e68c0ff7619d-attr-6-name" class="er entityLabel">next_check</text><rect height="21.14658260345459" width="72.9296875" y="149.84726905822754" x="0" class="er attributeBoxOdd"></rect><text transform="translate(5,160.42056035995483)" style="dominant-baseline: middle; font-size: 10.2px;" y="0" x="0" id="text-entity-SERVICECHECK-eb2f578c-6031-5c61-a064-e68c0ff7619d-attr-7-type" class="er entityLabel">datetime(utc)</text><rect height="21.14658260345459" width="68.421875" y="149.84726905822754" x="72.9296875" class="er attributeBoxOdd"></rect><text transform="translate(77.9296875,160.42056035995483)" style="dominant-baseline: middle; font-size: 10.2px;" y="0" x="0" id="text-entity-SERVICECHECK-eb2f578c-6031-5c61-a064-e68c0ff7619d-attr-7-name" class="er entityLabel">last_updated</text></g><g transform="translate(718.3665924072266,30.513526916503906 )" id="entity-USER-6e7e2962-0c6f-577d-a7fd-2ce3a0cfd2c8"><rect height="65.64658260345459" width="100" y="0" x="0" class="er entityBox"></rect><text transform="translate(50,11.75)" style="dominant-baseline: middle; text-anchor: middle; font-size: 12px;" y="0" x="0" id="text-entity-USER-6e7e2962-0c6f-577d-a7fd-2ce3a0cfd2c8" class="er entityLabel">USER</text><rect height="21" width="39.79296875" y="23.5" x="0" class="er attributeBoxOdd"></rect><text transform="translate(5,34)" style="dominant-baseline: middle; font-size: 10.2px;" y="0" x="0" id="text-entity-USER-6e7e2962-0c6f-577d-a7fd-2ce3a0cfd2c8-attr-1-type" class="er entityLabel">uuid</text><rect height="21" width="60.20703125" y="23.5" x="39.79296875" class="er attributeBoxOdd"></rect><text transform="translate(44.79296875,34)" style="dominant-baseline: middle; font-size: 10.2px;" y="0" x="0" id="text-entity-USER-6e7e2962-0c6f-577d-a7fd-2ce3a0cfd2c8-attr-1-name" class="er entityLabel">id</text><rect height="21.14658260345459" width="39.79296875" y="44.5" x="0" class="er attributeBoxEven"></rect><text transform="translate(5,55.073291301727295)" style="dominant-baseline: middle; font-size: 10.2px;" y="0" x="0" id="text-entity-USER-6e7e2962-0c6f-577d-a7fd-2ce3a0cfd2c8-attr-2-type" class="er entityLabel">string</text><rect height="21.14658260345459" width="60.20703125" y="44.5" x="39.79296875" class="er attributeBoxEven"></rect><text transform="translate(44.79296875,55.073291301727295)" style="dominant-baseline: middle; font-size: 10.2px;" y="0" x="0" id="text-entity-USER-6e7e2962-0c6f-577d-a7fd-2ce3a0cfd2c8-attr-2-name" class="er entityLabel">username</text></g><g transform="translate(714.9994049072266,248.96680450439453 )" id="entity-SESSION-8f2b9dc0-ba92-59b4-9121-ff71fe9aae8d"><rect height="86.79316520690918" width="106.734375" y="0" x="0" class="er entityBox"></rect><text transform="translate(53.3671875,11.75)" style="dominant-baseline: middle; text-anchor: middle; font-size: 12px;" y="0" x="0" id="text-entity-SESSION-8f2b9dc0-ba92-59b4-9121-ff71fe9aae8d" class="er entityLabel">SESSION</text><rect height="21" width="69.5234375" y="23.5" x="0" class="er attributeBoxOdd"></rect><text transform="translate(5,34)" style="dominant-baseline: middle; font-size: 10.2px;" y="0" x="0" id="text-entity-SESSION-8f2b9dc0-ba92-59b4-9121-ff71fe9aae8d-attr-1-type" class="er entityLabel">uuid</text><rect height="21" width="37.2109375" y="23.5" x="69.5234375" class="er attributeBoxOdd"></rect><text transform="translate(74.5234375,34)" style="dominant-baseline: middle; font-size: 10.2px;" y="0" x="0" id="text-entity-SESSION-8f2b9dc0-ba92-59b4-9121-ff71fe9aae8d-attr-1-name" class="er entityLabel">id</text><rect height="21.14658260345459" width="69.5234375" y="44.5" x="0" class="er attributeBoxEven"></rect><text transform="translate(5,55.073291301727295)" style="dominant-baseline: middle; font-size: 10.2px;" y="0" x="0" id="text-entity-SESSION-8f2b9dc0-ba92-59b4-9121-ff71fe9aae8d-attr-2-type" class="er entityLabel">datetime(utc)</text><rect height="21.14658260345459" width="37.2109375" y="44.5" x="69.5234375" class="er attributeBoxEven"></rect><text transform="translate(74.5234375,55.073291301727295)" style="dominant-baseline: middle; font-size: 10.2px;" y="0" x="0" id="text-entity-SESSION-8f2b9dc0-ba92-59b4-9121-ff71fe9aae8d-attr-2-name" class="er entityLabel">expiry</text><rect height="21.14658260345459" width="69.5234375" y="65.64658260345459" x="0" class="er attributeBoxOdd"></rect><text transform="translate(5,76.21987390518188)" style="dominant-baseline: middle; font-size: 10.2px;" y="0" x="0" id="text-entity-SESSION-8f2b9dc0-ba92-59b4-9121-ff71fe9aae8d-attr-3-type" class="er entityLabel">json</text><rect height="21.14658260345459" width="37.2109375" y="65.64658260345459" x="69.5234375" class="er attributeBoxOdd"></rect><text transform="translate(74.5234375,76.21987390518188)" style="dominant-baseline: middle; font-size: 10.2px;" y="0" x="0" id="text-entity-SESSION-8f2b9dc0-ba92-59b4-9121-ff71fe9aae8d-attr-3-name" class="er entityLabel">data</text></g><g transform="translate(231.41166305541992,749.046989440918 )" id="entity-SERVICECHECKHISTORY-842eb50b-7ba7-5aff-b1f4-b1ba10cae72c"><rect height="149.84726905822754" width="190.7265625" y="0" x="0" class="er entityBox"></rect><text transform="translate(95.36328125,11.75)" style="dominant-baseline: middle; text-anchor: middle; font-size: 12px;" y="0" x="0" id="text-entity-SERVICECHECKHISTORY-842eb50b-7ba7-5aff-b1f4-b1ba10cae72c" class="er entityLabel">SERVICE_CHECK_HISTORY</text><rect height="21" width="88.359375" y="23.5" x="0" class="er attributeBoxOdd"></rect><text transform="translate(5,34)" style="dominant-baseline: middle; font-size: 10.2px;" y="0" x="0" id="text-entity-SERVICECHECKHISTORY-842eb50b-7ba7-5aff-b1f4-b1ba10cae72c-attr-1-type" class="er entityLabel">Uuid</text><rect height="21" width="102.3671875" y="23.5" x="88.359375" class="er attributeBoxOdd"></rect><text transform="translate(93.359375,34)" style="dominant-baseline: middle; font-size: 10.2px;" y="0" x="0" id="text-entity-SERVICECHECKHISTORY-842eb50b-7ba7-5aff-b1f4-b1ba10cae72c-attr-1-name" class="er entityLabel">id</text><rect height="21.14658260345459" width="88.359375" y="44.5" x="0" class="er attributeBoxEven"></rect><text transform="translate(5,55.073291301727295)" style="dominant-baseline: middle; font-size: 10.2px;" y="0" x="0" id="text-entity-SERVICECHECKHISTORY-842eb50b-7ba7-5aff-b1f4-b1ba10cae72c-attr-2-type" class="er entityLabel">DateTime(utc)</text><rect height="21.14658260345459" width="102.3671875" y="44.5" x="88.359375" class="er attributeBoxEven"></rect><text transform="translate(93.359375,55.073291301727295)" style="dominant-baseline: middle; font-size: 10.2px;" y="0" x="0" id="text-entity-SERVICECHECKHISTORY-842eb50b-7ba7-5aff-b1f4-b1ba10cae72c-attr-2-name" class="er entityLabel">timestamp</text><rect height="21.02705192565918" width="88.359375" y="65.64658260345459" x="0" class="er attributeBoxOdd"></rect><text transform="translate(5,76.16010856628418)" style="dominant-baseline: middle; font-size: 10.2px;" y="0" x="0" id="text-entity-SERVICECHECKHISTORY-842eb50b-7ba7-5aff-b1f4-b1ba10cae72c-attr-3-type" class="er entityLabel">Uuid</text><rect height="21.02705192565918" width="102.3671875" y="65.64658260345459" x="88.359375" class="er attributeBoxOdd"></rect><text transform="translate(93.359375,76.16010856628418)" style="dominant-baseline: middle; font-size: 10.2px;" y="0" x="0" id="text-entity-SERVICECHECKHISTORY-842eb50b-7ba7-5aff-b1f4-b1ba10cae72c-attr-3-name" class="er entityLabel">service_check_id</text><rect height="21" width="88.359375" y="86.67363452911377" x="0" class="er attributeBoxEven"></rect><text transform="translate(5,97.17363452911377)" style="dominant-baseline: middle; font-size: 10.2px;" y="0" x="0" id="text-entity-SERVICECHECKHISTORY-842eb50b-7ba7-5aff-b1f4-b1ba10cae72c-attr-4-type" class="er entityLabel">ServiceStatus</text><rect height="21" width="102.3671875" y="86.67363452911377" x="88.359375" class="er attributeBoxEven"></rect><text transform="translate(93.359375,97.17363452911377)" style="dominant-baseline: middle; font-size: 10.2px;" y="0" x="0" id="text-entity-SERVICECHECKHISTORY-842eb50b-7ba7-5aff-b1f4-b1ba10cae72c-attr-4-name" class="er entityLabel">status</text><rect height="21.02705192565918" width="88.359375" y="107.67363452911377" x="0" class="er attributeBoxOdd"></rect><text transform="translate(5,118.18716049194336)" style="dominant-baseline: middle; font-size: 10.2px;" y="0" x="0" id="text-entity-SERVICECHECKHISTORY-842eb50b-7ba7-5aff-b1f4-b1ba10cae72c-attr-5-type" class="er entityLabel">i64</text><rect height="21.02705192565918" width="102.3671875" y="107.67363452911377" x="88.359375" class="er attributeBoxOdd"></rect><text transform="translate(93.359375,118.18716049194336)" style="dominant-baseline: middle; font-size: 10.2px;" y="0" x="0" id="text-entity-SERVICECHECKHISTORY-842eb50b-7ba7-5aff-b1f4-b1ba10cae72c-attr-5-name" class="er entityLabel">time_elapsed</text><rect height="21.14658260345459" width="88.359375" y="128.70068645477295" x="0" class="er attributeBoxEven"></rect><text transform="translate(5,139.27397775650024)" style="dominant-baseline: middle; font-size: 10.2px;" y="0" x="0" id="text-entity-SERVICECHECKHISTORY-842eb50b-7ba7-5aff-b1f4-b1ba10cae72c-attr-6-type" class="er entityLabel">String</text><rect height="21.14658260345459" width="102.3671875" y="128.70068645477295" x="88.359375" class="er attributeBoxEven"></rect><text transform="translate(93.359375,139.27397775650024)" style="dominant-baseline: middle; font-size: 10.2px;" y="0" x="0" id="text-entity-SERVICECHECKHISTORY-842eb50b-7ba7-5aff-b1f4-b1ba10cae72c-attr-6-name" class="er entityLabel">result_text</text></g><rect height="13.5" width="24.0078125" y="163.52699279785156" x="537.1433715820312" class="er relationshipLabelBox"></rect><text style="text-anchor: middle; dominant-baseline: middle; font-size: 12px;" y="170.27699279785156" x="549.1472778320312" id="rel473" class="er relationshipLabel">links</text><rect height="13.5" width="24.0078125" y="168.07513427734375" x="263.45513916015625" class="er relationshipLabelBox"></rect><text style="text-anchor: middle; dominant-baseline: middle; font-size: 12px;" y="174.82513427734375" x="275.45904541015625" id="rel474" class="er relationshipLabel">links</text><rect height="13.5" width="24.0078125" y="168.92449951171875" x="380.0959167480469" class="er relationshipLabelBox"></rect><text style="text-anchor: middle; dominant-baseline: middle; font-size: 12px;" y="175.67449951171875" x="392.0998229980469" id="rel475" class="er relationshipLabel">links</text><rect height="13.5" width="24.0078125" y="147.74635314941406" x="94.45851135253906" class="er relationshipLabelBox"></rect><text style="text-anchor: middle; dominant-baseline: middle; font-size: 12px;" y="154.49635314941406" x="106.46241760253906" id="rel476" class="er relationshipLabel">links</text><rect height="13.5" width="39.3515625" y="455.9230041503906" x="142.9390869140625" class="er relationshipLabelBox"></rect><text style="text-anchor: middle; dominant-baseline: middle; font-size: 12px;" y="462.6730041503906" x="162.6148681640625" id="rel477" class="er relationshipLabel">creates</text><rect height="13.5" width="39.3515625" y="446.385009765625" x="481.7507019042969" class="er relationshipLabelBox"></rect><text style="text-anchor: middle; dominant-baseline: middle; font-size: 12px;" y="453.135009765625" x="501.4264831542969" id="rel478" class="er relationshipLabel">creates</text><rect height="13.5" width="39.3515625" y="165.81350708007812" x="748.6912231445312" class="er relationshipLabelBox"></rect><text style="text-anchor: middle; dominant-baseline: middle; font-size: 12px;" y="172.56350708007812" x="768.3670043945312" id="rel479" class="er relationshipLabel">creates</text><rect height="13.5" width="39.3515625" y="692.2969970703125" x="307.0992126464844" class="er relationshipLabelBox"></rect><text style="text-anchor: middle; dominant-baseline: middle; font-size: 12px;" y="699.0469970703125" x="326.7749938964844" id="rel480" class="er relationshipLabel">creates</text><text class="entityTitleText" y="-25" x="420.86688232421875">Maremma Database</text></svg>